<mxfile host="app.diagrams.net" agent="Mozilla/5.0 (Macintosh; Intel Mac OS X 10_15_7) AppleWebKit/537.36 (KHTML, like Gecko) Chrome/129.0.0.0 Safari/537.36" version="24.7.17" pages="2">
  <diagram name="实验探究" id="2BcOkrmBicRuIQC1yzMt">
    <mxGraphModel dx="2110" dy="1083" grid="0" gridSize="10" guides="1" tooltips="1" connect="1" arrows="1" fold="1" page="0" pageScale="1" pageWidth="1200" pageHeight="1920" math="1" shadow="0">
      <root>
        <mxCell id="0" />
        <mxCell id="1" parent="0" />
        <mxCell id="5Z_fXDEKwbZJyF92QmT3-1" value="" style="shape=image;verticalLabelPosition=bottom;labelBackgroundColor=default;verticalAlign=top;aspect=fixed;imageAspect=0;image=data:image/png,/9j/4AAQSkZJRgABAQAASABIAAD/4QBMRXhpZgAATU0AKgAAAAgAAYdpAAQAAAABAAAAGgAAAAAAA6ABAAMAAAABAAEAAKACAAQAAAABAAACgKADAAQAAAABAAAB4AAAAAD/wAARCAHgAoADASIAAhEBAxEB/8QAHwAAAQUBAQEBAQEAAAAAAAAAAAECAwQFBgcICQoL/8QAtRAAAgEDAwIEAwUFBAQAAAF9AQIDAAQRBRIhMUEGE1FhByJxFDKBkaEII0KxwRVS0fAkM2JyggkKFhcYGRolJicoKSo0NTY3ODk6Q0RFRkdISUpTVFVWV1hZWmNkZWZnaGlqc3R1dnd4eXqDhIWGh4iJipKTlJWWl5iZmqKjpKWmp6ipqrKztLW2t7i5usLDxMXGx8jJytLT1NXW19jZ2uHi4+Tl5ufo6erx8vP09fb3+Pn6/8QAHwEAAwEBAQEBAQEBAQAAAAAAAAECAwQFBgcICQoL/8QAtREAAgECBAQDBAcFBAQAAQJ3AAECAxEEBSExBhJBUQdhcRMiMoEIFEKRobHBCSMzUvAVYnLRChYkNOEl8RcYGRomJygpKjU2Nzg5OkNERUZHSElKU1RVVldYWVpjZGVmZ2hpanN0dXZ3eHl6goOEhYaHiImKkpOUlZaXmJmaoqOkpaanqKmqsrO0tba3uLm6wsPExcbHyMnK0tPU1dbX2Nna4uPk5ebn6Onq8vP09fb3+Pn6/9sAQwACAgICAgIDAgIDBQMDAwUGBQUFBQYIBgYGBgYICggICAgICAoKCgoKCgoKDAwMDAwMDg4ODg4PDw8PDw8PDw8P/9sAQwECAgIEBAQHBAQHEAsJCxAQEBAQEBAQEBAQEBAQEBAQEBAQEBAQEBAQEBAQEBAQEBAQEBAQEBAQEBAQEBAQEBAQ/90ABAAo/9oADAMBAAIRAxEAPwD9/KKKKACiiigAooooAKKKKACiiigAooooAKKKKACiiigAooooAKKKKACiiigAooooAKKKKACiiigAooooAKKKKACiiigAooooAKKKKACiiigAooooAKKKKACiiigAooooAKKKKACiiigAooooAKKKKACiiigAooooAKKKKACiiigAooooAKKKKACiiigAooooAKKKKACiiigAooooAKKKKAP/0P38ooooAKKKKACiiigAooooAKKKKACiiigAooooAKKKKACiiigAooooAKKKKACiiigAooooAKKKKACiiigAooooAKKKKACiiigAooooAKKKKACiiigAooooAKKKKACiiigAooooAKKKKACiiigAooooAKKKKACiiigAooooAKKKKACiiigAooooAKKKKACiiigAooooAKKKKACiiigAooooA//R/fyiiigAooooAKKKKACiiigAooooAKKKKACiiigAooooAKKK8K/aX+LD/BP4H+LPiHZJ5+rWdr5GlwAbmn1O8YW9lEq9W3TyJkDPy5PagDI+E37Ufwv+M/xM8e/Cnwe12us/D6cQXb3McaQXYEskEklm6yO0scU0TRuzKmGwBkHNeieE/ihoHjHxz45+H+mW91FqPgC6sbS/kmRFhle/s4r6MwMrszKI5VDb1QhgQARhj+SXhL/hIv2btR+AXjTUPhp4m8JWnhONvC/jPWtV/s37JeQeI50eS4ke1vrmbEequJ13xgbXYE5wD6b8Zdd8VeGrL9tbWfB11c2F/Bf+EllurPcLi2sZNI02O/miK/MrRWjTOGHK43DkUAfrRRX5Ra34G/Zz8A/tN/szWHwInsrU6lf6xczWul3huYLu3XRbkRXs6iRw0pLMqTt88gZ8s235fOLnR/g74k+BHxr+MPxj1ZbX40eH9W8TKNQlvnh1bRb2xnlXRrXTwJFeKMxrb+THGNs2853ZNAH7SV5t4r+Jum+CND8Z+KvFOl39hoPgmwbUp78pDJDeW8cDXExtVjlaVjEqlXEiR5bGzcOa+Arb4eWnxp/at8A2nxz0039yfg9aXuraZMWjt5tRfUYxKlzCpVZEjkdyInBQOFbGVXHOfFXwZ4cu9N/bb8LDSYJ9O0rwnoT2dqYw8cL6foM8tq0anOGheNGjI5UqCORQB+hPjX42eEvA3hPwn4z1GC8utP8AGWp6PpVl9njQyLNrcqRWzyrJIm2NS4MhBLAZwrHivYK/JT4p/C34QaV+y98J9P8AhfpthoEXizxb4BOoXOhbLaaWWa4iXzzLb4YSjexV87geQc1734Q8AeEfgt+2dpXhL4Yacvh/QvFngfU73UbC3dxbT3un6jZpBdNGWIM4S4kRpPvMG+Yk80AfeFFfg14V+EPhPQP+Cefwu+NXh9rrTPiJDfaGIPEEFzKuoW8V9rKWUkEUm7CQCCVlEIHlk/MVLEk/dWjfD/wj8E/20PB/h74YWH9haX4z8I63Jq1rFJI0V5c6ddWZt7qYOzb7hRNIpmbLsGIZjQB9X/FT4qeHvhDoWm+IPEtvdXNvqmrabo0S2iI7i41S4S2hZhI8YEau4LkEkLnCseK9Mr42/bg/5Jl4Q/7Hzwf/AOnaCvK9I+C/w6+MH7Zfx8g+Jekrr+n6fpfg4R2Nw7m0Mk1tefvnhDBWlQJiJyN0e59pBY0AfZPxc+Lvh34N+H9P1zXrO+1SfWdStdI06w02JJru9v7wnyoYlkeKMEhWYs8iKApJNZvgr41aV4x8dXHw2uPD+reHvENnolnr1xbaklqDDb31xPbRxM1tcTqZg1uzMFJQKVw5OQPy2ufBvhb4lfs6/sxT/EXTIPE9za/EyTwyLjUkF1M+kwajqtqLWSSTLNG0VrCHBJ3bFJzivpXX/Cdjpfx5+MHgjwZpkdpaW3wd02w0+xtYwkcaLPqscMMUajAA4VVA9hQB+jVFfk34g+IvgXUv2Xv2SdD07XbO71G+8SfDWKK2hnSSbdZzWwuN0aksvlMpSQkDa+FOGIFc34i0fV/ij8f/AIyaZ8S/A3hzxve6JqcVppMPiPxZPocumaMbOF7ebTrVLG5CCV2kka7jkVzJuU7fLGQD9iKK/JK5+H+ueL9e/ZA8BfGvWofFV2sfi2HUbrTtQe5g1GG1sT5KPeIInnV40jW4JA8071cEM2YfG41/4JeG/wBrbwN8ChcaDpfhrT/DepabaaeXI0tdUgddVmskyTERBC0wCYCuCygGgD9c6K+LfB3w4/Z38A+Eb3xp+zNZ6RdeMbjw/eyaTdWl4Lq81RvI3xvMxkZrotIELNIGIJ6jNfn98NPB/izxX8KvA/xL8E6R4R0b4hPNpd/ceOLzxxcPrU9950b31vqFs+nKW8/97BJZPMUjLbRnYMgH7p0V49+0Jq3jHQvgR8Q9a+HiyN4msNA1OfTfKXfKLqO2do2jXnc4YAqMHLADBr844vD3wS8DaH+zr48/Z41OKb4geK/EGg291d2l89zqGu6ddpu1k6mvmM0ypFvllaVT5EigDYcLQB+vtFflJ4P+BHw1+KN7+1L4h8d6adWvLDxfq0dgZJpANPli0mzkFzaqrARXBZlzKoDkIgzgYr7o/Zh8R6z4v/Zw+F3inxFcve6pqvhjSLm6uJDueaeS0jaSRz3Z2yxPqaAMLxH+0x4b0/xnq3gDwR4V8Q/ETWvDxRdVTw9awSQafLIu9YZ7m8uLWDzip3GJJGcDqo6V614A8dWPxD8PL4gstN1HR2WWSCaz1a0ksryCaI4ZJIn69iroWRgQVYg5r46/Y68SeHvAk/xV+E/jfULfSPG+n+Ntd1W8gvJVgnvbTU5/tFpqEYcgyQywlVDjOCu1scVS/aZ8aeA/iP4m+DXh7UfEdve/CPXfE+oad4kuLW8C2FxfWljLJYWF1cROFMUl0NrxltrOoRuRwAfoRRX5D+LbHwr4Nj/au+G/wUlQfDaw+F1zeXdjaSmXTtM8Qz2moI8Nsu5khMtqkcksaYGcEgGjxH8CfAfhHRv2YNZ8MLd6XrPjXUtM0XxDqNveTx3msade6RPcXNvdzK+545GhUAZHlrxFsAGAD9eKK/LbUvC+g/Crxl+078LPAFoujeEpvhvBraaZAWFpBfTwalbzSwxElYzKkSeZtADFQTzXi2gaH8G/C37PP7PvxR+DmpRy/F/UNQ8J2Ud1BevLqWoSzvDDqun3a7yzW0UPnK0TDZAsahdoAoA/bKuA8TfErwv4S8aeDvAWsPKureOp72301UjLI0lhaveTeY38AESMQT1PFfIvw08b+EPh/wDEr9qFPGmsWujyWuu2uqOlzMkTmzm0OzEcyqxBZWaNlBGcsCvXivjzwb8O/hf4v8G/sMT/ABL0HTdT0y+sNU0+8fUoY3hljGjXM1tBIZBtI+0APGp/j5HNAH7eVwHj/wCJfhf4aR+H5PFDyovibWbHQbPyozJm91BikIbH3UJBy3avz7+M3h7wJ42+Lr/BvR9A8A6DpHw88K6bdRX3i6Ce6txYXElwsSaZZwXdlFHFbCE+ZcCTKlkXGADXzxFH4d+LH7JHwH1j4oCz8VWekfFS30YX99G7xnRm1e4tvLY3byyLA8KRRlZZGOxUV2YjJAP2tvdZurTX9M0WLSLy6g1CO5eS/i8n7LaGAJtSffKsu6befL8uNx8jbyny7t2vhLW/CngnwR+0/wDs5+F/h1ptlo/h6y0bx59ltdPRI7WPzDpsknlrH8o3SMzNj+Ik9a+HxYfDS7/Y4174+eItV8n9o22vb531IXbjX7bxPFqDx2+mxRb96x5CQraqnlmE7tmDuoA/c2ivzbX4T+EvjD+2n4wtPi3pKavb2vgLw3JPpkzs1i11LdXuXkhDBJWiIYR78hdxI5wR7V+xRcXafB7U/DU1zNdWnhPxT4m0OwNxI00qWGn6pPFbRGRyWYRRhUXJOFUDoKAPbtG+Knh7W/ir4l+EFpb3Saz4W0/TtSupnRBbPDqTTLEsTBy5dTA28MigZGCecemV8ReENc0XRf24fi82sahb2Al8K+FAhnlSLdiXUM43kZxkZxXIftM6h4d+Kvxa8H/CC303wffiTRNR1yPV/FomvtMEcVxDbyW9raW9xbJPcA4d2aUeUg46mgD7N+J/xL8L/CHwVe+P/GTyx6TYS2kMrQxmWQPe3MVpFhRjIMsq59Bk9q7+vwf1E6V46/YJ+MOl+JbvTvFmkfDz4k21pot1bxynT7azjvNL3tZC6mupEthFeXKxkzOBA5Ct5ZAr6S/ac8LeF/AN58HPhp8K/DGgwfCzxHrGrS6xpY1P/hHdEv8AUktI2sILy8tYJxiXEjiFk2zPEitngUAfqdRX4/ar4K8VeCPgx+0za29j4d8KeDL7wNdTQeGNC8QPrcen6gtrdJLcxo9rai1iuowoKKm0vEWHJOPQrr4V+Dfgxcfsy/EPwFbSWPifxFr2maJrOomeV7jVbPUdGvJZ1vWdj5372FHQNkRkDywoAAAP0/or8wPhN4M+BXxW8Q/FjxN+0qbDVPHmh+LdXs5U1q8MMmjaVby401bJXkT7NbtbbZUniCmRmZi5I43Pj98QdQ/ZF+LPib4iaJYSX1h8Y9HFvY2saF1bxvpyiCwjIHCi/t5FVj1JtsnrQB+kdFePfAH4Wp8GfhD4a+Hjz/bL/T7fzNRuictd6lcsZ724JPJMtw7vzzggdq9hoAKKKKACiiigAooooAKKKKACiiigAooooAKKKKAP/9L9/KKKKACiiigAooooAKKKKACiiobkstvKyHawRiCOxx15oAmor4d+Bfgj4v8AxM+CvgH4ja58dfFtvqPinQdM1S5jt7Pw2IUmvLaOZ1jD6M7BAzELuZjjqSea9V/4Uj8Sv+i9+M//AAE8M/8AykoA+jaK+cv+FI/Er/ovfjP/AMBPDP8A8pKP+FI/Er/ovfjP/wABPDP/AMpKAPo2ivnL/hSPxK/6L34z/wDATwz/APKSj/hSPxK/6L34z/8AATwz/wDKSgD6NrD13wx4b8UR2cPibSbTVo9Ouob62W7gjuBBd253QzxiRW2SxnlHXDKeQRXh3/CkfiV/0Xvxn/4CeGf/AJSUf8KR+JX/AEXvxn/4CeGf/lJQB7n4i8N+HfF+i3XhvxZpdrrekXyhLizvoI7m2mUEMFkilDIwyAcEHkA1lXvg3SktPEcvhm1s9E1nxJCVuNQis4XklnSD7PBNcKQPtBhQKqrISNihOF4ryH/hSPxK/wCi9+M//ATwz/8AKSj/AIUj8Sv+i9+M/wDwE8M//KSgDzj4W/shR+CviRo/xF8S6votw3hs3cunaf4c8NW3huzF5ewm3lvLpYZrh7mbyWdEJZVUOxC5NfSuq/Cf4Wa74qt/Het+DdG1DxLZlDBqlxp1tLfRGP7my4dDKu3thuO1eY/8KR+JX/Re/Gf/AICeGf8A5SUf8KR+JX/Re/Gf/gJ4Z/8AlJQB7p/wjnh7/hIR4u/su1/t0WpsRf8AkJ9r+yF/N8jzseZ5XmfPszt3c4zzTIPDHhq11HVdXttJtIr/AF1Yl1C4SCNZrxYEMcQuHA3ShEJVQ5O1TgcV4d/wpH4lf9F78Z/+Anhn/wCUlH/CkfiV/wBF78Z/+Anhn/5SUAd9o3wR+C/h22ey8P8AgHw/plvLeW+ovHa6VaQo19aNvt7kqkYBmhbmOT7yHlSDXbyeHtAm16DxTNplq+tWtvJaQ3zQobqO2mZXkhSYjesbsisyA7SVUkZArwr/AIUj8Sv+i9+M/wDwE8M//KSj/hSPxK/6L34z/wDATwz/APKSgD1tPhz8PU8KWvgRPDGlr4asWia30sWUAsYWgkE0Rjt9nlKY5QHQhRtcBhgjNbM/hzw9da7aeKLrS7WbWbCGW3tr54Ea6ghnKmWOOYjeiSFFLqpAYqMg4FeF/wDCkfiV/wBF78Z/+Anhn/5SUf8ACkfiV/0Xvxn/AOAnhn/5SUAe6a54c8PeJ7WGy8S6Xa6tb288N1FFdwJOiXFu4khlVZAwEkbgMjDlWAIINFn4c8PadrOo+I9P0u1ttW1hYEvbyKBEuLpbUMsCzSqA8giDsEDE7QxAxk14X/wpH4lf9F78Z/8AgJ4Z/wDlJR/wpH4lf9F78Z/+Anhn/wCUlAHrkPw7+H9vpum6PB4Y0uOw0a9OpWNutlAIbS+Z5JDdQIE2xzl5ZHMigPudjnLEnZj8PaBDr0/imHTLVNaureO0mvlhQXUltCzPHC8wG9o0Z2ZUJ2gsxAyTXhX/AApH4lf9F78Z/wDgJ4Z/+UlH/CkfiV/0Xvxn/wCAnhn/AOUlAHoFp8FPg1YalNrNj4C0C31C5u4b+W4j0u1SaS8t5PNhuGcRhmljkAdJCdyt8wIPNXvGfwo+FvxHmtrn4h+DtG8US2QxA+qafb3rQgnOIzOjleeeMV5j/wAKR+JX/Re/Gf8A4CeGf/lJR/wpH4lf9F78Z/8AgJ4Z/wDlJQB7PH4K8GxXGi3cWg2CT+G1lTS5FtYg9gs6eXKtqwXMIdPlYJt3LweKu2vhzw9Y6tqOv2Ol2tvqmsLCl9dxwIk90tsrLCJpAA0gjVmCBidoJAxk14X/AMKR+JX/AEXvxn/4CeGf/lJR/wAKR+JX/Re/Gf8A4CeGf/lJQB6V4X+EXwo8D6xc+IfBXgvRPD+q3oYT3en6bbWlxMGOWEksUauwJAJyTk1Wm+CvwcuPFR8dT+A9Bk8SmQTHVG0u1a+MgOQ/2gx+Zuz33Zrz7/hSPxK/6L34z/8AATwz/wDKSj/hSPxK/wCi9+M//ATwz/8AKSgD6NrgPD/wn+FnhPxBd+LfCvg3RtG1y/3fab+y062t7ufect5k0aK75PJ3E5rzH/hSPxK/6L34z/8AATwz/wDKSj/hSPxK/wCi9+M//ATwz/8AKSgD26x8KeFtMXVk03R7O0XXp3udRENvHGL2eVFjeW42qPNdkRUZnySqgE4AFXdH0bSPDuk2eg+H7GDTNM06FLe2tbWJYYIIY1CpHFGgCoiqAFVQABwBXgn/AApH4lf9F78Z/wDgJ4Z/+UlH/CkfiV/0Xvxn/wCAnhn/AOUlAHqHjT4VfC/4km3PxE8H6P4pNp/qTqun2995WTn5PPR9vPpWjceAvA134VPgW68O6dN4aMYiOlvaQtY+WDuCfZyvlbc8424zXj3/AApH4lf9F78Z/wDgJ4Z/+UlH/CkfiV/0Xvxn/wCAnhn/AOUlAHq+kfDT4ceH/Cd34C0HwppOm+Gb+OaK40q2sYIbCaO4XZKklsiCJ1kX5XBUhhwcitS58H+EryLR4LvRLGePw7LHPpivbRMtjLFG0SPbAriFljZkVkwQpKjgkV4p/wAKR+JX/Re/Gf8A4CeGf/lJR/wpH4lf9F78Z/8AgJ4Z/wDlJQB6J48+GPh7xp4e8X2Fva2uma14v0W40SfVltUe6EEsUscYdxseVIWlZ1jLgZJxjJNc58LfgH8N/hjpXhuS08P6Tc+KtB0iy0mTX002CDULpbS2S2LtMA0oDqn3TI2AcZPWue/4Uj8Sv+i9+M//AAE8M/8Ayko/4Uj8Sv8AovfjP/wE8M//ACkoA9W1z4ZfDfxP4hsfFviXwppOra5pgAtL+7sYJ7u3AJIEU0iM6YJJG1hyag1L4UfC3WfCFp8PtX8HaNfeFrAILfSZ9Pt5dPhEYIQR2zIYk2gkDCjGTivMP+FI/Er/AKL34z/8BPDP/wApKP8AhSPxK/6L34z/APATwz/8pKAPQ9T+DHwe1q20Sy1jwLoN/b+Go0h0qOfTLWVNPijACJaq8ZEKqAABHtAwMVrzfDj4eXHhq88GXHhfS5fD+oyyz3OnNZQNZzyzyGaWSSAp5bs8pLszKSznccnmvJf+FI/Er/ovfjP/AMBPDP8A8pKP+FI/Er/ovfjP/wABPDP/AMpKAPVdB+GXw28Kx6ND4Y8J6To8fhxLqPS1s7C3txYJfOJLpbYRovkrO4DShMByAWyagl+E/wALLjxgnxDn8G6NJ4qjIK6u2nWx1BSowCLkx+aMDgfN0rzH/hSPxK/6L34z/wDATwz/APKSj/hSPxK/6L34z/8AATwz/wDKSgD3SHw54et9eufFNvpdrFrV7BFaz3ywIt1LBCzNHE8wG9kRnYqpJCliQBk0ui+HtA8N289p4d0y10qC6uJruWO1hSBJLm5cyTTOsYUNJI5LO5+ZmJJJNeFf8KR+JX/Re/Gf/gJ4Z/8AlJR/wpH4lf8ARe/Gf/gJ4Z/+UlAHb+MfgR8D/iHrH/CQ/ED4eeHfE2q+WsP2vU9Js7248tM7U82eJ32rk4GcDNOn+BXwRuvDWneDLr4e+HZvD+kSSTWWnPpNo1nayysXd4YDF5cbMxLMVUEk5PNcN/wpH4lf9F78Z/8AgJ4Z/wDlJR/wpH4lf9F78Z/+Anhn/wCUlAHsFr4A8CWOlapoNl4b0230zXHaXULWOzhSC8keNIWa4jCbZWaONEJcElVVegAGTpnwi+E+i+E7rwDo/grRLDwxfSNLcaVBpttFYTSPjc8lskYiZjtXJKknA9BXmv8AwpH4lf8ARe/Gf/gJ4Z/+UlH/AApH4lf9F78Z/wDgJ4Z/+UlAHo+ifB74SeGvD+peE/DngjQ9K0PWY2hvrC0022gtLuJ1Ksk8McYSRSrEEOCCCR0NdPeeFPC2oRaTBf6PZ3MWgzx3OnLLbxutlPDG0UctuGUiJ0jdkVkwQrEA4JFeI/8ACkfiV/0Xvxn/AOAnhn/5SUf8KR+JX/Re/Gf/AICeGf8A5SUAek+J/hD8JvG2tW3iTxn4K0TXtWswogvNQ022urmIKcgJLLGzrg8jBGK4Lxv8FdZ+I3xV8LeL/F/iWO48IeC71NX03w/FYCNjq0ULwxXNzeNM5lWHzHeKNYY9rkFmbaKp/wDCkfiV/wBF78Z/+Anhn/5SUf8ACkfiV/0Xvxn/AOAnhn/5SUAfRtFfOX/CkfiV/wBF78Z/+Anhn/5SUf8ACkfiV/0Xvxn/AOAnhn/5SUAfRtFfOX/CkfiV/wBF78Z/+Anhn/5SUf8ACkfiV/0Xvxn/AOAnhn/5SUAfRtFfOX/CkfiV/wBF78Z/+Anhn/5SUf8ACkfiV/0Xvxn/AOAnhn/5SUAfRtFfOX/CkfiV/wBF78Z/+Anhn/5SVFN8FPiXHC8i/HvxnlVJH+ieGew/7AlAH0lRXi/7OPijX/G/7Pnw08Z+Krs3+ta94b0i/vbgokZmubq0jllfbGqou52JwqgDsK9ooAKKKKACiiigAooooA//0/38ooooAKKKKACiiigAooooAKguv+PaX/cb+VT1Bdf8e0v+438qAPm39l+4ltf2P/hRcwHbJF4K0RlPXBGnxYNe8xaBaNGrST3LsQCWNxICT+BArwD9mf8A5M4+Fn/YkaJ/6b4q9J+In/C6PL0v/hUX9g42yfbf7b+0/wCx5Xk/Z/8Age7d/s471th6PtJqF0vN6IxxFb2cHOzdui1Z3X/CPWP/AD0uP/AiX/4qj/hHrH/npcf+BEv/AMVXzz/xmd/1In/lTo/4zO/6kT/yp16X9kf9Pof+Bf8AAPM/tn/pzP8A8BPob/hHrH/npcf+BEv/AMVR/wAI9Y/89Lj/AMCJf/iq+ef+Mzv+pE/8qdfRuhf23/Ymn/8ACS/Z/wC1/s8X2z7Ju+z/AGjaPN8rf83l7s7d3OMZ5rlxWC9kk+eMvR3OvCY72ra5JR9VYg/4R6x/56XH/gRL/wDFVzXi2+8H+BtEk8ReKdQuLKwjlt4N4luJWaa6mSCCNI4tzu8ksioiqpJYgAV4N8d7261v40/DP4V614l1Dwp4S8QWWuXtxNpt/Lpdxf6hYfZBa2X2yB45o18qaecpG6mTyu6qwPz/AOHPFGv+KNN+Ell4g1ibxJ4Y0n4t6tpVrrFw4mk1Gy0211MaVJNMMLPtukSPzh/rHiRiSxyeE7j7r1DxL8L9I8U2PgbVfFlnZeJNT/49NMm1VY7644LfurdpRI/Ck/Kp4BPar327wePF48BNqFwuvNY/2mts0twu+0EvktIjn5H2SFQ6qxZNyFgA6Fvnv9pW28MWHxG+BWrtFZ2+qSePbYT3BWNLhoF0TVwod+HKA4xk4zXQ/FuQj9of4B3Gltuu5rvxFFOVPXS30mSSXJH8H2qOzPpu20Aex+Lr7wf4E0C48T+KtQuLLTbZokeTzbiVjJcSLDFGkcW53eSR1RERSzMwABJrpf8AhHrH/npcf+BEv/xVfPX7SZkbXPgrb3P/ACCZvH2n/bf7pMdjfS2e7tj7aluR/tha+Vv2tfidr1pqfxT1b4f3mo6Tqfwq0u3lnv5vGE+i2cF7NafbLZbbR4oLiHUTIGRWW4VVlcmJWBBZQD9Lv+Eesf8Anpcf+BEv/wAVR/wj1j/z0uP/AAIl/wDiq+C/ih8dvFnwa1mfxvcXE97b/FDwXBN4f0+SV5beLxbaFIorS3jYlYxfC+hJUD5jbu3Jzly6HqNv8T7L4O/E74n65o2n+A/AOlajbX0WtTWM2qajJPcw6jqV1cFw1yLfyIT5UxeJfNy8ZDAUAfeX/CPWP/PS4/8AAiX/AOKrmvFepeAfAekN4g8c+IYPDulowRrvUdS+yW4ds4UyTSKuTg4Ga+Y/2UPE3inxZ8Dfgf4h1/4hM17qVvfyXlvfiOe78RELPtVZbhjOht8Cc+Vk7U2thM19WeORFLohtobvS7LVp2K6ZLq8P2m2W9CMUPkiWF5CFDEqkiMVDYYDJoAw7LxF8MtS8KN4807xVaXXhlFLnVItVV7EKp2ljcLKYsA8E7utaHhe88D+ONDt/E/grXYvEGj3ZcQ3un6j9rtpTE5jcJLDIyNtdWVsHhgQeQa+V/2XbLSp7z42eG/Go0rWr6PxVHPrF1p8SL4fuZptPs2jFtbPvEDwokYuI3kmfzgXaViwC0PgB4j8SeHf2UPEd98K9Hj8S+JtP13xkdO0uKWKMSSv4iv1izveNAig7yC67lGAwJBoA+t7G88D6pr+p+E9M16K71vRVhe/sIdR8y6tFuFLQtPCsheMSKCULqNw5GawPHXjf4PfC/7D/wALL8bad4S/tPzfsn9r6zHYfaPJ2+Z5X2iVN+zem7bnbuXOMiviX9lyTUPDv7Ufi/w7c+B/EmlXmoeEtCm1TUNa/sz7RPffbdWmmvrv7HfXA/0uR2WJY9+zZsKxxLHn7G+L/wAXPDngr4Ia58YNFe18RQWtiZdJNu6XMN9eXJENlFE6EqwnuHjjBUnO6gC3D8RPglc+Dz8Q7fx7pUvhUSNCdXTW4m08SrwU+0ibytw7jdkVvXOtfDmy8JxePbzxNbQeGZ4I7mPVZNTC2DwTANHKtyZBEUcEFWDYIIwea8u8FfCPQPhf+zdpnw+8WJaanc6Tp01ze3F0kbpNrFwsk93cjeMB5LiWVlPUBsA1xXwN8U/DPw5+xF8L/FHxKuLE6BoXhHw/PcNdIlwkU0dlB5YWMhiZt+BGqguXICgsQKAPonwtq3w98daN/wAJH4J8R2/iHSSzL9s07Uxd2+5OWHmwyMmRnkZ4qp4P8S/C/wCIS3j+AfFln4lXTpBFdHTNVW8EEhzhJTDK+xuDw2Dwa+FPiF4U8WN+zz+0L8ZpNLbwxdfEXTYJRodsALuz0ewhMUkt2ITgX1xbPK8yrny1EcW5mjJr0LXbz4ead+0T4U1D4Ww21xplr8OPEMusR6F5fz6Sktg2lKvkkLuLC4FtznG/bxmgD6g8P+MvhH4t1698K+FfGen6zrWm7vtVjZawlxdW+w7W82GOVnTB4O4DB4qe18UfCy+8Xz/D6y8W2Vx4ptVLzaTHqyvqEaAZLPbCUyqMHOSvSvzZ+A9jfaHq37LN/rOo6BrGgT215beG7TREWPV7JbjR53Emp3AJS/SO3RorloorUC5ZJHVyABN4R/4Rr/hnr4LfYvsv/Czf+FkWP2rbs/tL+1/7al/t3zsfvc/ZPtPnbv8AljjPy7aAP1V/4R6x/wCelx/4ES//ABVc14UvvB/jfSn1rwxqFxeWkdzdWbky3ETx3NlM9vPE8cu10eOVGUhlB4z0INfGeh6trvgT462d78T9X1XX4fF3inULDQtT0jxPLPpSLMJ3tdPvNA3xxRfZ4UMTyxxzHzEEkjruO32v4BmRPin8fLXT+dDi8W2rQY+4LyXQ9Oe+Cf8AbU7m7b2bvmgD6G/4R6x/56XH/gRL/wDFUf8ACPWP/PS4/wDAiX/4qtyigDD/AOEesf8Anpcf+BEv/wAVR/wj1j/z0uP/AAIl/wDiq3KKAMP/AIR6x/56XH/gRL/8VR/wj1j/AM9Lj/wIl/8Aiq3KKAMP/hHrH/npcf8AgRL/APFUf8I9Y/8APS4/8CJf/iq3KKAOe01HtNVu9OWWSSBI4pFEjFypYsDhjzjgcE10NYdv/wAjFef9e8H/AKFJW5QAUUUUAFFFFABRRRQAUUUUAFFFFABRRRQAUUUUAFFFFABRRRQAUUUUAFFeP/GH4t6P8K/D73c7rLqU6n7PAcnknAdgOcZ4AHLt8o7kXfg2fHcvga2vPiIjQ6teSyziKRg0sUMrbo0kAACuByUGQmdueMC5Rsld6vp5d/636bM9eWS1o4NY6ekG7K+8u7S6pdX5o9TqC6/49pf9xv5VPUF1/wAe0v8AuN/KoPIPAP2Rv+TVfg5/2J+g/wDpBDX0NXzz+yN/yar8HP8AsT9B/wDSCGvoagAooooAKKKKACiiigD/1P38ooooAKKKKACiiigAooooAKguv+PaX/cb+VT1Bdf8e0v+438qAPmf9mf/AJM4+Fn/AGJGif8Apvir6bh/1Sf7o/lXzJ+zP/yZx8LP+xI0T/03xV9NRsqxJuIHyj+VAEtFN8xP7w/OjzE/vD86V0OzHUU3zE/vD86cCDyKLhY5fxd4I8F/EDSDoHjzQNP8SaWXWQ2mpWsV5b71ztby5lddwycHGRWV4i+Gfg3xH4RtfA8unpYaTp81ncWUdiFtfsc2nzJcWz2/lgCMxSRqVAGMDBBBINb4i/FnwF8KbbT7jxvqMltJq0zW9lbW1rc395dSohd1gtLOKaeTYgLOUjIUcsRXnni7486TdeB/B/iL4SXlprtx4/1u00XSJZVka3Du8jXjzRgxSg2tvb3LvESjCSPy22nOGI7Xxl8C/gl8RdXHiD4hfD3w94n1RYlgF3qmk2l7cCJCSsYknidtoLEhc4GT61uWvw68KWXi6x8aWtoIr7StKOi2MaYS3s7J5EkkSCJQFTzDFEGx1WKMDAXnznxl+1D8DvAPiHWfCvirxE9rqfhwQPqccen31ytjFcRCaOe5kggkjigKMCZnYRqeGYEEVs6n8Sb/AEb4zeGPAl4ltL4f8a6TeT6ZdRBjKNR05kllid9xR45raUSRbVBUwyZLB1CgHb+OPBOg/ELw7L4Z8RI7WzTW1zG8TmOaC5s5kuLeaJxyskUsaOp9RzkZFZviP4TfCvxhrI8ReLfBui63qy272gvL7Tra5uBbSqyPD5ssbP5bKzBkztIJBGCa5/4x/EPVfAem+HNP8NQwXHiHxfrljomnLcqzwK05aa5mkVGRmWC0hnl2hl3FAuRnIj8bfH74VfDrXP7A8Z6pcabMnk+dcHTr6Swt/PIEf2m/jga0g3Ej/WypjIzigDvNU8EeC9ci0eDWtA0/UI/D1xDd6YtxaxSrY3NuNsM1sHUiGSMHCOmGUcAivJPjh8GNa+LM+jzaXqHh+yOk+a0b634ag1+W3mcrtuLJ5riEW8ybeGKyKeMrxXqNr8QfB95rviTw1DqSrqPhGK2n1SORHiFtDdxtLDIXdVR0ZEf5kZlBVlJDKQPNNQ/af+B+l2PhzUbvxDJ5PivTU1mx8vT76V/7MkAK3tzHHAz2lt8w/fXKxIOcsMHAB1Xw7+Dvgj4ceDfBvg/T7JNR/wCEGtvs+m3t7HHNeRO8ZinmWXblJJwzeYU2hgxGNvFdV4v8DeCfiDpI0Hx94f0/xLpgkEotdTtIbyDzFBAfy5lddwBIBxnBPrWP4S+K3w68c6L4a8QeGdftrmz8YxST6P5jG3mv44lLyGCCcJK2xRuYBMqvJwOa1vHHjTQfh54U1Hxj4llaLT9NjDsI1MksrswSKGGMcySyyMscSLy7sqjkigCrH8Nvh1D4Pl+HkXhbSk8Kzo0cmkLYwDT3Rjkq1sE8oqTyQVwTWd4H+D3wk+GNxdXfw28EaH4TnvlVLiTSdNtrB5kQkqsjW8aFgpJIBzjNebfDD41+N/if8JtX8cad4EFp4o0nVtT0ZtBk1SMqbnS757KXde+SEUZRnOEbGMKW4Jq+Ev2kbC//AGb7/wDaH8c6K2gQaQmsG9061uPt7rJpF7cWRjhlMcHmtM8HyZROXAPrQB9CRaFokGtXPiSDT7ePVryCK2nvFiQXMsEDO8UTygb2SNpHZFJwpdiACxzjxeAfAsGg6Z4Vh8OabHouiSW81hYrZwi1tJbRxJbvBCE2RNE4DRlAChAK4NeRfD/40eMdV8f23wz+K3glfBWt6vpUus6WINSXVILm2tpIorqGSQQW/l3MDTwl41EiEPlJGANd58QfEXxT0a4sbb4a+DLTxR56yvczX2rjSoINm3agK213I7vk4xGFG35nGRQB03i/wR4L+IOjN4c8faBp/iXSXdZGs9TtYry3LpyrGKZXTcvY4yO1cXbfAD4D2Xhi88E2fw38NQeHdRmS5utNj0ezWynnixslltxEI3dcDazKSMcGuHs/jx4k8U/Aq2+MPw88FnVb5nvI7rSr3UY7H7K+myz295uuVjnV1jmt2VTGjbwQwAGafe/tCpa/AnwL8X4fD0l1qnxCh0JdM0aO5UZv9eSNoYHunRVWOMyHfKU+6pIQsQhAPT/BHwk+FPwzW/T4b+DNF8KLqojF4NJ062sRciHd5Ym8iNPM2b327s43Njqc3/B/w4+Hnw9W8TwD4X0vw0uoyCW6GmWUFkJ5BnDy+Sib25PLZPNeCt+04/hjQviY/wAUvC50TxF8LtJj1y+0/Tb0apFdadPHM8EtrcNFbMxZoJY3EkUewrk5UhqveDP2gPEt740uPA3xI8IQaDff8I7L4otZNJ1VdchlsIZUidJGW3tmjnJkUxqqyJIA2yQ7TQB7D4d+FPwu8Ia7eeKPCfg/RtF1nUN32m+stPt7a6n3nc3mTRIrvk8ncTk1Ztfht8OrHxfP8QbLwtpVv4pulKTatHYwJqEiEYKvchBKwwMYLdK+dvhh+0/r/jjXvh/beIfBcOi6N8U7G5v/AA/d2urx6jceVb24usX9ssEQty0R6xyzqsmI2YMRVb4GftP+IPjb4qk0qy0fwtY6fbXmqW1zBH4rN14gt49OuJ7VZZNJGnJtEskSkBrkARuHyxwpAPofS/hL8K9D8V3HjzRfBmi6f4lui5m1S3062ivpDLneXuEQStuyd2W571peC/BGg+AtKuNJ0BHCXl7d6jcSyv5k093fTNPPLI55JZ3OOyqFVQFUAcXovx6+F3iPxrJ4B0HUbq+1SK6ubJpItMv208XVoGM8H9o/Z/sRlj2MHQTbgylSN3FO+DvxD1Xx1Z+J9L8TQwW/iHwdrt7ot+tsrJC/lbLi1mjV2dlE9nPBKQWO1mZQSBmgD2CiiigAooooAKKKKACiiigDDt/+RivP+veD/wBCkrcrDt/+RivP+veD/wBCkrcoAKKKKACiiigAooooAKKKKACiiigAooooAKKKKACiiigAooooAK80+KXxO0L4XeHJdZ1WRTOVbyIS2N5Ucs3oi/xH8ByQK0/iB4+0P4deHpte1uQDaD5UW4K0rgZwCegHVm6AfgD83fDDwBrnxb8RxfGb4pRE2AZZdH06RSFcKcx3MkZ6Rr1gjPU/vWySuNFaK5pK/Zd/+Auv3bn1eQ5LSlTePxztQj983/LH9X0Re+EHwv13xh4gT40/FmNnvpWE2lafMuPs4/guZkPSXH+qjP8Aql5P7w/L9d14B8dPjjpvwo0pNP05BqHifUhtsrNQXKlztWSRV5xnhVHLtwO5Gv8AAN/F03w5trrxvqiarq1xcXMkjJMs5hzIcwOyfKHjbIZBwh+UcDFOdJxSnUl70tbdWtr+S6L8NmeZnud1MbXU6mllaMVtGPRLsvXWTu9bM9oqC6/49pf9xv5VPUF1/wAe0v8AuN/KsjxzwD9kb/k1X4Of9ifoP/pBDX0NXzz+yN/yar8HP+xP0H/0ghr6GoAKKKKACiiigAooooA//9X9/KKKKACiiigDy/4kfGPwD8J5NGt/Glzepc+IZZYLC30/TL/Vbi4kgjMsoWHT4LiTCRgsSVAAB5rJ1r4/fC/w74U0bxjrt7fWFp4imkt9PtZtI1JNUuZYt+9I9LNt9vJURsx/ccJh/uEMeD/aOh/Z/wDt3hDUPjf4wk8F3WnyX02jXkWrz6I/mtEsM4W6geJt3lyABN43Bj8rDOPkjwB8QtR8NeNPhn8YvjRq93J4BsE8b6Bo/iTW4jbsba4vbKTSby+dkjEbXVrbSxxzSKnmhVY/NKNwB9+XXx4+Elp8ObP4syeI4ZPC+oyJBa3MMc00lxcSSGFbeK2jRrh7jzAyGBYzKGVlK5UgLp3x3+Eup/D7VPinB4iih8NaI8sOoXFzHNayWc8JCvBcW86JPFMCygRPGJCWUBTuXP5+6PcJoVv4O+PWuQTW3w2HxZ8SeIDNNC6R2+marYXtjZapLGygx273cnnCRwNqzLIcAk0viudPGUXxN+OXhOGXVvh3/wALB8Eau01tC8seo2Hh8WK6ne28agmeGIoCXUFXFuxUsBmgD9FPh18XPAHxWh1GTwRqMlzNpEiRXttdWlzp95bPKu+PzrW8ihnQSL8yMyBXGSpODXoV1/x7S/7jfyr49+Enijw98VP2nPGvxR+Gt7Hq/g+Hwtouiy6pa/NZ3mpw3l9cskMo+SY20MyB2UnaZAhOQQPc/iN4C8U+L5Ibrw/8RNc8Fx20Lq8Gkw6VLHOTyHkOoWF24IHA2Mox1GeaAPNv2Z/+TOPhZ/2JGif+m+KvZvFXw78IePI7E+KrE3v2FW8n97LFt8zbu/1bLnO0dc9OK8Z/Zn/5M4+Fn/YkaJ/6b4q+m4f9Un+6P5Vy43A0MTSdHEQU4PdSSadtdU9N9TqweNrYeoq2Hm4SWzTaa6brXY8a/wCGefhD/wBAI/8AgVc//HaP+GefhD/0Aj/4FXP/AMdr2mivB/1IyX/oCpf+C4/5Huf66Zx/0GVP/A5f5ni3/DPPwh/6AR/8Crn/AOO163pmm2ej6ba6Tp0flWtlEkMSZLbY41CqMsSTgDqTmr1Fejl2QYDBycsJQhTb35YqN/WyPOzDPcdi4qOKrzmltzSbt97PmP4weGvHum/FvwJ8afBPhx/Gcfh3T9Z0e90qC5tra7EWqtaSpdWrXkkMBaN7QJIryoSkmVJK4PhCfDDxx4C8OeDfir4p00WupWPxLvvFuqaXaP8Aaxp1h4jW606RN8YxK1sl4k87oNuVlK7gAT+idFeueUfHWq/Cbxrda1+0tex6Qrp8Q9KtLTRmMsGb14dGe1ZDl8xhZmK/vdg5JHy81V0jwl4jvfiT8BPDF/ZyQTfDLw3caprEpw8cV1c2C6Tb23mqWR3kL3TnaSMQ5z8y5+z6KAPmv9onSr6C9+GXxKs4JLmHwJ4rtry9SNTIwsNQtbnSZ5ti5JEH2xZmIHCI5xXzB+1F8I/2hPiTdfFnw/p2ja54j0/xBpJtvCpsPEyaNo1qjaeI7iC/s0uYJLieS58xl82OaCRXRJGiQOR+mdFAH5//AB9+Cfxg8R3Ph2X4a2e5/Gvh6LwR4ymN1DC9lpck8Mpvl3uplkt4mvYlWMsxa4BAwCa6TxlB4h+B3xi8Q+PvDPhyy17w54g8KaXppjfU7LThov8AYUl4UecXkkZ+wSJdfO0IkdDGf3TZFfblcJ4v+F3wz+INzZXvj3wjpHiW400k2smp2FvePbknJ8ppkcpkgH5cUAfLH7IOm6vp/wCz5+z5BP4Ni1JV0N5ZdWkeGKXRkmtzJE8Uco85hdhhGREQQpy/y17z8Yfg/cfFh/DNxaeLtT8J3Pha/OpW0mnxWVwr3HlNEjSw39tcwsYg7NGSmUc7gQwUj2dESNFjjUKqgAADAAHQCnUAfGv7PHw/+LPwN+Hvj648U/2r431W+8T67qVhpm7SIZ7mC61KeWO5jkj+ywLJeJIs8iTSqsZ+VEi/1deYeAvhT8XfGn7KHjP4AeLvBd34F1u5Os3en3moXmnXdpPcahq11qdqn/EvurmRRGXiWYuq9Ts34r9GaKAPkfwtpHxZ+I3xp8P/ABW+IHgp/BFl4H0DU9PtrOe/tLye+1HWJbRp3ja0klRbaJLMKjSFJHMmTGoXnP8AjN4m/aT8Q+CPB+jeD/h5qumS+J4S/iqTSNU0iTU9FhCqXs7OW8u7SGS4mJMYukZlhUF1VnKY+yKKAPmmVNa8M/s7x+Hvh78J9UsZlspdKtfDKXekpd2kTLJEssk7X5tGU8OxFy8jbssC+4DzrwL4S8T6p+yRoPwy+Knwi1G61Lwlpeh6W2jNqemx3F7NpsVshvLG8tb4pA0To0kTPPBKCnG0kGvtuigD82/D37NvxNGg/GPxr4UsLnwL4q8caHaaLo1rqmty6tqmyyM8jz6hqZmuyJ7kz+Shjml8iJEKtkbV2fhZ8EvGGg+NtR1n4WfDpPgPpEvha/0y5ga7sroajrUrRHT7swWM1xGRZBZj58pWaQS7WTAOP0LooA/Nn4G/Afxn4U+IHw61rTfhgPhxqHh+C6Txjr39p2l2fE3m2jxmPFvNLPc+besl1512kTx7CFGWIr0XW/CfxE+KXjz4dTx/CgfDtfBWvrrF3rdzeaZKzW8cU0ctpYrYSyzOLwyBZTMsK7MkqzbRX3DRQB8KeF/AnxY8P/GawuPh14X1vwN4Xn1u/vfEEV9rNjqHh6+tbkTySSWFmJpru3uZ7p0m+RLeNSZN4bOD6t+zzpV9dat8UvibeQSW0PjrxTNcWKSKYy1hpdpbaTDNsbBAnNm8qE/ejdD3r6VooAKKKKACiiigAooooAKKKKAMO3/5GK8/694P/QpK3Kw7f/kYrz/r3g/9CkrcoAKKKKACiiigAooooAKKKKACiiigAooooAKKKKACiiigArl/GHi/RfBGhT6/rkvlwwjCqMb5HxwiDuT+QGSeAau+IvEOk+FdHuNc1qYQWtsuSe7HsqjuxPAFfIPh3Qda/aW8Uf8ACY+LY2t/AenSMlraZOL9kbBQesII/ev/AMtGGwfIDWkUkueW35v+t309bJ/SZDkkK6lisVLloQ+J9W+kY95P8N3ZEvgXwhrX7QHiWP4o/ESLb4Ut2DaXp7Z2Xmw5WRlPW3U8qCP3zfMf3YUP698b/jbpPwk0VYLdVvvEWoLtsrIZY5J2iSQLzsB4AHLn5V7kTfGf4y6D8HPD0aRRpc6zdJssLBO+PlDsq8iNTxgcsflXuR8D+EvCnxA+KnxBvIIbtpfFlw2/V9WcbotBgfjyoscG9ZcqqrgQD5RhwzR3OapRVasryfwx7/5RX4u6v8UlOcZvUx1WMYRUYRXuR+zCPd/q95vRWS91fBng3x58TvHt7aW1603iq4bdretN88eiQycGCAj5WvXX5flOIR8i4Idk/TbwF4D8NfDbwvaeEfCdqLaxtB35klkP3pJG/idjyT+AwAAK3gfwP4R+FHhCHw54dhSx02wQySyyEbpGxmSaZzjLHGSTwBwMAADZ8MeKNG8YaUNa0GVprNpJI1dkZNxjYqSu4DIOOCP55FeWq8fb2rTTqyTdutlZaLstFpotForI8ydKfsZSpRbgmrytvJ7OT2vZaLZJWR0NQXX/AB7S/wC438qnqC6/49pf9xv5V2nAeAfsjf8AJqvwc/7E/Qf/AEghr6Gr55/ZG/5NV+Dn/Yn6D/6QQ19DUAFFFFABRRRQAUUUUAf/1v38ooooAKKKKACiiigAooooAKguv+PaX/cb+VT1Bdf8e0v+438qAPmf9mf/AJM4+Fn/AGJGif8Apvir0/x98Sv+Fex6aP8AhF9b8R/b1k/5A1n9r8nytn+t+Zdu7d8vXOD6V5h+zP8A8mcfCz/sSNE/9N8VfTcP+qT/AHR/Ksq0JSi1CVn33McRCcoONOXK+9r/AIHzb/w0l/1THxt/4J//ALbR/wANJf8AVMfG3/gn/wDttfS1FcH1XE/8/v8AyVHmfUsX/wBBH/kqPmn/AIaS/wCqY+Nv/BP/APba+gtE1P8AtrRrDWPss9j9ugjn+z3SeXcQ+YobZKmTtdc4YZ4ORWpRXThqNWLftJ83ySOvCYetBt1anN8kj55+K/xE+INl8Q/CPwg+FSaZBr/iWz1PVZ9Q1iGa5tLOw0treJ8W0E1u80sst1EqjzkCqGY5wAfn7XPijr3xf0T4e/DjxlZW9hqGo/Ea48NeJI7RnaxuB4bhu9TYQmT5/Iu2s4Mxvk7HeJi3JP1X8Tfg9pHxLv8AQvEC6zqfhfxF4aa4/s/VtHlhju4YrxVW4hIuYbiCSKUIhZJImG5FYYZQa4a//Zy0XS/h/oHhfwLeSQav4Y8QQ+J7bUdRdrme61M3DyXst5IAGdryKaeKRlA2iT5AAqrXWdx5j49+Nvx9tvF/xmsfAVp4bTRfhJZWWoL/AGlDdy3OoibTjfS2waG4jSFvlIWYq4GVBibBavsLwl4ht/F3hTRfFlpG0MGtWVtexoxyypcxrKqk+oDYNcBdfBTwrd3nxJvZLq9D/FK1itNTAePEKQ2RsVNt+7+VjGcnfvG7nGOK5KPx54g+GNrZ/Dvw98JvGPiPTPDdtb6fbajbPoZiuYreJY1cGfU7aQnAw26FOc4UDFAHz7N8Sta+GfxK+Pl14VsYNQ8ReIvHXhLQtLju2ZLRbvUtC0qFZbgp8/lRKWkYJ8zbdoILZHU+I/2jfil8L7bx74Q8fado+t+M/D1v4euNHn01Lix06/Hie/fSrQTwzS3MsBgu0bzsSvujwy4OQPWr39n7wP4503xdquuRatpl58Rr3SdeuY3nhivdI1LS7S1gtXtZLcOsU0H2WNmPmTKZA2GaNttYWr/s1eF7bwF4+tdXl1r4ia94xtrf7Xd397bwancHTcyWENtNDFbW1sbeUmSErGirKS7kkk0AM+H/AMR/jXB8fp/gp8U10C9t4/C41+LUNGt7q1MsrXotTEYbi4n2BBuz8zb8qwK8oO5/aS+JfiX4QfBfxB8Q/B9lbajrGltZLb295vEErXV5DblXKMrD5ZDgg8HBIIBB+aPhT4C+LHgn4leJvj94v8N+Ktdmj0Gz8P2Wn6lqOi33iC+H2wzyy4tJrbTIIIQV2KJQ7/vXfLlQ3uOry3P7ROgal8LvHXw88WeB9JvUguX1C8k0ZVL2d1DcRxIbW+vnDMyAndDt2BhuVttAFDw54m8deJPiN4o/Z4+Odpomr2uq+Gk1WKTSYLiCF7K7mlsrqzuI7maYuy/LiVSgdWOY0IxXQfsoeJdZ8Vfs/wDhO+8Q3L32o2CXelTXMhzJctpF3Np/nue7Si3Dse5Ymuz174aiTxrqfxX8NXbQ+L5fDsmg2a3JDaeg85rmKSSNU8wkTEbsPgpwFzzWr8Kvh7pvwo+HHh34daTM9zb6BZxWxnk4kuJVGZZ3/wBuaQtI2ONzGgD5h+G3jcaR8Lfiv8etU1Ww0fUtV8Ua1Cb3Vlke2tbbRr9tFsYJEhKysAluGWGMhnmlbb80hJ5Xw1+1L8Udc0T4p6NpVlYa/wCLPAmiWniLTpf7D1fQrfUrWZ7gS2xsNTZbhZf9FdI5UleJ2kQ9UdK9zn/Zy0jVvD/xC8A63fyr4Y8Ya4niKx+xOYL7Tb9pYbyV4pSGXIv4ftUZKkbpGVlKgA73w6+Aei/D7x5rXxLl8S634o8R+INOtNMvbnWJ7eQSRWUs0sTLHb28EcTfvipWNVjIUHYHLu4B5R41/avh0eTxD4s8JWsGteC/CHgIeML+YBvtE8+o5fSbWGQNsj82GGeSUsjkBoiMDO65oHxL/aF8PfGr4f8Awv8AivD4aubPxppWs6hJPo8F3DJbT6YtqfswE9xKHCm45mwPN7Rxbfn6fwF+yz8L/hZ8NfG/w60W0u/EGkeNPtJvLXUrhHd7eS1W0i0+KREj8u2hhQRQg5MYJO4nmvEvgt8FPicfjj4a+I3jK18SWGj+CdC1HTLU+KtW0zUr6aS/e3CRW6aTmFYIY4HLzzsbiZmQPkICAD7f8F6r4n1rw3a6l4x0IeG9XlMomsFukvREElZYz58aqrb4wr8Abd208gmvzM8dftV+E/Ffxu+H3iTS/ixp2g+GtK8atoLaLFrcFtJd2cdhqAvNQ1W3EqsIGvYoIbVJlCgASdbhAv6Z+C/DDeDfDdr4cbWNQ142plP23VZxcXkvmytLiSQKgYJu2J8owiqOcZrmfGvwi8HeOtT8J6tqsLW83g/WF1u1+zrEgmuFtbi0CT7o2LRbLl2IUqd4U7sAggH5+/tR/tO6Bd+LW0PQPihZeDbX4deKPDtpeWcWsQ2Go6rdy6paLqAlh81Jv7Os7KSQS7l8uWRnLfJb5f6D/agspp/Cb/EfwbF438Q3c2lyGwk8Ha69pY2pRDLDeTW8d3Elyj7wcrBdFkXAjPAb6B+JXwl8I/FPQ4tB8QxNBFFqWm6p5tqsSTNNpl5FexKzPG4KPJCqyDGShIBUkEYHj34NXnjrULiaL4heJ/Dem3luttcabpNxZxWskYBU7WmtJriFmU4LQTRnuMHmgDq/hXq9x4m+FfhHXL/WINfuNU0awnm1KyBjt7ySa3RnuIRhGVJWJdRtUgEcA8V8l6d8PbbTf2svDPg7wH4n8Vtpvg7R7jXvEcd94p1rVLWd78tZ6XZyw3l5NF8xS4uCCuf3Sdjz9W6D8MND8KXHhSLwte32k6L4P0qTR7PR7efGnSW7CBYnniYM8ksCwBYnL5AeTO4tkSeDfhnoPgrxL4x8X2M9ze6r43v4r6+mumRigt7eO2gt4diJtghSPKKdzbndixLUAeA6Xpeq+Fv20odNh8Ta3qOl+I/Bus6rNp99qM9xYQ3MWqafHEbe1LeTD5aSuilU3bWILHNcB+1xHr/gJLz4geErnxnYam7Wlz/b0GsSnwrocccqRyPf6WLlt8AjUvNtsZQQxJkTll9s1P8AZwk1L4ww/GgfEzxXa6pbRSWkVnC2k/YY7CeeK4lsgr6a03ku8CZJlMoA4kGavePP2d7L4k3OqWfi3x14mufC2tvm98OJc2kemzxnG6AutqL0QvjDxrdBSCRjBxQB8fft1ftHadbaH44+GHhH4k23gbVvB2kLqd08Gqx6drF/qFxGJbDT7FRIk5TYwuLh4h8w8qEEh5QvuH7W13Br3wNj+MHw88b6nbx6ZLpsthceH9XkgsL2O81G1iZ5GtHC3CeWWVQXKYY8Ht9FfFP4S+EPi74B174d+JIntrHxDaNZzz2ixJdRxsAMxPJHIoYAYGVIHpXL/HD4EWPxx8NW3g++8W634V0aIhp7bRDYRpdlJYpofON3Z3RHkyQhk8sp1YPuGMAHF/HO41rxP8XPhb8GYNb1HQdD8TRa7qepy6VdS2F5cJo8dssNqt1AVmiR5LsSOYmV2Ee3cFLZ8P0/4z/Ff4deB/EfhzTbiTXo/CXj+78LyeItXs7zWjp2jiwj1GG6voLApc3RjeZLMyb05IklfhifqHxD8BbLxR4e8MWWseMdffxL4QnmudO8Txy2UWsI9wHSUPstBZujxP5bRtalGVVJUuoaodP/AGfdN8PeDLfwl4M8Y+IfDdyuoXOqXer2lxbS6jqF7eFmnlvDd208EpkLZx5IVcKECqoFAHivxE8a3OpfCP4bfHa31/R/EmreHvFukRrqPh9ZI7K7tNX1JNFu4I45JZ3XMF1+8iaRts0YJ5QY+6a+ZU/Zu0nT9K8H+EtK1GabQ9H8TP4s1iW+fzr7VtTWSS6ieR1VI1zeulw+1FUeUqIoUnH01QAUUUUAYdv/AMjFef8AXvB/6FJW5WHb/wDIxXn/AF7wf+hSVuUAFFFFABRRRQAUUUUAFFFFABRRRQAUUUUAFFFFABWdq+r6doWm3Gr6tOttaWql5JG6AD+ZPQAck8Cp729tNNs5tQv5lt7a3UvJI5wqqvJJNfG97ca9+0v4tfSNNkm03wFos2Lq4UlHuJB/yyjP/PVgeT/yyQ/32FaRirc0tvz8l5/lue/keS/WpSqVZctKGspdl2XeT2SILW0139p3xY17fiXT/h5o8zR7QSjXsinDRIw/KaQH5R+7Q7t7L7X8Wvix4X+CPhOGOGCNr5oxDpunRAICEG1flX7sScDgeirz0PiV8SfBnwD8E20FvbRRvHF5GmabDhN+wYHA+7GvG5vwGWIr4D0HQ/iP8YfiRcbZzJ4tmKvfX7qTb+HrY8KqrnH2wjIjjBzDySfN3NDpOcacVXrK7ekY9/8A7VdX1fza3zjNnjJRo0I8tKHwR6JdZSfd9Xu37q8l8NeG/iJ8W/iJdJHctJ4tnIfU9ScboPD9u3ARAODelcqiKf3I4yJAzRfpX4G8DeEPhJ4Pi8PeH4lsdNsVaWaaVhvkfGZJppDjLHGSTwBwMKAAzwL4F8H/AAh8HR6BoKLZafZK0txcSsN8r4zJPPIcZY4ySeAMAYAAHm3/ABM/jpqH/LWx8A2cnvHLqsiH8CsII/H/AHvufK5xnEqE0re0xFT4Y7bdX/LCOl3bskm7InLMsVdSlKXLRjrOb3b6WXWT2jFaJdkmwd9S+OmoGGEy2PgGzkw7jMcuqyIeg6FYQR+P+99z6Bs7O10+1hsbGFYLeBQkcaAKqqowAAOgFLa2ttY20VlZRLBBAoSONAFVVUYAAHAAFWK1ybJfq/NWrS560/il+UYrpFdF83dts584zj6xy0aMeSjD4Y/m2+sn1fyVkkgqC6/49pf9xv5VPUF1/wAe0v8AuN/KvdPDPAP2Rv8Ak1X4Of8AYn6D/wCkENfQ1fPP7I3/ACar8HP+xP0H/wBIIa+hqACiiigAooooAKKKKAP/1/38ooooAKKKKACiiigAooooAKguv+PaX/cb+VT1Bdf8e0v+438qAPmf9mf/AJM4+Fn/AGJGif8Apvir6bh/1Sf7o/lXzJ+zP/yZx8LP+xI0T/03xV6J8SPCPxO8Ux6Ufhz47/4QoWyy/aR/ZsGofad+zy/9cRs8vDdPvbuegrOrNxjdK/krfq0vxOzAYaFaqqdSoqaf2pc1lp15Yylrtonrvpqet0V8p/8ACpf2mv8Aouv/AJbdj/8AF0f8Kl/aa/6Lr/5bdj/8XXL9cqf8+Zf+S/8AyR9F/q3g/wDoY0vur/8Ayk+rKK+U/wDhUv7TX/Rdf/Lbsf8A4uvpXQLPVNP0LTrDXL/+1dRtreKO5vPKWH7TMiAPL5a/Km9gW2jgZwK2o15TfvQcfW36Nnl5pldDDxUqWKhVv0iqit5vnhBfc2a9cP8AEDx9o3w40KHXNZinujd3tnp1ra2qq9xc3d/OlvBFErsikl3BJZgFUMzEKpNfKv7Uv/CCf8LS+Gn/AAvryf8AhUf2XW/tn9of8gj+3MWv9n/2hu/dbfI+1+T5vyeZ/t7K8Y8EJfW/hj4O60ftJ+Hun/FfU10MXfmbl0S8ttSs9Ff99+88j7VNGlt5nPlvDjjbXQeKfqTXmHxT+LHhz4T6PZ3+r215q2o6tcrZ6ZpOmRLcajqNyw3eVbRM6KSqAu7u6pGilnZQM18F/Ef4V+BvHPjv9q/xH4r00ajqGg6Tps2mSyO+dPuYtCMqXNrgjyrgMqkSrhwFABxkH7u+FtrY+JfBHgb4ha3Z2934ln8P2QOoyQo10Fu4IpZ0WYjeqSOAzKDgkAkcCgCHw98b/h34i+GcnxYhv5LTQ7UOt6lxDIt3Y3ETCOW1ubZQ0qXEUh2NFtLbsbcggl3gf42/D34kvq1n4Ku7m81TRYUnuNNurK50zUBHKG8pxbajHbSbJSjKkhAjJBG7g40fGWvfDf4MeGfFXxZ8SRWuh2EEQvtYv4rdRNP5CCNGlMa75nChY0By3RR2FfMf7MvxC8EfG/4ja78aD4t0S/8AFGqaVDZWXh7S9Stb640bQoZ2lU3pt5H3XU80oaYj93EdkSFirO4B9Z/D7xzoXxL8FaP488NNIdO1q3W4jWZdk0RPDxSpk7JYnBSRcna6kZ4qHRPH2jeIfGniXwRpcU8tz4UWzF9cbV+zLcXsZmW2Vt28zJD5csg2BQkseGJJC+KfsipJJ8L9Y1aDjSNZ8W+LNQ0pe39n3WtXckDKOySZMiY42uCOteO2fiK48A/C79qC6vtCbxJqumeJdYu7nTCZFN1aX9haPbMxiBl8n7I6BmQFgsbheV4AP0Eor8gPgNoHg/xz8X/G3wZ0TUvDOoeBfHPw/uTfR+DNOubDRftX2tLYunnXVzFLdxx3Db5YhGwygkG5Rjs/hj4n+J3xzk1XWkjk/wCEy+Bng7VPDallx5vju5EttczJu4bZFZxMhJxtvD7mgD9TKK/HX4UD9n3/AIXL+zF/wp/H/CR51c+JvL877R9v/wCEfuvM/tjfz/aHm+Zjzv3uPMx8lfpz8JLzwte+HdTl8I+I7/xPaJrWsRzXOozSTSw3cd7KtzaI0qIRDbShoYlAKrGqhSwAJALPjn4u/Dr4b6z4Y8PeNNZTTtS8ZXyadpNv5Us0lzcyMqAYhR9iBnRWkfbGrOoZgWUGh48+N3w2+G2r2vh7xRqNw2rXcJuUstP0+91W7W3DbPPkgsIJ5I4dwKiR1VCQQDkHH57/AB/0D9oDRPG+neN9f8JaDrNxqvxE8Ow6Pff8JBPE8em2l8Tp1h9mOmOLdZGJluZVllJldm2uqxoj/ioml+D/ANoH4xeIfir481rwDPr2iaJd+El0q9mtVvbm0s5oZooTEo+3zQXI+W0cMCJt/knzMgA/Qzxv8Zfh18O7XSbjxRqMqS66GawtLSyu7++ulRVZ2is7SKa5ZUDLvYR4TcNxGRXc6DrmneJdGs9f0hpHsr+JZojLDJbybGGRvimVJEb1V1DDoQDX5d+LRfR/GH4e/ET9p3xZqXw507XPhjY2l1c2N7Lo8Q8TRXP2i9tXu7fa0TETKyQb1WYx4w/l7a+vP2fPidqMnwv+Guk/FrUJ18ZeL4r8WC3tu8N3f29i8kkU8yKirFK9kIppA4T5mIAzxQB6N4R+OPwx8deONY+G/hfVZbrxDoMTTXdu9ldwIsaTG3ZkmmhSGUCVShMbtyDWZq37RHwl0DxYPBmuapdaffG8j0/z7jS9Qi077XMwSOH+0XtxZb3ZgqjzsliFHPFfNtv8dfgy37dt3o6+NtHN83hSDw8IPtsXmHWE1iYNY7d2ftAJAMf3vauc/at+IXhDxZdp4c8JfEX+39d0jVdMgm+G8EcEv9r3VnqKOyzLFEuoxAEB/MEwtgIlZ0dC4YA+2fib8Xfh18HNIstd+JGspo9nqN5FYWxMUs7y3M+diJHAkkh6Esdu1QCzEAE1mfEj45/C/wCEt3Z6d451eS1vb6GW5jtrWzu9QuBbQECW4kisopnjgQsA0zqsYJ5avgn9s/w38b49P8feO9U8NaLrWgIdG0/Qrt9bmt7jTrI6hZSzgWX9nyIZru6VRNL9oGIkiAX5CJPYtT+IuifBz9pHVfH/AMe5rbwpbeK/A+iW9lcvK9xZR32nXV9LqGnQXJijMsmbmF418tHmXlY8gqAD6W8VfHL4WeDtF0DX9W1v7Ta+KlEmkLpttcapPqEfliYyW1vYxTzSoIyHZ0QqoIJIyKrP8e/hZ/wgmn/Emy1S41PQdUuWs7eTTtOvtQuGuUMgeE2lrBLcpJGYnV1aIFGUqwB4r85dOsr7wB4D/Zwh8d63cfB6Ky0vxBcDxNLFF5mlreyQyW+jSreJLZQG4t3Vm+0xNg2oSMK/I9y+Cfj/AMJeCf2db1vF/jdfA1rrHiLXItO8XzpHbvq5lvJJxqxGoxzW6yXeXb508psZhVYyiqAfafgD4jeDPihob+IvA+ojUbKGeS1m3RS280FzDjzIZ4J0jmhlXIJSRFYAg4wRlPG3j/RfAH9hS6/FOLTXtUttIW5jVWhtri93JbmcllZUlmCQKVDHzJEBAUll/Mmx0/w1r/wN8dJ4o8b2dv4en+IEV/B4t1+1lXSvGBW1t5WGpQxyW8RtcobTfCYrZ/s6MidUbo7vXNF8UfsXeK9E8F+F9L8NGbxNY6Low0BnbSNTv5NRsRbX2l744j5LTOPurhXikIZgN5AP1LooooAKKKKACiiigDDt/wDkYrz/AK94P/QpK3Kw7f8A5GK8/wCveD/0KStygAooooAKKKKACiiigAooooAKKKKACiiigAqKaaG2he4uHWKKJSzuxAVVUZJJPAAFSMyqpZjgDkk9AK+QvGvivXvjd4nf4YfDqcwaLalW1TUwMoseeMdmyQREn8ZG4/IpzpCF7t7L+vvPZyXJpYyo9eWEdZSe0V/n2W7ZT8R614g/aH8VyeCPCE8lh4Q0uRTqOoKMFz1CpngyMOY1OQg/eOM7EPrfjnxx4E/Z38AW1tbW6QxwRmHTtPjOHmcckknJxk7pJGySTk5ZgCzxP4n+H/7N3w6hghiEcMKstpahsz3lweWd2PJJJ3SSHpn1IU/A1jZ/Er44fEt2D7/FEu15pmUm18O2ZPyEr/z84z5UWcofnb97kxaylGEVXrLTaMe//A/ml8l0t6ObZosQo4XCR5aMPhT695zf9W+GOr1XSdL+JPxp+JUxEu/xXNte6umUm28O2hPy4XP/AB94yIos5iOWY+duaH9JfAngTwd8HfBq6HoiraWFmrTXNzMw8yaTGZJ55DjLHHJ6AYAwABUfgPwH4N+DPgwaNo+21srRWnu7udh5k8mMyTzv3Y/kBgAAACvPoodT+OeordXayWPgKzkzFEcpLqkiH7zdCIQRwO/1+78pnOczpVEkvaYip8Mdkkur/lhHq/krtpGeW5bGvGU5y5aEbc87at9El1k9ox2S1el2Iqan8dNQEsolsfANnJlV5jl1WRD1PQrCCPx/3vufQltbW9nbxWlpEsMEKhERAFVVUYAAHAAFLb28FpBHa2sawwwqEREAVVVRgAAcAAdBU1bZNk31bmq1Zc9afxS79kl0iui+bu22+TOM4+sctKlHkpQ+GPbu2+sn1fyVkkkUUUV7h4gVBdf8e0v+438qnqC6/wCPaX/cb+VAHgH7I3/Jqvwc/wCxP0H/ANIIa+hq+ef2Rv8Ak1X4Of8AYn6D/wCkENfQ1ABRRRQAUUUUAFFFFAH/0P38ooqvd3dpp9rNfX8yW1tbo0kssjBERFGWZmbAAA5JPAoAsUV8yzftl/suQ3rWb/EnSSiOY2uklZ7FWBwc3iqbYYPcyY96+i9L1XTNc0631fRbyHULC7QSQ3FvIssMqNyGR0JVlPYg4oAv0UUUAFFFFABUF1/x7S/7jfyqeoLr/j2l/wBxv5UAfM/7M/8AyZx8LP8AsSNE/wDTfFX03D/qk/3R/KvmT9mf/kzj4Wf9iRon/pvir3nWfF/hTwrFajxPrNnpH2lT5X2u4jg8zZjdt8xlzjcM46ZHrVQhKT5Yq7GotuyOmorzz/hbvwp/6HLRv/A+3/8Ai6P+Fu/Cn/octG/8D7f/AOLro+pVv5H9zNPYz7M9Dorzz/hbvwp/6HLRv/A+3/8Ai67qzvLTUbSC/sJ0ubW5RZIpY2DpIjjKsrDIIIOQRwRWVTDzhrOLXqiZU5LdFmsTxF4c0PxbpE2g+JLKPUNPnaN3hkGVLwussbDGCGSRVdWBBVgCCCBXn3xN+MWj/DS/0Lw+NG1PxR4i8Stcf2fpOjxQyXc0VmqtcTE3M1vBHFEHQM8kqjc6qMswFeT+J/2gE8Y+D/BH/CrLi40nWPHXimPw2wvLdFvdKksTPcatHNbyh0WeG3s54wGDIHZHG9MZyIPrSivlzxt+1b4T8FeJ/Gvhf/hE/EmuP8PIba7126020t5bazs7q3+1LcFpLmNnVY925I1aX5WKxso3V2PxGvvin4xstC0T4LXUejWOvot1deKnW3uVsbLCuq2lpMW866uAwEZkjMMa7ncswWNgD3KoLq2hvLaazuAWinRo3AJUlWGCMggjjuDmvHPAtx8cD4J1XQPGlvYL4w0fdbWeskA6Zq42ZhvWtYZBNATkCeA7QHDeU7IVYeVfBX42eLPiN4/8SfDq58R+HPGlhp2lx3Y8S+D43S0sruWVovsM6TXF/EbkKPNTEx+VTviAK7gD6r0TRNI8NaNYeHdAtI9P0zS4IrW1toVCRQwQqEjjRRwFVQAB6VBbeHNDs/EF94ptbKOLVtTgt7a6uFGHmitWkaFXxw3lmV9pIyNxGcV5Z+zz481z4gfDG1vfFkiS+JNEvdR0LV3jQRpJqGjXctjPMqL8qrM0Pmqo4AcAdKxvAfxI8QeJvEfxY8Sv5974c8HagdE03TLSCN7ie40y1We+mTgO8s08/wBnRC+wCBSApdiQD6Hor5uj/aW0aCy8WjxD4N8R6BrXhDRpNfl0e8gs2vrzTYt+6WzNvdzW8pDIVKGZXVioZRuXPY6l8cvAWm6x4X0r7RJcxeKtIvtfhvIQhtbbSdPiillu7l2dWSJvPjVCqsSzdAASADE8K/AHTdC8bab4/wDEvi7xB421XQobiDSv7auLZ4tPW7ASZoUtLa2DyOg2GWbzJNuQGGTn3uvljwj+1j4T8WeLPBHhR/CPibRG+I/2l9AvNSsoIbW9trW0kvWuMpcvJEjRINqSokxLqfLC7mX3/wAJeM/DfjrTrnVfC12by1s72806V2ilh23VhO9tcJtlVGISVGUMAVbGVJUg0AdRRXx/8Yv2iPFPhb4j+F/Bnw60+y1DTk8R6Lo3ia+vFkdbZtamVIrO18t0BuxE3nyMxZYkMQZGMw2n7Uf7RHin4S6RdWfwu0+y1fX9IhttS1Zr9ZHtNP02e4W2j8wQvGzXFzISsCbx8qSyNkRhXAPsCivi79oT46/EP4bfE3SvC2i6hp3hzwxNoc+p3esah4a1fxDHHcRXCxLC/wDZl1brboYy0hklO0bTyM19X+EdVGueFNG1oanZ619vs7ef7dp6lLO6MkasZrdTJMVikzuQGVyFIG9upAOior4S8PftIfFe/wBL8JfGTU9O0Vfhh428RQ6HaWkSXA1m1tr+8awsL+a5aU28gmm8tngWFTGkgPmsVIMNv+0V8Qj8b9a8EeJ/EWheDdCsfE8WjadDqPhjV5H1S2aK3kHla0L6HT0uJ3kkhiQxsQ6A+W+QpAPvOivj/wDab/aI8U/Cu0fT/hfp9lq2saR9gvdbkvlke10/Tr68js4VYRPGxubl3byU3ABI5JGyFVX9J+L2p/G/QotQ8SeA9U8K6V4d0XTZLy4bXbe8nlllhEjyq0sFxbx20IjVf3pExBLEpgDIB7vRXwr4+/a7u9I8IfCV9JtLfw74l+K2k/2ykeqWt5qY063jt4JpoxY6eFu7yffcIiRR+WdokkYqsZB9a0r46Wtp8EtP+I93qdh411TVJmsdPj0KCWyj1TUpJ3hgs4be6kmlgl3LtnWVz5OyR5Nqo2AD6QrE1fw3oWvXWl3ms2Ud5Lol19tszIMiG5EbwiVR03BJHAJBxnIwea+VPh3+0trcPwWt/HXxc0yO88TzeKNT8Kw6f4bgYi9v7TUrixhjtlvJwAXWAuWlmRQASSvC10fxO+MHi3QPhdY/F230fUvCMHh7W7Aa1pOrRWhuLjS550tLn5reW5jHlrOLmN4pss0IRjtZlIB9R0UUUAFFFFABRRRQBh2//IxXn/XvB/6FJW5WHb/8jFef9e8H/oUlblABRRRQAUUUUAFFFFABRRRQAUUUUAFFFfMfxS+Imt+JdcHwj+F+J9Wu9y3t0CRHbRDiTc4+6q5w7DnJCLlzxpThffRLc9TKMpqYyr7OGiWrb2ilu35IzPiP44174meIm+EXwvkG1h/xM9Q5MMMOcNkjGVzkBQQZW+UEIHYdxqmq/D79mf4cAHJVdxRCw+1ahdsPmd2wMscDc2NqKAAAAq1Cz+AP2ZvhzJdXsvmyud0khwLnUbsr2HbgYA+7Gg9ufhF5fiT8fviWoiUNr0iq6KwLWegWTHKyyA9ZiOYoz8xb525wF3lKEIKtVXu/Zj1k/wCvifRaLXf2cyzCFSCwOCVqMdddHNrecuyXTstEuZ2CGP4lfHf4mEoQ3iOQK5ZlJtPD1mTlXZT/AMvBH+qj+8G+dvn5j/R/wF4D8GfBbwWdK0si3tLYNcXl7cMPNuJcZeeZz1Y/kBgAY4qPwF4D8GfBPwW2nae4gtoA1xfX1ww825mI+eaZz1YnoO3AFcNa2mp/HDUY9V1aOSx8C2cm62tWykmpOh4llHURA9B3/UfJZ1nVSnUUYx58RP4Y7JJdX/LCPV7t6K8mZZdlsa8ZVKkuWhG3NK2sn0jFdX/LHZLVvdiW9vqfxy1BNQ1BJLHwHZyboIDlJNTkQ8PIOohB6Dv9eV+hYIIbaGO3t41iiiUKiKAqqqjAAA4AA6Cliiit4kggRY441CqqjCqo4AAHAAFSVvk2TLDKVSpLnqz+KT69kl0ivsx6ebbb4c4zh4lxp048lKHwx7d231k+suvkkkiiiivbPFCiiigAqC6/49pf9xv5VPUF1/x7S/7jfyoA8A/ZG/5NV+Dn/Yn6D/6QQ19DV88/sjf8mq/Bz/sT9B/9IIa+hqACiiigAooooAKKKKAP/9H9/Kw/Efhnw74w0iXw/wCK9MttY0ydonktbuJZ4HaCRZYy0bgq22RFYZHBANblc34uTxc/h67HgOWxh10bGtjqUcslo211LpIIWR13oGUOudjEPscKUYA+O9S/aP8AGGtMPh98KdN0BfFkeseJ7OW01GWU2tho3hiZ7cz3MUGJEa6YwCIcIFmDfMFw30n8Ebnwrq/wr8M+MPB/h+38MWHi7T7XXTYW0SQpFLqcKXD7ljVVL5f522jc2SeSa8LOr/GSHV9VuJP2cNIm1vXYRa6jqcOu6d9jvoguzZcXD2yXskW3ja9q3HG2vpP4e2Pi7TvC1pZ+NYtKtL+L5UtdFSRbG0gUBYoI2lw0nlqMb/LiB7RoBigDkPi7471rQotM8CeAvLl8c+L2kg0wSL5kVnDEB9q1K4TvBaIwO048yVoocgyAj5H+GXxZ+NHxX8LfBbwFb+MZNI17xdouua7rniCKxsnvGt9IuobSOK3gkgazR5pLlC7GBgFjIVQWyPs34g/BL4QfFm4srv4neDNI8VTacrpbPqVnFdNCshBcIZFO0MQCcdcCvm3wR+xfafCbwj4ItfhD4hs/DPi7wY2pbtVXR0ktNTj1byxdLe2KXETOSLe22uLgMphXkrlaAOZsfjZ8XfEGk+HPhDBrkNj431Dx3q/g688RRWcR/wBC0S1uNRe9htZA8C3M9tFEm1leJZHdgpUBaXV/jZ8XPBel+NvhPPrcOs+MtK8WeHPDWkeILmzhTNt4o+ztHc3VrAI4GntFknGEVI5CkZKDcwPqg/ZcNn4H0ax0fxbNb+OtE8RXPixPEctpHL52sX/nJdtNZq6KbaaG4kg8hJFKx7AH3KGKv+y62reDPFVn4r8WTX3jfxZrNh4hl8Q21olqLTUtIMH9mm1tGeVUgthbRjy3kcuDJufL5ABqfC3xJ8QPDnxn8TfA/wAfeJJPGUdromneIdM1S4tba0vBFdXFzaXFtcLZxwwNskgV43WJTtcq24rmvTPiH8Z/hB8MHi074k+N9E8K3V9C8lvFqmo29lJMi/KWjWZ0LAHgkZ5rnfhj8JPEHhXxh4g+JfxD8TR+LfF2v2tnpxuLew/s2ztdPsGlkit7e2M1yw3SzySSO0zFmIwFVQK9pvYopLaUyIrYRuoB7UAfNf7M/wDyZx8LP+xI0T/03xV7zrPhDwp4qitT4n0az1f7Mp8r7Xbxz+Xvxu2+YrYztGcdcD0rwb9mf/kzj4Wf9iRon/pvir6bh/1Sf7o/lVQnKL5ouzGpNO6OA/4VF8Kf+hN0b/wAt/8A4ij/AIVF8Kf+hN0b/wAALf8A+Ir0Oiuj67W/nf3s09tPuzzz/hUXwp/6E3Rv/AC3/wDiK7qzs7TTrSCwsIEtrW2RY4oo1CJGiDCqqjAAAGABwBVmisqmInPScm/VkyqSe7Pnn4r/AA7+IN78Q/CPxf8AhU+mT6/4as9T0qfT9YmmtrS8sNUa3lfFxBDcPDLFLaxMp8lwyllOMgjx2X4E+N/BfhTwr40lMev+NNG8ezeMtVh05WWF01nz7G/gs1lwzLb2d0WTfh5TDnCl9o+6KzdX1nSPD+nTaxr19BpthbgGW4uZVhhjDEKNzuQoySAMnqcVkQfOOo/BPxTd6p8er6O6sgnxS0+2tNMBeTMLw6UbFjc/u/lXzDkbPMO3nGflr274deHr3wj8PvDHhPUnjlvNF0uyspniJaNpLaBI3KFgpKkqcEgHHUCuyooAwvEzeJk0G8fwbHZy60qZtUv3kjtWcEfLK8Su6gjI3KrEHBweh+dPAnw1+I9r8Xr/AOOXxEstE0KaHw/JoyaV4bluL77YGuI7r7Rc3E1vaGSSPyykEYh+USSfOd2K99vPHngbT/Flj4Cv/EWnW3ifVI3mtNKlu4Uv7iKNWZ3itmYSuqqjElVIAUk9DXV0AeDfs3eC9d8GfC+J/Ftt9j8Q+JtR1TxFqVuSGNtda3eS3zW5K5UmBZVhJBIJQkHBryi7+Dvj658P/Hr4T+HbyXQF8bXkmt6HrILrEravbot1bO0TCRWS5t5S5UhhFOhTLA4+0KKAPhL4Ffsw+Ifh38bLn4oX/hnwh4R0a88MS6HLpPhszzGS5a7hn+0Tzz21uZ96IyksoKYVfnyzUvwf/ZL8Q+GdL8e+G/iTrFtqOl6losvgzw01k0jTWHhXzLp4Y5fNRALnbcrG+3cpWCL5j0H3ZWUmu6JJrc3hmPULdtYt7eO8kshKhuUtpneOOZos7xG7xuquRtLIwBypwAflt8LfF/i74kfHD4D+F4df8NeLLH4Yw6s99deGZLq6xF/ZEunw3GoedDElhNI8iKtpulYlnbeAmK/TbwkfGp065/4TtdPW/wDtt55H9mmVofsPnv8AYy/nAN5/kbPOA+TzN2wlcV0F3d2thazX1/MltbWyNJLLIwRI0QZZmY4AUAZJPAFZGm+K/C+szWttpGsWd9NfWaajbpBcRytNZSkBLmMKxLQsSAsgypyMGgD43+K37E/hnxXc6ff+CNX1rSJpvF9r4k1SE+JtZgtGVrs3N7Ja28U7RQ3LEkxOiRlGxtdMA1c+P/7Gnh34neGvGU/gzU9W0rxT4sayknMniHVrfTJ5bTyIg9xawTNE7CCEKpMLHcFPX5h9lavq+k+H9Lu9c169g03TbCJ57m6uZFhghijG55JJHIVFUDJYkADrWgCGAIOQe9AHhfiaw+OfhqCw8OfCCy0HVtGttPithdeJtW1E38dxHuXzJWW3umvFKbCfMmjkZt25+QRX+E3w08Z/BvwT8OPhhoN7YaroXh+0mt9bu7lZYbuV/LLxNYxR7o0U3DHckjfJFgKSRXvtFAHwl4e/Zv8AivYaX4S+Dep6jorfDDwT4ig1y0u4nuDrN1bWF41/YWE1s0Qt4xDN5avOszGRIwPKQsSO4+L3w8+PXxlsNR+GGrx+GtH8EajqNvLLqkF1eXGrGwtbpLlI0sntkgjuGEaqZftLqhJdUJAA+taKAPib9oD9jbw98UND8XXng3U9V0jxN4tvLC9ugfEGrWulzS2stsrPLaW8rQlxbwBYz5JwyoQRgMLXxo+Enxt8Wa14U8K+F7TRPEvwu8PWcDXWla9r2oWt5q2oW7Yh/tG4Gn6g11bRKqyFHcGeYlpi6qFb7PooA+XPiD8MPibr/in4c/GnwxaaHD478G2uoWV1pd3d3B0ye31WOITxxX6WpmRopIUMUhtPmUurIu4EYPhf9k7Rr/w9BcfFHUbtvFTa9rHiRrnw7qeoaPHaXmtMRNFbS2ssMzRrFiPc5Bf52KrvK19g0UAfB/g79lnxB4A+DWv/AA+XT9J8fz674k1LU5rDxTq2pXmnNYz31zc2pSWaK5eC8VZImllSFi8wd2Z3IkqrdfAj4mWfwJn+CmrSC/PjjxTbNJDbXdzf2Xh3QPOhubm2ju73bPLGsVtKsZZU/fXCoqKijH31RQAUUUUAFFFFABRRWbpWs6Rrtob/AEO+g1G1Es0Blt5VmjEtvI0M0e5CRujkRkdeqspU4IIoAq2//IxXn/XvB/6FJW5WHb/8jFef9e8H/oUlblABRRRQAUUUUAFFFFABRRRQAUUV4N8W/ild6DNB4G8ERHUPFmrERRRx4Jg3jO454Dbctzwigu2FAzdOm5Ox6GWZbVxdZUaK1/BLq2+iXVmd8WfiXqx1KL4YfDdPtnibUso7o2Ftkx8zM4zs2g5d/wCAYwC5UVLYWXgb9mj4f3Ota7ci4vrjDXVxgCe+ucHZFEpPCLyETOFGWYkl2MOiaT4S/Z28E33jDxneC61i8Aa8uh80txMcsttbhsMVBzjOMnLvjnb8QapqvxG/aK+JEFvaQqdSdQ9pbP8APZ6NZMQRc3AIwzsMFEIzIcMRs2I3S3CMPa1PgWy6yf8AW7+yvN6/QY7GU1T+oYH+HvKW3O11faEei+esmkF3e/Ef9oX4lRJBGraw6h4IXBaz0OyY5E8wPDSsMGNCNzth2AGxa/RbwF4D8F/BDwXJZWcoigiBudQ1C5OZrmY/fmmfqWJ6Dt0HvF4B8BeC/gb4Kmt4JtkaZudR1G5OZrqc/fllbkkkn5V5xnAyTzyGn6dqnxr1KHX/ABDC9l4KtH32Ni/yvfsvSacf88/7q9/pkn5HO87qQqxhTip4ia92O0YxXV/ywXV7yeivJmOX5dGtCVWrLloRtzStrJ9IxXf+WO0VeUnu2ljY6n8btRi1rW4pLLwRaSb7OzbKvqLqeJph2j/ur3/WvoaOOOGNYYVCRoAqqowABwAAOgFKiJEixRKERAAqgYAA6ACnVvk2TLCqU5y56s9ZSe7fZdor7MVovNtt+dnGcPFOMIR5KUNIxWyXd95P7Unq/RJIooor2zxgooooAKKKgt7m2u4zLaypMgZkLIwYBkYqy5HdWBBHYjBp2C5PUF1/x7S/7jfyqeoLr/j2l/3G/lSA8A/ZG/5NV+Dn/Yn6D/6QQ19DV88/sjf8mq/Bz/sT9B/9IIa+hqACiiigAooooAKKKKAP/9L9/KKKKAPmnxJ+0W3w01XU4/jL4K1fwt4dtJ5hB4itkGr6Q9qrkRTXL2Ya4syy4LieBY0Jx5rAbq9w8I+NPCHj/Q4PE/gbW7LxBpFz/q7uwuI7mBiOoDxllyM8jOR3r5W8P/DL4XfFlvFfxO8dQap49Oi67rlra6f4ivFn0y2k0i8mt2S205AlmiLJEVikmieYqqu8hJzXrvwW8OfDi+sI/jl8PdK/sRPido2i301siJDEY1hkmt5GhjAUTmO52SvklgiDogoA9yooooAKKKKACoLr/j2l/wBxv5VPUF1/x7S/7jfyoA+Z/wBmf/kzj4Wf9iRon/pvir0r4h+K/iT4Zj0sfD7wP/wmQuVk+0n+0YNP+zbNnl/64Hfvy3Tpt56ivNf2Z/8Akzj4Wf8AYkaJ/wCm+KvpuH/VJ/uj+VTKLasnY0pTUZXav5O/6NHzF/wtX9pH/oiP/lxWX/xFH/C1f2kf+iI/+XFZf/EV9Q0Vl7GX87/D/I6/rlP/AJ8x/wDJv/kj5e/4Wr+0j/0RH/y4rL/4ivozQrvU7/RNPvtasf7L1C4t4pLi08xZvs8zqC8XmL8r7Gyu4cHGRWrRVwg1vJv7v0RjWrxmrRgo+l/1bPmP4weJvHupfFvwJ8FvBHiN/BkfiLT9Z1i91aC2trm7MWlNaRJa2q3kc0AaR7sPIzROQkeFA3ZHz5/wn/i74hW/wx8D/EC6i1L+zvivfeH9T1GKJYIdT/4Ru2v76xkeFfkR5Li2tzIi/KJYmCgDAH2z8RfhN4C+K1tp9v4306S5k0mZriyuba6ubC8tZXQo7QXVnLDPHvQlXCSAMOGBFc1qnwH8DN8PdG+HfhK3Hhqz8M6haarpUlqN72t7aXP2nzSZCTIZmLrOXYtKskm5ssTWhzHzP8QPGPx41Hxn8fpPCnj8+HNK+Fun2F/pNnHptlciedtKN5LFdSTxO5t3deQhWUFjtkUALX2x4E8RyeMPA/h7xbLEIH1vTrS+aNTkIbmFZSoJ7Ddisqf4W+BLm48Y3U2mbpfH8KW+tnzph9rijtzaKuA+I8QnZmLYe5O7mvPLm8+Ong94/Cnw4+HPh698MaPFDaadLd+Kbq1na2gjVEDw/wBkXO0qBt5mkJAyWyaAPmbSVm+H/wAev2lfip4m+IWo2Gk+GrLTbmbzLLT54ooZNNlmi+VLQXDiz3EQxpKDJ0lMrEkweEP2hfi14L8deJvDvjW18R6vp9v4G1bxdYx+J7LRrDUGm0iWFTFCujOR5MwnAxcQpKjLgFssF+0Lb4WeDtZsfEl94r8OWw1H4h2VtB4ltftEt5bXHlW32fyQZAisiIzIHWKIuPmZQ3TC8D/s4/B34d+Jo/GfhjRZhrsenzaUL291G+1Gc2E7xSPbs97PMWjDQoUU5EeCE2h3DAHztr/h/wCLmv8A7K/jDx54w+KV1qz+JvA19fPZWenabDYWslzZfaQtm4t2nMQTdFmeWVmVtwKOFIo6Bd/FLw14O+Bvwi0L4h363XxFgM8mt3llpkl1p1jp+kpcfYbGKO0it2Z2A2yXEczqgkJ3kLt+mvB/7Onwf8BS3v8Awi2izWtpfWs9k1jJqF9cadHa3JBlhgsJ53tbdHwAVhiQY46cVRT9mX4NL4Kt/h8+lXs2iWN3HfWSTaxqc1xp9xFH5MbWN1JdNcWYSPKKlvJGqqWAA3NkA+V9Y+L/AMdYtHi+H+meLYf+Ei0j4p2fgqbXzp9s/wBt0y609b8vJbBRCtxEs6o/lBFMkQOFVmWvRtY+JfiX4V+P/H3hnx146urrQfCXw7sNbOqXOn2b3aXt1qGqxNcmK0t4VlYJDCiQqoRig+Xc7s30BpXwI+FGi6DoXhrTNBWGw8OasNds1+0XDSDVBv8A9KmmaQy3EreY+5pmfdn5s4GNbxD8I/hz4t1TXtZ8S6JFqVz4m0ePQNR855GjuNMhknlSBot3ljD3Erb1UP8ANy3yrgA+GfD/AMWvinceJPHnwj8e/wDCQz6fqHgDVfEFnL4ostGstQje2dbWRY10aQoYJBOpAniSVWQjLAnHSeHJX0bQP2NvEGl/8hK9tLbQ5kX70um3vhmW7uFPqqTWNvIfdBX0d4Z/Zk+CvhLVLzXdH0Od9U1DSrnQ7i8vNT1C+uZdNumjeS2aa6uJXKZiXZ82Y+RGVDMDv2Pwb8MaZ4n8Ga1YM8WnfD7SJtJ0XTsl4rYTJFCZzI5aR5Ft4RChZiQryZJLkgA86/aklkudK+HHhefnSvEnjjQbPUVP3XtopHvVjf8A2JZ7aKNh0YMVPBxXkX7TPxj8feHNb8Wp8Jda8Ry3/gPRV1G/s9M0rRp9HtZDFLcRnU7nVJIZ2SSJAWSzlDpGN33mAr69+J/w90/4neD7jwte3MlhMJ7W9s7yEAy2d9Yzpc2txGG4JjmjViDwwyp4JrjfHf7NvwZ+Jeu3viPxpoDXt9qlrHZ3/lXt5awX0EQYRrd29vPHDceXuPlmZHKfwkYFAHh2s/tMan8P9StPH3jib/ijPF3w+PibS7TZGDBqulxi4vLOORUEjtdQXUJjVyxzC+zGSKq+H9W/aG8T+MvCfwb1zx2/hjXtK8FWfiXXb+206xmmvtTv7qSD7Ksc8LRJbWrQsH8tFlcMn7xTlj9HeKvgJ8I/G/hvwl4S8VeHk1DSfA1zZ3ejwvPOv2aawj8qAl1kDyqEO1klZ0kH31avPv2h/g7rXxJv9B1jwz4Z0XWdR02G7ga51LWtV0OeGO48s+WsulRu9xbuVJmtpSqPheetAGR+zN47+MvxN+C3w68bavqelapc31/q6+IrmSFomltLe5vYIP7PW32xq4kjgGZAQYgxJMhDV2v7SPxL1v4b+Bbb/hG7e/8A7R8Q3selpqFjpl3q/wDZMcyu8t9JbWcM8r+VGjeUuwq0xjV8IWYQ/B/9nbwx8N/hv8OvBusbNV1L4ePPeWl1B5lpCl/erOty8cEbhfKIupVSOTeFUg/eUMPomgD84f2LrH4XeL/h98XPhVpmm32qaDD4t1J2t9ZsdQtftNvOsPl/aJb2GNpJneJmnRsyqTmVBvXdqfATwPYaD8afiN8LvFvgnSvA+neIfDWnzDwlpMw1Lw/eWRmura6vGZ4rdRNMXEE0JtIgY1Qlpckp9eS/Bz4dy+H/ABH4XGmyw6f4r1F9W1FYby6hllvpHjkaZJo5VlhbdEhAidACOAOcp8Pvg38O/hfdahqXhDTZU1HVliS7vr29u9Tvp44c+XG93fSzzlE3MVQvtBJIGSaAPlL4G/B/4UR/tTePPH3wz8HaR4Y0T4fWUPhO2bSrGC0S61W5CXupysYUTcYI2trdc52nzgMZNeu/tjeAfB/jn9nL4gy+LdLi1Q6D4e1nULISlisN3DYTGOUKCFLIeV3A4PI5r3LwX4F8K/D3SZ9E8IWP2G0ury81CYGWSZ5bu/ne4uJZJJmeRmkldj8zHAwowoAHnut/s6fCXxD8NLP4P6hpt6nhGxMuyyttX1K0LrMJBJHNPb3Mc00biV90csjIcjK8LgAsaV4B8H/Er4LeF/CvjrS4tZ0ibTNNkktZi3lSNHAhXeFI3DPVTkHuDXyv8JfhbefGr/gm/wCCPhfYXcFjPr3hfSohNdRGaBRG8Urb41Kl1IQjbkZz1FfVdh8Bfhzpfw8k+FtgusQ+HpJVm2jX9XN2jJs2rHfG7+1xxjYo8tJgmMjbgnON4Y/Zj+Dng3wDefC/w5p2o2vhm9NsTatrmrTGD7IweEWs0t20tqEZQQIHjBxzmgDxv4H+EvDHhPxt49/Zv8U/D/wdYG90ax1a5l8M6Uthp2rabeyXNoYb2ykaUrJG8Ugw0siOj8Ywwrkvg78N/hN4d/aB+Knxi+HXgjT9B0D4cacPC1rFoWmxQyXt+iDUNWkWOBFMsqZt7WMcnckqjqa+w/h58IPh78KzqU3gvTHt7zWWje+vLq6udQvrowqViE13eSzXEgjBIRWkIXJ2gZOd7wT4F8K/DrQz4d8H2P2Cwe6u711MskzyXN9O9zcSvLMzyO0ksjMSzHrgYAAAB+X/AMK/ibpHiP8AbB8A+P8AxVHrkXi7xh4e8Q211aXOg6zbQ6ZE91ph0/Tojc2cStFboJTcXI/dGeR2Z1WSJaNP0HSY/ghoP7T0SE/F+9+IFtHLqfmN9tnNz4p/sqbSWOcm1SzZoRbD5FCBgoYbq/UO88E+GNQ8ZaX8QLuy8zX9Fs7uwtLnzJB5VtfvDJcJ5YYRtva3iOWUsNvykAtnzyH9nP4NW/jz/hZMXh0Lrn219TH+lXRsl1CRSrXq2Bl+xrdMCcziESkkndk5oA8Jg8ffFLw78cZLD4veINc8MaNqfiBtP0C3t9K0+58N6jaTDbZQyXyRS3sN3Ng7vOlhXzPlRWBXd6F8E5ZNO+Nfx28J2XGkWutaXqUSD7sV3qmlwSXaL6b3RZ2H96Vm/irt4/2efhMnjRPH0mlXNzq0V8+pxJcanf3FjDfSFma5isJbhrOOXLsQ6QhlJyCDXUfD/wCHlh4CHiG6iuXv9S8U6vdaxf3UoCvJLNtjiQAdEgt44oIxydkYJJJJoA6a3/5GK8/694P/AEKStysO3/5GK8/694P/AEKStygAooooAKKKKACiiigAooryj4qfE+z+H2mJBax/bdd1DEdlaIC7M7narFV+YjccKo5dvlHci4QcnZHXgcDVxNWNGiryZQ+LHxR/4Qy3h0Dw9EdQ8T6qRHaW0YDspfgOV6Z/ug8cEkhQTXJeG9B8PfArwvqHxJ+JN8tz4gvVJurjPmNuc7ha227BYswyzcF2G5sIqhIfC/h/TfhPo2ofF/4u3gk8QXSl5XciQ24k6W8OOGlfADFeONq/IuT8Z+JfEvxA/aQ+IlrpmlWoaZhvsLGT5rTTbRsf6becEMWGCiEZkOCR5exJev8Adxhzz+BP5zfZf1otXq0j6fE1qdGk8BgndP45/wAzXRPpCPfrvrdJs1zXfiH+0d8RrazsLdWvHXfZWb/NZ6TZtg/a7rjDMwwUQjMpwSPL2JJ+hfgHwF4L+BPgqeOO4wBm51LUrk5nu5z96WVuSSScKoJxnAySSYvAPgHwV8BvBNxm555udT1O5OZ7uc/ekkbknJOEQZxnAyxJPN6VpOq/GXU4PFHiqB7PwjaP5mnaa/DXZHS4uB/dP8K9CPbJf5DPM8qqrGlSipV5L3Y/ZhHu+0V1e8norttmGX5fCrCVWrLloR+KXWT6Riu/ZbRV5Sd7tppml6p8adSh8SeJoXs/B1o+/T9Pfhr1h0nuB/c/ur0I9slvoVEWNQiAKqgAADAAHYUqqqKEQAKowAOAAKWt8myaOFjKcpc9SespveT/AEitoxWiXndvzc4ziWKlGMY8lOOkYrZL9ZPeUnq35WSKKKK9o8YKKKKACq17e2enWk1/qE6W1tbo0kssrBERFGSzMeAAOSTXKePfiD4S+Gnh6bxP4xv0sbKLhc8ySuRxHEg5dz2A+pwASPm2z8IePf2kbuHXvifDP4Y+HqOstl4fVjHdagFOVlv2XBVT1EY/DGA7eng8u54+2qvlprr38orq/wAF1aPLxuZckvY0Y81R9O3nJ9F+L6Jj9R8eeO/2hr+48L/ByaXQPBULmHUPE7IVlucHDw6epwfYycY9V43/AEf8P/h/4Z+GXhi28JeE7cwWNuSxLsXkllf78kjHq7Hk9B2AAAFdPp2m6fo9hb6XpVtHZ2dqgjihhUJHGijAVVXAAHoKu0YzMFOPsaMeWmunVvvJ9X+C6IMFlzhL21aXNUfXol2iui/F9WwqC6/49pf9xv5VPUF1/wAe0v8AuN/KvMPUPAP2Rv8Ak1X4Of8AYn6D/wCkENfQ1fPP7I3/ACar8HP+xP0H/wBIIa+hqACiiigAooooAKKKKAP/0/38ooooA/MHxh4UtviP418Zaj8MPhl401fw1date2GuLpviyDw/ous6jZObS+Jsnu0kYF4zDNIqxCYq2d/LH9HfCMTQ+FNFhfR18PNHZWynTFaN1sSIlH2YNCTGwh+4Ch2nGV4xX5y2+l+Fb741+NfDHgnx18UdMOpTeIdbll0240qHRZ77SZrePUbPTo57cymSGW5jiLMgRnDBpXcO1foH8MdX0zxB8NfCevaLqN1q+n6lpNhc217fFDd3UM1ujxzXBjVU82RSGfaoG4nAA4oA7iiiigAooooAKguv+PaX/cb+VT1Bdf8AHtL/ALjfyoA+Z/2Z/wDkzj4Wf9iRon/pvir6bh/1Sf7o/lXzJ+zP/wAmcfCz/sSNE/8ATfFXtPifwd/wlcdkf7a1LR/sqt/yD7jyPM37f9Z8rZ27fl9Mn1q4JN2bsbYeEJTUakuVd7X/AAO2orxz/hT/AP1OniT/AMGH/wBhR/wp/wD6nTxJ/wCDD/7Ct/ZUv5/wPT+pYT/oI/8AJWex0V45/wAKf/6nTxJ/4MP/ALCvVtNsv7O0+10/z5bn7NEkXmzNvlk2ADc7cZY4yT3NZ1IQXwyv8jkxeHowSdKpzfJoxPF3jfwX8P8ASDr/AI81/T/Delh1jN3qV1FZ2+9s7V8yZkXccHAzk1xnj74t6R4U8KaH4j8OLD4ml8Vajp+maPHb3KiG8m1CQBXW4RZV8qOISTu6q37uNiATgV5B8d7K60T40/DP4qa14a1DxX4S8P2WuWVxDpthLqlxYahf/ZDa3v2O3SSaRfKhngLxoxj83srMR4DoPhHXvBHhj4a/EHXNHm8N+G7L4ralrEOkXSCF9K0jxGl/p1kZoRlbci5vY5Wj6RCYhtpVgMThPrf4j/tB2PwvvNXl8QeCfE0/hzw9Gk2pa/a2cD6bawmNZXlO64S5mjiVsytBBIE2sDyrY2vij8X08DwaTo/hHSW8YeMfExI0fR7ecQfaI12mW5nuCsi29pCrAyTsrAEqiq8jojfOH7RHxCuvGXju6+A/iLw54rsPh1bwwyeINS0zw1rGpjXVmUSDS7OfT7SeNLcqQLyUsHIJgQAmR1+7bKSCWzglto2iheNSiMhiZVI4BRgCpA4KkAjoQKAPHvAHxw8MeKvB+reIfFgXwTqXhTMfiTT9VnjibRpkXexmmYrG1uy/vIbgERyx4cEche00X4ieC/F02sab4E8Q6V4h1XRCY7q1tL+GZrafkLHc+SZGhJYEHcmRg/KcYryn9rzQ9a8S/svfFLw/4c0+41XVNQ8PahBbWlpE89xPK8LBY444wWdmPAVQSe1ctH4Ci8I/tN+AtW8MaB/Zfh2y8Ca3pt3c29sYrSLyr3S5LSCWVVCKwUTNErEHAkK8bqAPcPhN8RLP4rfD3R/Hdnavp7agkiXNnIwd7O8tpGt7u2dgAGaCeOSMkAAlc45rP0D4p6fr3i3x3o4gjtND8AtbW15q01wEiN69uLy5h2lQqpbW8kDPKZPvSMpVfLJbzb9ki1nk+FN74sZTFaeNPEfiLxFYRsMY0/VtUuLm0Ye0sDJL/wADryTT5vHPg/wV+0r4W8GaRHrfja012/1iysJ4hcLeWet2sM1vIIWKiZcLPCsZIDvA0dAH1npHxh+EniDw9qfi3QPG+h6loWiBmv7+21K2mtLQKCSZ5kkMcQABJ3sOK7C71/QrDUdO0e+1G2t7/VzILK3kmRJrowp5kghQkNJsT5m2g4Xk8V+bnwd8E+IPGf7QHiM+KLfxTrfgvxT4AuNJv7/xD4eg8PR3E5vEQ2iwQ2do/wAkM0uz7QrMQz+WzICS/wCE3gL43fEGy8TWvjawvtE174a+Db/wB4ev76KS3W/1OdpY59Zt3YDdHNDbWBWVMjJlAPBFAH3jonxg+EviXWP+Ee8OeNtD1XVftD2n2S01K2nuPtMUbyvD5UcjP5ixxu7JjcFVmIwCa9Fr8pfB9zoE3xg/ZS8O6d8OdT8G6p4Th1nT75tQ0ttOWF4tAnjkt4ZXVRdoZRvM0Jki+6S+6QA/oT8JLPwtZeHdTi8I+HL/AMMWj61rEk1tqMMkMs13Jeytc3aLK7kw3MpaaJgQrRspUKCAADB+J3x/8EfCvxd4Q8Da3De3+r+Mr+2sYIrGJJRaLdzLbxXN2zyIIoWmYIpG52O7YjBHKv8AGfxu0/wx4tfwJ4d8L63431+1tory+tdDitm+wW9wzrC9zNeXFrCrSmN9kayNKwUsE24J+NPjX8Df2jrDxDb+JvDuu6L4gbxB8Q9D1TzG8PX9xfWVra3WLJbmWHURGbGwi++qRQhsySF1eR3Of8XfhDpFh8a/ir4s+JngLXPHf/CcaPpT+GLjRbK6vIrPU7O0e0uI0MBI0+4LrDJHcylFCnAlBVwQD7U8b/HXTvCHiLTfBmm+Fdd8V+JNR05tWfTdJgtjPa2KuIzLO93c28K5kOxUWRnZg21SBmvQPh5498OfFDwTpHj/AMJSyTaTrUAngMsbRSryVZJI2wVdGBVgejA1+fvjnwT4uXxB8OZvjzY+LL2DTPAdtp91q/glL59Ql8ROVGoxXlxpAN4YHCRvCpItmcyNJkhMfSX7OuoeKvA/wn+F/wAP/G/hi/s9V1C1vIB9msYkttOtrMvJajUTbbYbeaW28tWCrtacsoAoAtaP+1R4E1rxNp+kwaPrUOg6zq02had4kltYl0W91OB5IzbwyiYz/NLE8ccrwLFI67UdiRmLxL+1Z4K8MavrsM/h7Xr3w94V1GPStZ8Q21rA+l6feSeVuSTdOt04j85PNeG3kRM8twcfLfhXw547k+GXw0/Zcm8H61ba94L8W6ZdajqstjKmkDTND1X+0Rew6iR5ErXUUSKkSMZRJIQ6KFJrj/ip4A8V3/iD4msPC3iuT4k6n4mivfDdvp9pct4OvobZoP7PuNRWMHS5flQG7e9P2gFT5ZGyLAB+gfxu+P8A4I+Aul6ZqPi2G9v5tWuUt4LTTokmudjSJHJcOskkapBE0sYkkZgAzooy7qp1viH8UNU8B3kdtY+AfEfi6HyDcTXGixWUkUCAkFWF1d27u+FzsiWRiCMDJAr4v/at+CHx81LTPiJ408J6xpXiCPxHJolva6c2hXt5qtpY2d7bOLa2mgvkjEQnD3Mx+zFnBYM2EjMft3x2vtG1Tw1Y/Dv4oWfja+1OTT455r3wJY6zBa3V1IjwzRB7B5URSwLCC9laMKyb2fk0AdVrn7TfhW2sfh7feCfDus+PP+FnWc+oaPHo62UbtbW0MU7vL/aN3ZKnySr8u4tkEEAiu21r4o6xovhTSPEB+HniS91LVnMf9jWsVjLfWxUMSbmQXgso1wuQ32og5AB3ZA+X18O+CrX4K/Cjw/8AtQfCu58S67pWiiFbfSfDs2r22nTLHFG0Ji02KWO3kZFQZVViDK2xlUCqegePPi58Bv2ZtJhXwbr2r+INW1jUbXQ7KWyvtan0TSLm8nk099X+wLc3BS0szGGRd0jELDkHcygH1L4R+Onw+8UeC9V8c6jdnwpZeHrybTtXj10x2EmmXkBXfDcszmFTh0ZWWRkZXUqxBFUvEvx38HaX4X0Dx/4YvbHxV4S1TWbPSbzVNOvop4LMX8n2aKcNF5iSKLqSGOQb12K5kJOza3zDP4M+Ht98AbcIPHFxf23imPWrvWR4WvV1mbxAo+0NqMmkXtmWltTkRBUt5I0ULGhDRllxvFup/ETxp+y14g8I+M9L+x654w8U2eg+H5W0x9Fu9Ugnu7Vo9QuNPkZnt5Y0SeWQNtPl2/mbUB2gA/SaiiigAooooAKKKKAMO3/5GK8/694P/QpK3Kw7f/kYrz/r3g/9CkrcoAKKKKACiiigAoorhviB4+0T4d6BLreruGfBEEIIDSuBnA9FHVm6AepwDUIOTsjfC4apWqRpUo3k9Eil8SviPpXw60T7bdf6Rf3GUtLVcl5ZOg4HO0EjOB3AHJAryXwv4ft/BNrffHH403SprDoZESTBFkjjasaKOs7g7ML90HYvV2eDwzov9n/avj18brhbWeJPNtLaYELZRfwHyzk+ac4jj5Zc5OZWO35J8b+N/Hf7SPj+z8PeG7MmPJk0+wl5gtIOhv78jIPByqHO7IABU4l7VGnCDnN+4t7byf8ALH+vN9EfW1HHC05YLCu8n/EmvxjF9Ir7T6+lk2eLvF3j79pD4g2mi6HaZJ/eafYS/NbWNscZvr7qCSCCiEHfkcFNqzffPgDwD4K+Afgm5eS63SN/pOqapc8z3lwerueSckkIgJxnHLEkw/D/AMAeCf2fvBF1NPdb5n/0jVNUuOZ7yc/xHqcZJEcYzjPdiScnRdD1b4u6rb+MfGdu1p4atW8zS9Kk6zHtcXI75H3V6Y/2cl/j89z2r7WNGhFSryXux+zCP80u0V16zei1u1jgcBCrTlWrS5cPH4pdZPpGK79ltFe9LXdNH0bVvjDqkHizxfbvZ+FbV/M0zTJODckdLi4HcH+FemP9nJf6DACgKowBwAKAABgcAUtdGTZNHCRlJy5qktZTe8n+iW0YrRL5t+TnGcSxUopR5acdIxW0V+re8pPVv5JFFFFeyeOFFFFABXinxW+Nei/Dh7bw/p1rJ4h8X6p8tho1p808rHo8hGfKiHdiOgOAcEjiPG/xp8QeKPENx8LvgFBHq2vxfJf6vJ82naSDwSz4IkmHOEGRkdGIZR3vwp+C3h/4ZJc6tJPJrvinVPm1DWbz57m4c8kKST5ceeiA9hkkgGvbp4GnQiquL3e0Or832X4vpZanhVcfUxEnSwb0Wjn0XlH+aX4Lrd6HEeAvgprWseIYPin8drqPXfFK/NZWCc6dpKk5CwxnIeQcZkOeRkEkBz9OUUV5+Mx1SvLmn02S0SXZLoj0cFgKeHjy0+urb1bfdvqwooorkOwKguv+PaX/AHG/lU9QXX/HtL/uN/KgDwD9kb/k1X4Of9ifoP8A6QQ19DV88/sjf8mq/Bz/ALE/Qf8A0ghr6GoAKKKKACiiigAooooA/9T9/Kgurq2sraW8vJUgt4EaSSSRgiIiDLMzHgAAZJPAFT1R1PTNN1vTbvRtZtIb/T7+GS3uba4jWWGaGVSkkckbgq6OpIZSCCCQRigD8zD4N8F+OPEWq/Ez4d/HE+AdBt77xhp1zp1xDpstzC19qSprM1jcyTHyo7u4sPtEDyJKVEhdQu4Iv3v8GLzwtqHwf8C3/gaxn0zw3c6DpkumWl0Atxb2L2sbW8UoVnAkSMqrAMwyDyetfmRrGmaZD40vPDfwQ/Z6+G0unG58XSWMuuQKby8uPDN9FBqAXbbMsAkubhxaxmQqI4+sSbVH6i/CzxOPG3wx8IeM1FuBr2j6fqAFqrrbj7VbpL+5WQBxH83yhgGAxkZoA7yiuN8Z/EX4ffDmzh1H4heJ9L8L2ly5jim1S9gso5HAyVVp3QMQOwOai1b4mfDfQPCsHjvXfFek6d4authi1S5voIbGTzPubLh3ETbsHGG57UAdvRXMXnjbwZp/hY+Ob/X9PtvDYhW4/tOW6iSx8l8bZPtDMI9jZGG3YORzRpfjfwZrnhgeNtE1/T9Q8OmJ5v7St7qKWy8qPO9/tCMY9q4O5t2Bg5oA6eoLr/j2l/3G/lXO+EPHPgn4g6Udd8BeINO8S6aJGiN1pl3DeQCRcbk8yFnXcMjIzkV0V1/x7S/7jfyoA+af2ZVZ/wBjr4VqgyT4I0XAH/YOir6Stbq2ltopI5VZWUEEEeleB/sjf8mq/Bz/ALE/Qf8A0ghr3BtA0R2LtYQEnkny1/woA0/Ni/vr+dHmxf31/Osv/hHtC/58IP8Avgf4Uf8ACPaF/wA+EH/fA/woA1PNi/vr+dHmxf31/Osv/hHtC/58IP8Avgf4Uf8ACPaF/wA+EH/fA/woA1PNi/vr+dVruDTtQtpLK/jiubeYbXjlCujD0ZWyCPrVT/hHtC/58IP++B/hR/wj2hf8+EH/AHwP8KANTzYv76/nR5sX99fzrL/4R7Qv+fCD/vgf4Uf8I9oX/PhB/wB8D/CgDU82L++v51HMLS4he3uNksUqlXRsMrKwwQQeCCOorP8A+Ee0L/nwg/74H+FH/CPaF/z4Qf8AfA/woA0IRaW0KW9vsiiiUKiLhVVVGAABwAB0FRCDTlu31BY4hdSIsTSgL5jRoSyoW6lQWYgZwCT6mqn/AAj2hf8APhB/3wP8KP8AhHtC/wCfCD/vgf4UAanmxf31/OjzYv76/nWX/wAI9oX/AD4Qf98D/Cj/AIR7Qv8Anwg/74H+FAHlvgn4CfCP4feIx4u8OabM2sRwPawXN/qV9qb2tvIQXitft1xOLeNiq7lh2A4AIwBXs3mxf31/Osv/AIR7Qv8Anwg/74H+FH/CPaF/z4Qf98D/AAoA1PNi/vr+dHmxf31/Osv/AIR7Qv8Anwg/74H+FH/CPaF/z4Qf98D/AAoA1PNi/vr+dHmxf31/Osv/AIR7Qv8Anwg/74H+FH/CPaF/z4Qf98D/AAoA1PNi/vr+dHmxf31/Osv/AIR7Qv8Anwg/74H+FH/CPaF/z4Qf98D/AAoA1PNi/vr+dHmxf31/Osv/AIR7Qv8Anwg/74H+FH/CPaF/z4Qf98D/AAoA1PNi/vr+dHmxf31/Osv/AIR7Qv8Anwg/74H+FH/CPaF/z4Qf98D/AAoA1PNi/vr+dVpoNOuZre4uI4pZbVi8LsFZo3ZShZCeVJVipI7Ejoaqf8I9oX/PhB/3wP8ACj/hHtC/58IP++B/hQBqebF/fX86PNi/vr+dZf8Awj2hf8+EH/fA/wAKP+Ee0L/nwg/74H+FAGp5sX99fzo82L++v51l/wDCPaF/z4Qf98D/AAo/4R7Qv+fCD/vgf4UAanmxf31/OjzYv76/nWX/AMI9oX/PhB/3wP8ACj/hHtC/58IP++B/hQBBZyJN4gv3iYOqQwISDkBsucfXBFb9QW1rbWcXk2kSwxjnagCjP4VPQAUUUUAFFFYXiTxJpPhPRrjXdbmENtbjJ7s7HoijuzHgD+nNOMW3ZGlKlKclCCu3sin4x8YaL4G0KfX9cl8uGLhEGN8shGQiA9ScfQDJOACa+fNB006xNN8dvjPKlhp1gom06ymz5dvGpzHKynlnJx5SYyWIbG8oEraVbN49uZPjP8WJF03wnpSmXTrOY/uzGCCJnGPmUnG0YzM2MDywgf5a+I/xG8bftIeOrPwd4Ms3ay3lrGyc4jVF+Vr69IyAoB4HPXauSSW74whCDlN2it2t2/5Y92/603+y9msDF4ai71XpOX8q6wT7/wAz6bdxvj/x/wCOf2kfHtn4W8J2bG23F9PsZP8AUwRDhr++IyOAflXnrtXOT5n3V8Pvh/4I/Z68D3NxdXQe4kxPqepzj99dz/qcZOI4xnGe7EkwfD34feB/2dvA1zd3l0JLqQCbU9SlH767m7ADkhQTiOMdPckkw6B4e1j4p6tb+N/HVu1rods3maVpMnf0uLgdCxH3VPGPb73x2e57VdWOHw8VKs17sfs04/zS8vxm9F1thgcBTqU3WrS5cPHRtbze/LFPr+EV70tbJt0PQdX+LGq2/jTxvbta+HrVvM0vSZP+Wn924uR0JI+6vTHt9/6BAxwKKK6cnyaGEhJ8zlUlrKT3k/0S2SWiWiPHzfOJ4uUVblhHSMVtFfq3u29W9WFFFFeweQFFFeffEj4n+D/hVoDa/wCLrvyVc7Le3jG+4upe0cMfVmP5DqxA5rWjQnUmqdNXb2SMq9eFKDqVHZLds7HVtW0vQdNudY1q7isbG0QyTTzOEjjQdSzHAAr5GufEnj79pm4l0jwFLceFPhqrGO61oqY77VVBw0dmrcxxHoXP4/xRm1pPw58cfHvUrbxh8cIX0fwtA4m03wqjEb8cpNqDDBZsdI+MdCF+ZW+uLa2trK3is7OJIIIFCRxxqFREUYCqo4AA4AFezzUsF8Np1e+8Y+nSUvPZdL9PD5auO+K8KXbaUvXrGPlu+tlo+Z8EeBfCvw68PW/hfwfp8en2FuPuoMs7nq8jH5nc92JJ/DFdbRRXiVaspyc5u7fU92lSjCKhBWS2SCiiioNAooooAKguv+PaX/cb+VT1Bdf8e0v+438qAPAP2Rv+TVfg5/2J+g/+kENfQ1fPP7I3/Jqvwc/7E/Qf/SCGvoagAooooAKKKKACiiigD//V/fymSSRxRtLKwREBZmY4AA5JJPQCn1m6zo+k+ItIvvD+vWcOo6ZqcEtrdW1wiywzwTKUkikRgVZHUlWUjBBINAHhHxL+E/wC8c+GLuz8UaRpt7Dbz3eqoEuGtm+2XCMJ5PMt5I5P34OJV3YkH3wa6r9nzxDL4u+Afw18Vz2dtp0uteGdGvWtbKMw2sDXNlFIYoIyWKRIW2ouThQBk1yH/DHv7KP/AER7wn/4JbP/AONV75o2j6T4d0ix8P6DZw6dpmmQRWtrbW6LHDBBCoSOKNFAVURQFVQMAAAUAcV8SI7u50tLPw5qOh6Z4nZXfT5ddtTewKiMn2giCO4tZWG0gEpKApKlsjg/mb8AH8Nr8Tfhhp3i77HLpen3/wASIYrlWjbRrrxOdRtZHm04bUjSFrd7oW0YBaMCZAzlWdv1D8afDT4c/EiC2tfiJ4V0nxTDZMzwJqtjBfLCzY3GMTo4UnaMkYzgelGr/DT4ceIPC0PgbX/Cuk6l4bttnlaZc2ME1jH5f3Ntu6GMbcnGF47UAfmT4ZGgeZ4BF99n/wCFT/8AC6PEv2HO3+zdn2TUP7P2f8s/s/8Aa2/ycfu/M2bf4ad8Q/7D8/4w/wBm+R/wq7/hZ3gf+2vK2/2dt/4l39s79vyeX5nk/a8cZ8zfzur9Q7zwT4M1DwsfA1/oGn3Phswrb/2ZLaxPY+SmNsf2dlMexcDC7cDA4pNL8EeC9D8Mf8ITomgafp/h0RPD/ZtvaxRWXlSZ3p9nRRHtbJ3LtwcnNAHzR8Pf7D/4bA+In/CCfZ/7I/4RPw9/a/2Pb5H9rfar/wAjfs+Xz/sezd38vy88ba9p+I2rfGTTpIY/hl4Y0PXrR4XNxJq2t3OlyRv2EaQabehwRySWQg8YPWut8IeBvBPw+0o6F4C8Pad4a00yNKbXTLSGzgMjY3P5cKou44GTjJrorr/j2l/3G/lQB4B+yN/yar8HP+xP0H/0ghr6Gr55/ZG/5NV+Dn/Yn6D/AOkENfQ1ABRRRQAUUUUAFFFFABRRRQAUUUUAFFFFABRRRQAUUUUAFFFFABRRRQAUUUUAFFFFABRRRQAUUUUAFFFFABRRRQAUUUUAFFFFABRRVO/v7LSrKfUdRmW3trZC8kjnCqq9SaEhxi27Lcg1nWdM8P6XcazrFwttZ2q75JG6AdgB1JJ4AHJOAOa+XoQfixeS/Ej4hsNL8AaJvktLWc4S4CdZJuxXIwQM7j8gyu7elxcS/GjUZvFHiaY6R8N/D7PIPNbyvtjxZDMx7KOQzfwjMafOXZfmH4ofE3xR8fvFdh8NfhpYsNGRttlZqPKSVIvlN1c7f9XBH/CP+Ar85O30qdKNOLlN2S3f/tq7yf4elz7ahh3gE6cH+/a1f/Ptdk/52t39lab3GfE74l+Mf2i/Gtl4E8B2jtpu8mys2yiMqHa17eEfdjTsP+ArliTX2v8ADz4e+B/2cvA1zfX90JbyULJqWpSKBNdTAfKiL1CDpHGOg98mofh58PfA/wCzf4GudS1O6Wa/nCvqOouoEt1KB8sca9kXpHGOAOT3NWvDnhnWfiRrFv49+INubfT7c79J0h/uxg9J5x/FIeoB6fpXxme57VlVjhsLFOs17sfs04/zS/q83orJNrHBYGlOk61ZuOHi7Nr4pv8Alj+r2ivelrZDPD3hzWPidq9v468fW5ttJtm36VpD9AO09wO7kchT0+nX36iiunJ8nhg4PVynJ3lJ7yfd+S2SWiWiPEzfN54ua05YR0jFbRXZeb3bererCiiivYPJCikJCgsxwB1NfKPin4weK/iXrlz8OP2etk0lu3l6n4kkG+x08HqsB5E02OmMj0yMsvbgsBOu2o6Jbt7Jeb/pvocOOzCnh4py1b2S1bfZL+kurSO3+Kfxvs/BeoQ+CPB9g3inx1qIxa6VbnPlgjiW6ccRRgcnJBI9Fywyfhv8ELy218fE/wCL9+vibxxKMxNj/QtMTqIrOM8Db/z0Iz3GCWLdv8LPg94V+FOnzLpXmX+sagfM1DVLo+ZeXkpOSzuckLnkKDgdTlsk+r121sfTpQdHCbPeXWXl5R8t317LioZfUrTVfGbrVR6R83/NLz2XRdWUUUV4p7YUUUUAFFFFABRRRQAVBdf8e0v+438qnqC6/wCPaX/cb+VAHgH7I3/Jqvwc/wCxP0H/ANIIa+hq+ef2Rv8Ak1X4Of8AYn6D/wCkENfQ1ABRRRQAUUUUAFFFFAH/1v38ooooA/Kq7+H3gi58c+Orn4yfs0+JfiZqtx4i1Oa016S102+S50+SdjapCt1qMbQwwR4iiVVAaNFkIV3ZF/SvwLbabZeCfD1nouiyeGtPg060jttKmRI5LCFYVEdq6RM8atCuIyqOygrgMRg1+bXjO18I/wDCS+Pf+F2af8Q7r4lPq2pHw1LoK680H9nmRjpI0mTTT/Z8RSHy/O88qfP8wzZWv0Y+GaeMY/hx4UT4iMreK10mxGrlNu06gIE+1Fdny483djHHpxQB29FFFABRRRQAVBdf8e0v+438qnqC6/49pf8Acb+VAHgH7I3/ACar8HP+xP0H/wBIIa+hq+ef2Rv+TVfg5/2J+g/+kENfQ1ABRRRQAUUUUAFFFFABRRRQAUUUUAFFFFABRRRQAUUUUAFFFFABRRRQAUUUUAFFFFABRRRQAUUUUAFFFFABRRRQAUUUUAFFFNd0jRpJGCqoJJJwAB1JoAjuLi3tLeW7upFhghUu7uQqoqjJZieAAOSTXyvquqzfGzUrmSe5bSfhxoDGS6uXYwm8aIbjljjagHPqo5OHICTeJtduvjLqt1oelXn9meBNEPmapqRYIs3ljeVRm+XAAyM/Ko/eNn5Fb5V+JvxK1X4uaxpvwZ+Densvh+NhHaWqbo/tnlnm5uW+8lshy3zHczfMfnP7v0qNFU4upUdrbvt5LvJ9F0+9r7bBYR4FJ/8AL9r/AMFru/7zWy+ytWO+KHxN1/43+IdO+FHwo08roUZEdlZoDCtwsJ2/abjGPKtosfKDg8f3/wDV/Y3w8+Hvgf8AZt8D3Oq6tdLcalcBW1DUGUCW5lA+SGFP4UXpHGOAOT3NQfDv4e+CP2avA9zrOtXK3WrXSqb+/KgS3MoHyQQJxtjXoiDAAGTjtteF/CutePNZg+IXxFgMEUB3aVpLcpbKeRLMD96U8HkcfkF+Nz3PqsqscJhIp1be7H7NOL+3Pu398norRTanC4SlOk69duNCL1f2qkt+WN/xb0itXryxG+GfC+tfELWbf4gfEOA29rbnfpWkvysCnpNOD96U9QD0/ID3miiunJ8np4ODSblOTvKT3k+7/JJaJaJWPBzfN6mLmm0owirRitorsvzbererCiiivXPJCsXxD4j0Lwno114h8SX0WnadZrvlnmbaij+pJ4AGSTwATXFfFD4t+EvhRpEd/wCIJXnvrxvLsdPtx5l3eTHgJFGOTyQCx4GRzkgHxjw98KPGHxe1m18f/tBIsVlbv5ul+Fo23WtqP4ZLztNNjqp4HQ8EoPVwmXJw9viHy0/xl5RX5vZfg/JxmZNT9hh1zVPwj5yfTyW76aarJa48fftRyGKxN14P+FZOGm/1Wo62ncID/qrdvX+If3skJ9V+FvCnh3wVodr4b8K2EWm6bZrtjhiGAPUk9WY9SxJJPJJNb6IkSLHGoREAAAGAAOgAp1RjcxdVKnBcsFsl+bfV+f3WWheBy1UpOrUfNUe8n+SXReS+d3qFFFFeaemFFFFABRRRQAUUUUAFFFFABUF1/wAe0v8AuN/Kp6guv+PaX/cb+VAHgH7I3/Jqvwc/7E/Qf/SCGvoavnn9kb/k1X4Of9ifoP8A6QQ19DUAFFFFABRRRQAUUUUAf//X/fyuY8ZNpkPhy71HW9afw9pulmLUbq/WdLZYbewkW5l82WQFVgZIys+cDyi4yvUdPUcsUVxE8E6LJHIpVlYAqykYIIPBBHUUAflzZ/Fj9m/x0viDxpqH7T+reFWOr61GumR+L9MRFhtL6eGKS1hMJf7POkay26jcfKdMFup/Qb4QavL4g+E3gnXp472KXUtE025ZNTkEt+rTW0bkXUiqgecE/vGCKC+TtHSvzx8QfEH4ux+NLvSPhFZeAfBOh3F341NgmqaTLJLLe+Gb2KO5e5uI7mCON76WWe4UrESkab2LliV/RH4S+Krnx18KvBnja8lWefxDounajJIsBtVd7u2jmZhAZJTECWyEMjlfu7mxkgHoNFFFABRRRQAVBdf8e0v+438qnqC6/wCPaX/cb+VAHgH7I3/Jqvwc/wCxP0H/ANIIa+hq+ef2Rv8Ak1X4Of8AYn6D/wCkENfQ1ABRRRQAUUUUAFFFFABRRRQAUUUUAFFFFABRRRQAUUUUAFFFFABRRRQAUUUUAFFFFABRRRQAUUUUAFFFFABRRRQAUUUUAFfMXjHxVe/FTVrvwR4TvBY+GdOBfWdW3BYzEuSyI5+XZgHnOHwT/qwS93x/4w1Px1q9z8NvA1ytvaW6k61qjHENtCM703ZA6AggEbiCuQodl+NPiL8QrjxpdWPwG+BVnJcaU8m0lTiTUpl+/cXD8bYFI3c4BwOAAoT0cPRUE6lR2S69u2nWT+yvnsfZZbgfqcVWmr1mrxT2gv55efWKf+Jk3xK+JF98SdQ074HfBGwc6Er7IIUyjX7o2WubluCturZY7sFj8zfNjy/r34c/DrwT+zP4Iudb1y5W71q8VTfX20ebcS4+S3t14xGuMIgx03NgDiD4b/DnwT+zL4IuNc164W9169Vftt6F/e3EuPltrZTgiMEYVeM43NgDC9Z4T8I634x1qH4i/EiHy5Yvm0vSzzHZIeRJID1mPB5HHsQAvx2fZ9VnWjg8HG9W10nrGmn9ufdvot5PRWim1rQw9OdOWJxMmqKer+1Ulvyxv+Lei3evLEb4V8J63421qD4ifEaHyvJ+bS9KblLRDyJJQfvTHg8jj2IAX3WiiurJ8np4Om4xblKTvKT3k+7/ACS2S0SSPnc2zepi6ilJKMYq0YraK7L9Xu3q22FFFRyyxQRPPO6xxxqWZmICqoGSSTwAB1NeseUSV88/E344PomtL8N/hhp48VePLocWqH/R7FT/AMtryQEBFXIO3IJ4yVypPF658UfGnxr1a68DfAOX7Fo1u5h1PxW6kwxf3orEcebLj+McDqCAVevcfhl8KfCHwo0VtJ8MW7Ga4PmXd7OfMuruXqZJpDyTkkgcAZOAMnPuxwlPCpTxSvPpD9Zdv8O7626+BLGVMW3DCO0Os/0h3f8Ae2XS724f4X/A9PDOryfEL4hagfFXjy9X97fyj91aqf8AljZxkARouSMgAkZwFBK19A0UV5eLxlSvPnqO7/BLsl0Xkj1cHgqdCHs6Ssvxb7t7t+bCiiiuY6gooooAKKKKACiiigAooooAKKKKACoLr/j2l/3G/lU9QXX/AB7S/wC438qAPAP2Rv8Ak1X4Of8AYn6D/wCkENfQ1fPP7I3/ACar8HP+xP0H/wBIIa+hqACiiigAooooAKKKKAP/0P38rK13U5dF0TUNYgsLjVZLC3lnWzswjXNy0SFxDCJHjQyORtQM6ruIywHI1aKAPzYsPiNL8UfBepaR8WP2YfEXiuQeINaubaG50TRRa5jv7iKyeRbq+X9+tsI45pgpDkMVZ0IZvvL4aweKrb4deFbbx1FBB4li0qxTVI7VVW3S+WBBcLEqfKIxLuCheAMY4r8+vi4n7P8Afax4wsbXWfi5F4slub9Qmhnxm0S3/mPlbNVT7B5Yk4j2nyNuNp2YNfe/wjtfENj8KPBdl4tt3tNct9E06O/hlnkupIrtLaMTI08rySSssgYGR3ZmPzMxJJoA9Dorzb4g+IPidoradB8NfB9p4oluvONzJfasNKt7YR7NgLLb3UrtJubaFi2jadzLlc+Mj9qFb34Z+H/FWjeFLi58WeJfEFz4VtNAkuo4wNYsZrmG7R7xVdPs0ItJ5DOiNlFGE3ELQB9X0V8mv+1EdE8HeMrzxr4Tm07xp4L1PT9Gm0G0u0vBe3usmFdMFndskIeK6a4Rd7xo0ZEm9Bs5sRftMyeFLbx5b/G7wyPCGr+AtEj8RzQWN8NVt73S5fOVZLWcw2zNKJYHieJ4kw5TDMrBqAPqqoLr/j2l/wBxv5V87+APjZ4y1Tx7p3w5+K3gceCNW8Q6XPq+keVqS6lHcQ2jxJdW8zCCDybqD7REzRqJEKsSsrbTX0Rdf8e0v+438qAPAP2Rv+TVfg5/2J+g/wDpBDX0NXzz+yN/yar8HP8AsT9B/wDSCGvoagAooooAKKKKACiiigAooooAKKKKACiiigAooooAKKKKACiiigAooooAKKKKACiiigAooooAKKKKACiiigAooooAK+fPiL481XXNXf4ZfD2YLfsrHUtQ3YjsYF/1nzjowH3m/h+6vzn5L/xL+IGqHUV+HPgAibxDeLmefOI7CEjLSO/O1tpz6qMHBYqD8H+OvHE2oyRfAn4HpJq82qShL++j4l1ScZ3fNn5LSPk8nBGSSQWZ/Qw2HSXtajsl/Xz8l1fkfXZTlyoRjia0bzesIva388v7q6L7T8rkvxA8ezeIZLT4BfAi3kvbW6l2Tzx/LJqc4+/LIw+7bpjOTgYH90Cvrj4a/DfwT+zF4Jn17X51vvEN+qi7u1XMs8p5W2tlOCIweg4zjc2AAFh+Gvw28F/sweCptf8AEMy6h4k1FVW5uUXMk0h5W1tVPIjB+m7G5sAAL33g/wAG614l1qL4jfEiMC+XnTtNPMVhGeQzA9ZjwST0PvgL8fn2f1qtZYLBK9TfXVU0/tz7yfRbvZWim13U6UKkJYvFyfsb6v7VWX8sfLu9orz5YjfCPg/W/FetRfEb4kRbLpOdM0w8x2MZ5DuD1mPBJI4+oAX3GiiuvKMop4Om4Qbcm7yk/ik+7f5LZKySSSPl82zapi6inNJRStGK2iuy/V7t6ttsKKK8i+Kvxk8M/Cy0t4LtJNV1/Ujs07SLQb7u7kJwoCgEqmerkY7AE8H3MNhqlaap0lds8TE4qnRg6lWVkjuPF3jHw14D0G58TeLb+PTdOtBl5ZD1PZVUcsx7KoJPYV8sRaZ4+/ahlS98RJc+EPhbuDw2GTFqGsoDlWnI5igbqFHUcjPyuvReEfg34n8e69bfEz9oN473UID5mm6BGd2n6YDyC65Imm9ScgHu2F2/VVev7elg9KLUqn83SP8Ah7v+9/4D3PGVCrjda6caX8vWX+Lsv7v/AIF2MnQ9C0bwzpNtoXh+zi0/T7NBHDBCoREUegHr1J6k8nmtaiivDlJybbep70YqKSS0CiiipKCiiigAooooAKKKKACiiigAooooAKKKKACoLr/j2l/3G/lU9QXX/HtL/uN/KgDwD9kb/k1X4Of9ifoP/pBDX0NXzz+yN/yar8HP+xP0H/0ghr6GoAKKKKACiiigAooooA//0f38ooooA/Ifxd+0F8Kpdb+J2ofE79ozVvBfjHwlrer2NhpGkXcUdpaW9jM6WKpZiCRL6SRFVrgSlyJS8RCBOPvX9nL47eEPjf4B0u60vxPpPiDxRpumaa/iKLSbhJ4rTULqHMifISApljlCckEKcGvBNQ+JXxI13xh4ssda+OHhn4US6Lq93Y2+g3mnWs14tjC5FpdzS3l5Gz/a4ds6FI1QK4TJZWr7e8JyzT+FtGmuNXh8QSyWVuz6lbokcN6xjUm5jSNnRUlPzqFZlAIAJHNAHg/7S2rfHOPRtH8MfBfwzqGqRa7NLFrOq6VdabDf6XYoFz9jj1K6tY2ubjcUjk3MIQrSFWbYp891j4beJIvh58K9d+F3w8ufDl78KdcN9B4X1C8sRdXVlLa3VhdKt1BdXNsbiRLpp1eW4+dwfNZWcmvtqigD8+Nb+Cfxb8faZ8QPipcaHFoHjDWPEXhfXdE0G7vIZSsPhGSCaGC8ubcywLLdskw/ds6Rh48u2Gqx4x+CvxO/aHb4o+JPFWhH4fT+IfB0XhXQ7K+ura8uPPjnmvXu7prGSeFIjO0KIiyO5RHZgpIWvv8AooA+RvCmjfFv4l/Gnwl8S/iP4MPgSx8CaNqdokMt/a3sl/qWrtarK8P2SSULawx2zbWlKSu0gzGu017H8RvhH4W+I0kN/wCIL7XLWSyheNBpOv6ro8ZDfMTJHp91bpIc9GcEgcA4r1aoLr/j2l/3G/lQB4B+yN/yar8HP+xP0H/0ghr6Gr55/ZG/5NV+Dn/Yn6D/AOkENfQ1ABRRRQAUUUUAFFFFABRRRQAUUUUAFFFFABRRRQAUUUUAFFFFABRRRQAUUUUAFFFFABRRRQAUUUUAFFFFABXi3xO+I97o1xD4J8FILzxVqfyoBhltUYZ8x88bsZIDcADe/wAoAa/8TfiO3hRLfw94dh/tDxRqvy2lsvzbA2R5sg7KMHGcZIPRQxH52+N/G2qXWoS/C74ZyP4h8T+JJDDqmpQtue7djl7a3fjbapjMsvAlxk4iAB7sNh1b2lR2iv6/4Ft29EfV5PlcYRWKxEb3+GL62+1LtBde707knjfxte3dx/wpn4PtJrura7KU1PUYmLSalMSS8cch5FqhyXkJ/ecsTszv+tPhp8NfBv7MPgyXxF4jlXUfFOpKEnnjXdJNIeVtbVTyIwep4LH5mwAAsPwz+Gvg/wDZh8HSeI/Eki6n4t1RRHLLGN0ksjcraWinkRg4yeCx+Zv4VHp/gzwVrOtaynxG+JChtWI/0Gx6w6dEeQAO8p7t2Pv0+Rz/AD+tWrLA4FfvN9dVTT+3O28n9mPyVops9W0KkJYzGSfsr6vaVWS+zHtFdXtFd3ZDfBvgvWtf1mP4jfEhAdTxnT9P6xafGeRwesp6knoffAX22iiuzKMopYOlyU7tt3lJ6yk+rb7/AIJWSskkfJ5tm1XGVOedkkrRitoroku34t6u7bCiq15eWenWk1/qE6W1tbo0kssrBERFGWZmOAABySa+RtS8e+O/2hb+48L/AAbnl0DwXC5i1DxOyFZbjBw8OnqcHPYycY9V43/R4LL51ryvaK3k9l/m+yWrPm8dmMKFo25pvaK3f+S7t6I674ifG7UpPEEnwt+C1kniPxmwxcSk5sNKXoZLqQcbl7RjnPB5wrdD8KvgjpvgK7uPF3iO9fxN431MZvdXuhl+esVup4iiHQBeSOOgCjt/h38NvCHwt8Px+HPB9kLWAHdLI3zT3EneSaTq7H8h0AAwK7yunE5hCMHQwqtF7v7UvXsv7q+d2c2Gy6c5rEYt3ktkvhj6d3/eevayCiiivHPZCiiigAooooAKKKKACiiigAooooAKKKKACiiigAooooAKguv+PaX/AHG/lU9QXX/HtL/uN/KgDwD9kb/k1X4Of9ifoP8A6QQ19DV88/sjf8mq/Bz/ALE/Qf8A0ghr6GoAKKKKACiiigAooooA/9L9/KKKKAPzVtPBfjTwP438Y6dqPwI8I+MG8R+ItU1Sw1LU9csItTvbe8uGkQSpPZyuQgO2JQ3yRBI8ZQs36F+FI7iHwvo8V3pMOgzpZ26yadbuskNk4jUNbxuiorJEfkVlVQQAQAOK/ODxV8KLS21j4iaT8RP2err4peK/FOraldaV4liGmzRvZ3UjNp8Jvru5judN+wxlISI0AXy/Nj3Fq/Qf4Z6L4k8N/Djwp4d8ZX/9q6/pek2NrqN5uLfabyCBEnm3NyfMkDNk8nPNAHb0UUUAFFFFABUF1/x7S/7jfyqeoLr/AI9pf9xv5UAeAfsjf8mq/Bz/ALE/Qf8A0ghr6Gr55/ZG/wCTVfg5/wBifoP/AKQQ19DUAFFFFABRRRQAUUUUAFFFFABRRRQAUUUUAFFFFABRRRQAUUUUAFFFFABRRRQAUUUUAFFFFABRRRQAV5f8TPiRb+BbCK0sYv7Q1/Uj5djZqCxZ2O0O6r820HgAcuflGOStPx38XtD8JXH9haVE2ueIpTsjsbbLsrkZHmlQdv8AugFzkHbjkfnR8QPH/ibVvEsvhjw4W1zxz4hc208tsQwhVgVNrbEEqqhciWUHAXKK23zGfsw+HTXtKmkV/X9d3otWfVZTknKliMXH3fsx2c/8oLrL5K7Y7xx4616+1ibwL4Kkk8QeM/E0hh1C8gYO0hfhrW3dflWFQMTSDCFRsUiJSX+sPhn8NPCP7MXhFvEniZl1XxjqyiN3iG6SSRsFbS1U8iMHG5sZY8n+FRB8Mfhn4U/Zj8JnxN4nK6v411hRETEN0ju2CLS1GMhAcbmxljyf4VHsXgjwPq99q4+InxF2za9Kv+i2o5h06I9EQdPMx95v1zkn5PPs+rV631HAL399dqaf2p95NfBD9LyftTlCpB4zGP8AdbaaOo19mH8sI9Xsl3kxvgrwRrGqawvxF+I4WXWnH+h2fWHToj0VR0Mn95u31r2iiiuzKcppYOl7Ondtu7b1cm93J9W/uS0Vkkj47Nc1q4ur7SpoloktFFdEl0S/Hd3bbCuM8efEDwn8NfD0/ifxjfpY2UPC55klc9I4kHLuewH1OACRxHxW+NeifDh7bw/p9rJ4h8X6p8un6NafNPKx6PIRny4h3YjoDgHBxxvgP4Ka3rPiGD4pfHe6j1zxQnz2Wnpzp2kqTkLDGch5BxmQ55GQSQHP1eGy+MYKvinaHRfal6eXeT07Xeh8pisxnKbw+FXNPq/sx9e77RWvey1OUs/CPj39pK7h174nQz+GPh7G6y2Xh9WMd3qAU5SW+ZcFUPURj8MYDt9dabpun6PYW+laTbR2dnaoI4YYVCRxovAVVXAAHoKu0Vz43MJVrRS5YLaK2X+b7t6s3wOXRo3m3zTe8nu/8l2S0QUUUVwHohRRRQAUUUUAFFFFABRRRQAUUUUAFFFFABRRRQAUUUUAFFFFABUF1/x7S/7jfyqeoLr/AI9pf9xv5UAeAfsjf8mq/Bz/ALE/Qf8A0ghr6Gr55/ZG/wCTVfg5/wBifoP/AKQQ19DUAFFFFABRRRQAUUUUAf/T/fyvOvjBpXifXvhL420PwTIYvEWo6HqVtprhthW9mtpEtyGyNuJCpzkYr0WigD8+v+GuP2VR8Ff+Fe/bF/tL+x/7F/4Qf7JN/bX2j7P9n/sv+z/L83zM/us42fxbtnzV9gfCDSvE+hfCXwTonjaQzeItP0TTbfUnLby17FbRpcMWyd2ZAxznmu8+x2n2r7d5Ef2nbs83aN+303Yzj2qzQAUUUUAFFFFABUF1/wAe0v8AuN/Kp6guv+PaX/cb+VAHgH7I3/Jqvwc/7E/Qf/SCGvoavnn9kb/k1X4Of9ifoP8A6QQ19DUAFFFFABRRRQAUUUUAFFFFABRRRQAUUUUAFFFFABRRRQAUUUUAFFFFABRRRQAUUUUAFFFeH+OvjXpOgXEug+FYhrmuKH3IjYtrbZ95p5c4ATksAflAO9k61cKbk7RO3A5dWxM+SjG/fsl3b2S82er694g0Xwxpsmr6/eR2VpF1eQ9TjIVQMlmOOFUEnsK+TfHvxt1TWtOkurC9/wCEO8LMWT+0Zwftt5t+VltYkO4nJP3DxgF5I+RXzJ8QPjVFcawslzN/wmniaVvLt4lVn0+2diAI4IVwbhuAOAIyQCTODmu38C/stfEj4q6injH446lPpVpKFK2KsDfSRg5VGI+S2jA6RqMgZXanFdsoUqH8TWXZf1p6v5RkfU0cNhsFHnupS/ma91f4I7zf95+71Se55fF498U+M7+bwB8BdDuUNyClzcIVa/mjduTc3XEdtEcDKIQOzM+a+sPhj8MfC37Mfhf/AISbxPt1rxzrIEIEI3OztjFrajGQgON74yxxx91a9Rg8RfDL4Q2UfgH4b6Qt3qC8Jp2mJ5khccbriXk5/vM5ZsdRitzwP4D1V9Wb4gfEJluvElwuIYRzDp8R6RRDkbsH5m+uCckt8Rm3ElbGVXg8vac09WtYU/OT+1P+WN/lGN79sqdoPGZimoS1Sb/eVey/uw7u1ktI3drN8D+BdWudW/4WH8RCtx4hnXFvbjmHToj0jjHI34PzN9eTyT7JRWfq2raZoWm3Osa1dRWNjZoZJp5mCRxovUsx4Ar1coyelhKfsaKbbd23rKUnu2+rf/AWlkfG5tm9TFVPbVmkkrJLSMYrZJdEv+C9bs0K+XvG/wAafEHibxDcfC74BQR6v4gi+S/1aT5tO0kHgl3wRJKOcIMjI5DEMo5i58S+Pf2mbmXSPAMtx4U+GysY7rWipjvdUVTho7NWGUiPQuR9f4oz9NeCPAvhX4deH7fwx4P0+PT7C3/hQZZ37vI55dz3Ykn8MCvsFh6WD96uuap0j0X+Lz/u/wDgXY+OeJq433cO+Wn1l1l/h8v73/gPc4j4U/Bbw/8ADJLnVpZ5Nd8U6p82oazefPc3DnkqpOfLjz0QHsMk4Br2WiivIxOKqVpupVd2z2MLhadGCp0lZL+vv8wooorA6AooooAKKKKACiiigAooooAKKKKACiiigAooooAKKKKACiiigAooooAKguv+PaX/AHG/lU9QXX/HtL/uN/KgDwD9kb/k1X4Of9ifoP8A6QQ19DV88/sjf8mq/Bz/ALE/Qf8A0ghr6GoAKKKKACiiigAooooA/9T9/KKKKACiiigAor5g/bD0S/vP2ePHvifSfEWs+HNR8KeH9Z1a0l0bUJtOdrm1sZZYfNeAq7IrqG2bgCeuRxXGeM7nX/iB8RfhH8HrjxDqui6Jq/hvU/EGqTaZezWF7fy6eLC3gg+2QMk6JuvHlk8t1ZyqgnbkEA+0qK/M3S/GvxB8RW3hb4BXvizVI4bj4ka94VutdiuDDqtzo2iWN1qcMJu49rrPIEit5J0KyMqOch2LUviHxt8QPBEHj74E6L4r1OSGHxt4R8P6brd3cNd6rp+m+KRatcxi6m3vJLDumWCWUtIvmJliVBoA/TGoLr/j2l/3G/lXyn8K01f4eftBeK/grFr2qeIPDbeHNK8RWX9s302pXVlcT3V3Z3EQurlnneKUQRyKsjtsYOFwpwPXfiN8XPC3w5khsPEFjrl1JewvIh0nQNV1iMBflIkk0+1uEjOeiuQSOQMUAcf+yN/yar8HP+xP0H/0ghr6Gr55/ZG/5NV+Dn/Yn6D/AOkENfQ1ABRRRQAUUUUAFFFFABRRRQAUUUUAFFFFABRRRQAUUUUAFFFFABRRRQAUUUEgDJ4AoAK5rxT4v8O+DNOOqeIrxLWLoinmSRv7saD5mPrgcDk4GTXhnxL/AGjtA8MRT2PhV4tRu4x8907f6JDwTwwI81sDgKcEnAJb5a+D28XfEr40+KZdP+H9pceItXbCzajMAILZCCOCcRwoCWK/xdCio4weuOGUY89V8q/F/wBfN+TPq8Dw20va418q35ftP1vpFecvkme+/Fv9o64vLaSGe5fw/o0i5W1iYHULtGG5d5BxFG4K98EMdvnAFa8X8GfDz4v/AB+iS38P2o8I+CHZS11MrBZwvRlU4e6cdQTiJTu2eXnbXuXhb9nr4W/CMxeLfjhqyeKfE0x82OzIMsAlY5/d25+aZi38cgCk8lQea+hEb4p/EZFjtIz4E8OkABiAdSmj7BVGBCMfRh23Cvncy4wpUZvC4SLlU/ljZy8nJ35aa85O/wDK+h9EoTnQTgo0qH80rqN12XxVZednbskcT4V8F/BH9m5Ug06F9a8XXC7d+0XWpzMw+6ijiFW9BtyOpYiu5/sT4ofEn5/E1yfB+hSf8uNo4a+mQ9pZuiZHYD2K969C8H/Drwp4IjY6JaZupf8AW3cx8y5lJ6lpDzyeSBge1dxXjRyTFYzXMZ8sP+fcG0v+356Sl5pcsX1Ujw62fYfDyvgo80/+fk0m/wDt2GsY+TfM10aOX8LeDPDPguy+weG7COzQ43sBmSQju7nLMfqeO1dRRXg/xU+N9l4K1CDwT4QsG8U+OtRGLXSrc58sEcS3TjiKMDk5IJHouWH2OV5UrRw2EgklslZJL8kvwPjM0za3NicXNtvdu7bf5tvtudv8R/id4P8AhXoDa/4uvPJRjsggjG+4uZe0cMfVmP5DqxA5rwHSfh144+PepW3i/wCN8L6P4VgcTab4WRiC+OUm1Bhgs2OkfGOhC/MG7H4cfBC9t9eX4n/F++XxN44lGYjj/QtMTqIrSM8Ar/z0xnuMEsW+jq9yWKp4RcmGd59Z9vKP/wAlv2t18KOEq4t8+KVodId/Off/AA7LrfpBbW1tZW0VnZxJBBAoSOONQqIijAVVGAABwAKnoorw2z30gooopAFFFFABRRRQAUUUUAFFFFABRRRQAUUUUAFFFFABRRRQAUUUUAFFFFABRRRQAVBdf8e0v+438qnqC6/49pf9xv5UAeAfsjf8mq/Bz/sT9B/9IIa+hq+ef2Rv+TVfg5/2J+g/+kENfQ1ABRRRQAUUUUAFFFFAH//V/fyiiigAooooA8l+NPwmi+Nfge++H9/4o1fwzperQz2t+dHazWW7tLqF4JbeRry1ugEdXPMYRwcYYdK4S4/ZpsLvQfDdld+PPE0niDwhLO2leIhLp8eq20F1EsU1riOxW0kgdUXKS2zklVbO5VI+laKAPneX9mX4fH4daX8P7K81Sxm0bVH1611uG6B1hNZlkkkmv2uJEdJJpjNKJA8bRsjsmzZhQQfsy/D8/D/xF4E1q81PWpvFd/Hqupazd3KjVptStzEba7WeFIkiktvs8PkCKNI0EagJjIP0RRQB5B8M/g3pHw31TW/Esut6p4r8SeIhbR3urazLDJdvb2YcW9uq20NvBHFEZJGCxxLlnZmLMc16xdf8e0v+438qnqC6/wCPaX/cb+VAHgH7I3/Jqvwc/wCxP0H/ANIIa+hq+ef2Rv8Ak1X4Of8AYn6D/wCkENfQ1ABRRRQAUUUUAFFFFABRRRQAUUUUAFFFFABRRRQAUUUUAFFFFABRUU88FrBJc3MiwwxKXd3IVVVRkkk8AAdSa+O/jF+1hoHhK3m0/wAJSpNcAMpu3GUBHH7lD9856Mw28cBwa1pUJT2/4CPTyzKK+Lly0Vot29EvV/030R9KeNPiD4X8A2H23xDdBHcExQJhp5cf3UyOOxYkKDjJHFfnN8Wf2mfEPja+/wCEW8PwyuLpvKh0yxDSyTMRwJWUbpOT9wALxjGQGrk9L8DfFP41GXxp4u1E+EPCc53S6pqTHz7lCMAQRsQ0mRwvRccKTjFfUPwt8Gaf4etWsfgF4d8gTDZceKdZXM0w7mFSuSD2CqEz95c815GZ8T4PBSVKHv1Xskrt+kVrb+87RW9z7/LMopYaLqULScd6ktIR9G9n/wCBTfSKPDvDv7OFzNbReM/2ktbXw/pP34dGt5P38nA+V2TOCQBuWMM5H3mUivrDwxD4n1TR4fDnwh0GHwF4TjGFvJ4QLiVT1eKDuW673JLdd2a9C8NfCPQtKvx4g8Rzy+JdeOCby9+cIR/zyiOVQDt1I7GvWK8OWCzHHy58bN0oP7MX77XaU1pH0p2t/OzyMdn+FpP9yvbT/mkvcT7xg/if96pe/wDKeb+Efhb4X8JXB1UI+qazLzLqF63nXDMepDHhf+A846k16RXnfjr4s/Dj4a25n8ba/a6Y2Nyws++4ceqwpukb6hcV4r/wuz4rfET9z8FfAM0dlJwuseIibK0x2eOBT5sqnsVP1Wvssm4X9jRUcNSUKffSK9bvd992z8+znin2tZvE1XOp2V5S9LLZdtkj6sd1jUu5CqoJJJwAB3NfP/i39pn4WeGr7+wtJvJvFmuMSE0/RIjfTMw7bk/dgg9QXyPSuVX9nXxH45YXXx28cX3iVGO46VYE6fpg/wBlkjw8mOzHY1fQHhLwJ4N8B2P9m+DtGtdItyAGFvEqM+O7v95z7sSa9X2WCo/HJ1H2Wkfvau//AAFep5XtcdW+CKprvL3pfcnZf+BP0Pnw3/7UPxPBXTbOx+FujS/8trrGoaqUPdYxiJMjs21gehr1j4WfB7wr8KrCcaV5l/rGoHzNQ1S7PmXl5KTks7nJC55CjgdTlsk+r0VjiM0nODpU4qEOy6+rd2/mzfDZTCE1VqSc595dPRKyXyVwooorzD1AooooAKKKKACiiigAooooAKKKKACiiigAooooAKKKKACiiigAooooAKKKKACiiigAooooAKguv+PaX/cb+VT1Bdf8e0v+438qAPAP2Rv+TVfg5/2J+g/+kENfQ1fPP7I3/Jqvwc/7E/Qf/SCGvoagAooooAKKKKACiiigD//W/fyiiigAooooAKKKKACiiigAqC6/49pf9xv5VPUF1/x7S/7jfyoA8A/ZG/5NV+Dn/Yn6D/6QQ19DV88/sjf8mq/Bz/sT9B/9IIa+hqACiiigAooooAKKKKACiiigAooooAKKKKACiiigAooqnqGoWGlWcuoancR2ttCMvLKwRFHuTxQkVGLbslqXK80+IXxX8I/DizeXWrkSXmzelrGR5hHZmzwi/wC03ocZIxXzD8WP2sBFdf8ACJ/DC3mvtRuMqjRRl7mTGSTHFg7FwMl3GcZIUYzXzv4a+FviX4k60114vE3ia9Z97aXZTkWcbE53X1+D857lYmO7tKDla4c1znB5el9bl7z2gtZN9rK7+STfl1Pv8m4JnL97jFZLVxulZd5yekF6u/TQ2fFfxe+Kf7QOo3OkeBrcJo9o2Z7iR/I0yzXPDzzvgOwGCM5J5KJ1FdV8L/gzo1tqA1DQNP8A+Fh+JUb95q+pI0Wi2Un/AExibmZlP8Tc8BlUV9TeFfgPZxWlonjaaK6t7Lm30myT7NpdsfaNcGRvVm5b+Ld1q94t/aC+D3w6aPw9HqKahqUf7qHStHj+13G4f8sxHF8iH/ZZlryaWGznOHyRi6NL+WKTm157xh6vml/hZrnnGGW4CmoJxklstY00/wAJTf8A4Cn150amjfB+0uL6PxB8Rb9/FWrJyonG2zg9ooB8uPqMHrtBr1LVNX0Xw5pz6jrV5b6ZY24+aWeRYYkA6ZZiFFfMv/CVftMfEz5fCPh61+HGkSdL3WT9p1Er/eS0UbUb/ZlH/Aq0tI/Zc8I3V/Hr3xU1bUPiFq8ZyH1SVvssZ7+Vaodir/ssWHtX1WWcKYHLotOSi3vy+/NvvKV9X5uTa7H5hmXFeOzGScIOSWzl7kEv7sbXS8lFJ9yPUv2ofD2q3suifCDQdR+IWpxnaTYRGKxjb/prdyAKo/2gpX3qj/whH7SHxL+fx34qg8A6TL10/QB5l6VP8Ml4+dje8ZKn0r6g03TNN0ayi03SLSGxtIBiOGCNYo0HoqqAB+Aq9Xp/2nSpaYakl5y95/iuVfJX8zzf7Kq1dcVVbXaPux/B8z+creR4r4F/Z7+E/wAP7galpWipe6sW3tqGoMby7Z/7/mS5CMe5QLXtVFFedicXVrS56snJ+buenhsJSox5KMVFeSsFFFFc50BRRRQAUUUUAFFFFABRRRQAUUUUAFFFFABRRRQAUUUUAFFFFABRRRQAUUUUAFFFFABRRRQAUUUUAFFFFABUF1/x7S/7jfyqeoLr/j2l/wBxv5UAeAfsjf8AJqvwc/7E/Qf/AEghr6Gr55/ZG/5NV+Dn/Yn6D/6QQ19DUAFFFFABRRRQAUUUUAf/1/38ooooAKKKKACiiigAooooAKguv+PaX/cb+VT1Bdf8e0v+438qAPAP2Rv+TVfg5/2J+g/+kENfQ1fPP7I3/Jqvwc/7E/Qf/SCGvoagAooooAKKKKACiiigAooooAKKKKACivOfEHxb+Hfhrcuo63A8q7gY4Cbhwy9VYRbtp/3sfWvm/wAUftmeG7ZpLTwjpj304HBkJkKt/tRQb+PrItVUjyQ9pUajHu2kvveh72A4Zx2Jt7Ok7Pq9F+Nr/K59rVh614n8O+HIxLr2pW9gGBKiaRUZgOu1Sct9ADX5v+IPjP8AtBeL4jNbQnw9p0uGSa4kXT4QPaQHdj2aavGbqw0CWZp/H3xRsYmkbLQ6c8l27MeozZJNuz6mYfWvOpZpSq6YOE67/wCnUJSX/gdlBfeezW4YweC1zXGwpeTkk/uk0/uiz9BPGf7WHwx8LRutpM9/MFyhbFvGx9MyfvPyjNfG2t+NPi5+0NriWOmpcQ2BOY44IyG28jdFGTiIHoZpTuwQRkDFO8LeE/htEUl8JeBvF3jG5GStxFpy2Fq5P965mMsgB+or6Z8PfDv4/wDiKwXTRc6d8I/D79bPSVF7qjj/AKa3THaH/wBtG3eorSeX5zXXK4xwcOspyU6vpGMbpPz1t2ZEONchy9P+y6csRU7pNR+c5KNl5RUW+5x+g/Bn4Z/B3SP7T+L3iC00aG4G+SzWf9/dEYP76UfvpzkZKRjaGyVxk132l/GvxD4is00X9nL4cz3mmrxHqeop/ZulqP76A4eYeoG1vavRPBv7Nnwp8IXv9tTac/iLW2IZ9R1mQ31y7j+L958it7qoPvXvIAAAAwBXVlWSZTlrc8PTdWo95zer+7W3Zcyiv5UfGZvnmcZpZYqqqdNbQh0+bVr93yuX95nyl/wof4i/EH998cPHtzd2snLaPoebGwx/ckkx5ky/7wB969y8E/DD4f8Aw5tfsngnQbXSgRtaSJMzOP8AbmbMj/8AAmNd5RXpYnNa9WPI5Wj2Wi+5WX6nmYXKMPSl7SMby/mer+93fyWgUUUV5x6QUUUUAFFFFABRRRQAUUUUAFFFFABRRRQAUUUUAFFFFABRRRQAUUUUAFFFFABRRRQAUUUUAFFFFABRRRQAUUUUAFFFFABRRRQAVBdf8e0v+438qnqC6/49pf8Acb+VAHgH7I3/ACar8HP+xP0H/wBIIa+hq+ef2Rv+TVfg5/2J+g/+kENfQ1ABRRRQAUUUUAFFFFAH/9D9/KKKKACiiigAooooAKiuLiC0gkurqRYYYVLu7kKqqoyWYngADkk1LXjv7Q/h3xB4v+AXxJ8KeE1aTWtZ8N6vZ2SIcM9zPaSxxIp7FmIAPbNAEXw7/aE+EPxW1h9A8C68b6++zG9iSW0urQXVmHCG5tHuYokuoAzKDLAZEBZfm+YZ9guv+PaX/cb+Vfn14P8AiB4I+Mfxd+A6/CeYXg8C6Xqs+uxxRsh0eC40+OzjsLsFR5M73BTEDYf9yzFcKDX1t8RvAXinxfJDdeH/AIia54LjtoXV4NJh0qWOcnkPIdQsLtwQOBsZRjqM80Acf+yN/wAmq/Bz/sT9B/8ASCGvoavnn9kb/k1X4Of9ifoP/pBDX0NQAUVwHxG8Ia3400W30zQPENx4auIblZ2uLfzNzoqOhjby5YW2ksG+9jKjivGR8B/iWP8Amq2o/wDfN3/8n1tThFrWVj1cHgsPUhzVa6g+3LJ/krH1LSEhQWY4A6k18zwfArxy58rVPiZqV3bMMPGBOu4enz3Ug/MGq037JXw1um826u795TyX/wBGJJ/4FAx/Wq9lD+f8GdKwGBXxYn7oP9Wj3LUPiF4A0hzHqvibTLJ14ImvYYyPwZxWFdfGb4V2sZk/4SixuVAz/osouj+UO8mvM7D9lT4dWEwlW91KRB1jL26KfqY7dG/IiurT9nX4RjaZNImkZe5vrsZ+oWYL+lONOkvim36L/gjnTyyO05y+UUvvu3+A8/tD/CUozQ6vLIy/w/YrpCfoZIlH61w91+1r8NrYyRm1vg6g7TJ9mRWI6c+eWAP+7+FeoW/wR+Edt/zKenz/APXxCLj/ANG766Sx+H3gLSyG0zw1ploV6GGzhjx/3yorS+HWyf4fl/wTL63gIfDQlL1qW/KH6nxjqf7VvjrxQDbfDrw1NNvUoWs7abUZY5M/eDhFTH1iYe9cDqXh39rH4mMTfaNeRWspBdb25htogR0ZYmYBT9Lev06VQoCqMAcAClpfWYr4Y2+f6q0l8pIf+sOIp6YSMKXnGKcv/Ap835H5m6f+xt8WNaBPinXtJsVfoQLjUJE/7Zv5MGfouK9i0P8AY2020EZ1zxzrExQbdumCHS42HoyxKxI/4F+NfaFFZRqxjP2kaceb+ZxUpf8AgUuaX4niYyriMTf61XnNPdOclF+sU1H8D5y0j9k74D6VN9rn8NjVbo8tNf3E90zn/aV3KH/vmvZdC8EeDPCwC+GtBsNJC9PslrFB/wCgKK6iitsRmWIrfxajl6ts4cNlmGo/wqcY+iSCiiiuI7gooooAKKKKACiiigAooooAKKKKACiiigAooooAKKKKACiiigAooooAKKKKACiiigAooooAKKKKACiiigAooooAKKKKACiiigAooooAKKKKACiiigAqC6/49pf9xv5VPUF1/wAe0v8AuN/KgDwD9kb/AJNV+Dn/AGJ+g/8ApBDX0NXzz+yN/wAmq/Bz/sT9B/8ASCGvoagAooooAKKKKACiiigD/9H9/KKKKACiiigAooooAKKKKACoLr/j2l/3G/lU9RTIZYZIlO0upAJGcZHpQB8/fsjf8mq/Bz/sT9B/9IIa+hq+P/h18If2nvhn8P8Aw18OdC+JXhKbTfC+m2ml2z3HhG+eZobOFYYzIya8ilyqjcQqgnoB0rs/+EY/az/6KN4M/wDCP1D/AOaCgD6Nor4v+LerftZfCv4V+Mfia3jjwZqY8J6Pf6sbX/hFNQh+0fYYHn8rzP7efZv2bd21sZzg9K7+Lw3+1nJEkn/CxfBg3gHH/CH6h3/7mCgD6Ror5y/4Rj9rP/oo3gz/AMI/UP8A5oKP+EY/az/6KN4M/wDCP1D/AOaCgD6Nor5y/wCEY/az/wCijeDP/CP1D/5oKP8AhGP2s/8Aoo3gz/wj9Q/+aCgD6Nor5y/4Rj9rP/oo3gz/AMI/UP8A5oKP+EY/az/6KN4M/wDCP1D/AOaCgD6Nor5y/wCEY/az/wCijeDP/CP1D/5oK850zWf2stS+LPiL4Xf8Jv4MjOgaNo+r/a/+EU1A+b/a1xqEHleX/bw2+X9h3btx3b8YG3LAH2nRXzl/wjH7Wf8A0UbwZ/4R+of/ADQUf8Ix+1n/ANFG8Gf+EfqH/wA0FAH0bRXzl/wjH7Wf/RRvBn/hH6h/80FH/CMftZ/9FG8Gf+EfqH/zQUAfRtFfOX/CMftZ/wDRRvBn/hH6h/8ANBR/wjH7Wf8A0UbwZ/4R+of/ADQUAfRtFfOX/CMftZ/9FG8Gf+EfqH/zQVHL4b/azjieT/hYvgw7ATj/AIQ/UO3/AHMFAH0jRXxf8JNW/ay+Knwr8HfE1fHHgzTB4s0ew1YWv/CKahN9n+3QJP5Xmf28m/Zv27tq5xnA6V6H/wAIx+1n/wBFG8Gf+EfqH/zQUAfRtFfOX/CMftZ/9FG8Gf8AhH6h/wDNBR/wjH7Wf/RRvBn/AIR+of8AzQUAfRtFfOX/AAjH7Wf/AEUbwZ/4R+of/NBR/wAIx+1n/wBFG8Gf+EfqH/zQUAfRtFfOX/CMftZ/9FG8Gf8AhH6h/wDNBR/wjH7Wf/RRvBn/AIR+of8AzQUAfRtFfFnjbWf2svBviXwF4dPjfwZd/wDCb6zNpAl/4RTUI/s3laZe6j5u3+3m8zP2Py9uV+/uz8u0+jf8Ix+1n/0UbwZ/4R+of/NBQB9G0V85f8Ix+1n/ANFG8Gf+EfqH/wA0FH/CMftZ/wDRRvBn/hH6h/8ANBQB9G0V85f8Ix+1n/0UbwZ/4R+of/NBR/wjH7Wf/RRvBn/hH6h/80FAH0bRXzl/wjH7Wf8A0UbwZ/4R+of/ADQUf8Ix+1n/ANFG8Gf+EfqH/wA0FAH0bRXzl/wjH7Wf/RRvBn/hH6h/80Fec+CdZ/ay8ZeJfHvh0eN/Blp/whGsw6QZf+EU1CT7T5umWWo+bt/t5fLx9s8vblvubs/NtAB9p0V85f8ACMftZ/8ARRvBn/hH6h/80FH/AAjH7Wf/AEUbwZ/4R+of/NBQB9G0V85f8Ix+1n/0UbwZ/wCEfqH/AM0FH/CMftZ/9FG8Gf8AhH6h/wDNBQB9G0V85f8ACMftZ/8ARRvBn/hH6h/80FH/AAjH7Wf/AEUbwZ/4R+of/NBQB9G0V85f8Ix+1n/0UbwZ/wCEfqH/AM0FeefFvVv2svhX8K/GPxNbxx4M1MeE9Hv9WNr/AMIpqEP2j7DA8/leZ/bz7N+zbu2tjOcHpQB9oUV83ReG/wBrOSJJP+Fi+DBvAOP+EP1Dv/3MFSf8Ix+1n/0UbwZ/4R+of/NBQB9G0V85f8Ix+1n/ANFG8Gf+EfqH/wA0FH/CMftZ/wDRRvBn/hH6h/8ANBQB9G0V85f8Ix+1n/0UbwZ/4R+of/NBR/wjH7Wf/RRvBn/hH6h/80FAH0bRXzl/wjH7Wf8A0UbwZ/4R+of/ADQUf8Ix+1n/ANFG8Gf+EfqH/wA0FAH0bRXxZpms/tZal8WfEXwu/wCE38GRnQNG0fV/tf8AwimoHzf7WuNQg8ry/wC3ht8v7Du3bju34wNuW9G/4Rj9rP8A6KN4M/8ACP1D/wCaCgD6Nor5y/4Rj9rP/oo3gz/wj9Q/+aCj/hGP2s/+ijeDP/CP1D/5oKAPo2ivnL/hGP2s/wDoo3gz/wAI/UP/AJoKP+EY/az/AOijeDP/AAj9Q/8AmgoA+jaguv8Aj2l/3G/lXzz/AMIx+1n/ANFG8Gf+EfqH/wA0FMk8K/tZSI0Z+I3gzDAj/kT9Q7/9zBQBa/ZG/wCTVfg5/wBifoP/AKQQ19DV5z8H/AUnws+E/g34ZS3w1NvCej2GlG6Efkif7FAkHmeXufZu2Z27jjOMmvRqACiiigAooooAKKKKAP/S/fyiiigAooooAKKKKACiiigAooooAKKKKAPNfif8SPhz8OtFgPxHugtrrcpsYLNLSfUJ76R0Zmhis7aOaaf92rF1WNsKCW4rf8EeN/CfxF8M2fjDwRqMeqaPfBxFPGGX5onMciMjhXR43VkdHUMjAqwBBFfM/wAd9e0b4d/H34S/FTx3cppvg3TbDxJpdxqU/wAtpYX+oLZSWsk8n3Ylljtp4lkchQxC5y/Ox+yaH1Dw94+8aWcUkWheMPGes6vozSRtF51hL5US3CI4DBLiWKWZCQNyuH6NQB9V0UUUAFFFFAFe8u7ewtJ767fy4LdGkkbBO1EGWOBzwBXl/wAPPjj8L/ipYa7qngrWGuLXwzMINRe6tLrT/szmFbgFheRQkoYXWQOAUKkHdXqc80NtDJcXDiOKJS7sxwFVRkkn0Ar8m5PiV4B+MqftfeAfhJ4w0zXvEnjq3J0G1sbyKWbUVj8K2dvJ9mCMS481HiJXgMCD0NAH6CfDn9oH4R/FjVZNE8Ca419fJai+jims7uyNzZlgn2q1N1DELm33EDzoC8eSvzfMM5/hL4//AAO8aeOm8LeFdbiutfvBPbxS/Y7iGG/GnM/nRWl9JClvefZyzllglk2fOcAbjXzDa+OPCfx5+K/wp/4UfeLcN4R8O6+dUkhRoxoy39nBa21ldEqPJuDOFbyD84EDMVAUE+dfDbxR4c8W+BP2Yfgl4UUr4++Hmp6VJ4h0wRsl1oq6Lplza6lJeDA8lZpW8pC2POMoKbgSQAfdf/DRnwZ/4T3/AIVr/wAJEP7c+3f2X/x63X2L+0du/wCxfb/K+x/asf8ALDzvNzxtzxR4q/aM+DPgnxe3gXxN4iFnq0L2sdzi1upbWze9IFst5dxRNbWjTZHlieWMsCCOCM/n+Nd0n/hRw/Zg8w/8Lg/4WD5n9meW323P/CV/2t/a3Td9l+xfv/tP3MfJu3fLWp8R/FHhzwn4E/ae+CPitS3j74h6nqsnh7TDGzXWtLrWmW1rpslmMfvlhlURuVz5JiJfaADQB+rNFZWhWt7Y6Jp9lqUvn3dvbxRzSZzvkRAGbJ9SCa1aACvIPiD8d/hj8LtUXRfGWoXcF2bUXzra6Zf6gILUs6Ced7O3mWCPMbjfKVX5TzxXr9fG/wC05+034X+GOr6b8GbHxTo/hfxl4stGuBqOt3MNrY6RppZonvn850E8u5WW3t1OZJFJcrGrtQB7n4t+N3wu8FeHdE8U63riy6f4m2f2T9ggn1KbUBJF5ym1t7KOaadfKG8mNGAX5iQOar3Xx4+Edr8OLP4sSeIoZPC2pSJBa3MUcs0lxcSSGFbeK2jRrh7jzAyGBYzKGVlK5UgfJc0/wr+CPi/4A+MbXW4JPhHoHhLWPDthrzzLNYQXMw057Wea6TMS/aYbWZBJkKW+UEbgD5lo9wmhW/g749a5BNbfDYfFnxJ4gM00LpHb6Zqthe2NlqksbKDHbvdyecJHA2rMshwCTQB986F8bPg0/wAM734iaTrdtYeEfDe+1u3lglsjYPbbUNtLazRxzQyruRVhaNXO5Qqncubvg/44/C3x1ouu6/oWtiK18MAvqq6hb3GmT2CeWZhJc299HBNFGYwXV3QKygkEgGvz68Vzp4yi+Jvxy8Jwy6t8O/8AhYPgjV2mtoXlj1Gw8PixXU723jUEzwxFAS6gq4t2KlgM1P8AF+RP2gZ/jx4y+CBPinw+3gHSdHe408GSDVr+0vby+ntbZ1+W4kS0kEbbScNMI+uQAD75+G/x3+FnxavbrTPAusPd3tpBFdtb3Nnd2Ez2kxKx3MUd5DC00DkELNGGjJ4DcivXa+HvDPxB8FfG/wDag8E+L/g/qEes6N4U8Ka5DrV9bKwhifVLjTjZWErYG2cG2mkaFsPGF+YKSM/cNABRRRQB4noP7Q/wm8R+LLXwRY6pdW+r6g8sVml/peoafDeSQKXkS1uLu3iguGVFZtsTudoLAYBNJ4a/aM+DPjDxkvgLw74iF1q8st1Bb5tbqO1u5rLP2mO0vJIltbp4dreYkErsoViQADj5A8c+PPDPxQ+OHw7v/hh8Sv8AhY7LrjOPC8UcDwaAH0+4gfVWktIoriF7bcflv3lUmVlRVfYV4n4b+I9B8R/DX9mz4C+HgR8RfAOuaTJr+lCNhd6ONEtriPUri7BA8pJmLRxuxAmMy7NwYmgD7tvPj/8AA5/iDb/Dy+1uKTxBaaithEzWdw9pDqkkRC2o1DyTaJdtG5UQ+cJTuK7cnBseMP2jPgz4C8Vt4L8V+IhZapD9m+04tbqa2svtjbbf7bdRRPb2nmnGz7RJHuBBHBBr8/r7XtJj+CGu/swyuT8X734gXMkWmeW322c3Hin+1YdWUYybVbNlmNz9xQhUsGG2uh+I3izwx4I8M/tRfCLxqC3jX4i3t/N4e05ome512LVtFtbKwWyGMzeVPG0LhM+SULNtHNAH3V8R/j98JvhNqcOjeO9bayvpbVr5oYLO7vngs0bY11ci0hl+z24YEedNsjyD83Bx6zZXtnqVnb6jp08d1aXUaywzRMHjkjcBldGXIZWBBBHBFfnxZ+NfCv7PXxe8ez/Hu+W0XxN4U8NJp1xOjSJqh0uC6gvbG2bB824Ez7/IHzuJgwUgkj6U/ZX8MeJPBf7Nnwy8KeMIXttZ0rw9p0F1BLnzIJEgUeS+ejRDCEdiMUAe+0UUUAMlljhjeaZxHHGCzMxwFA5JJPQCvC9N/aZ+B2r/AA7ufivpvihJ/C1rfnTPta21zulvQ6xiC3gMXnXDuzKIxCj+ZnKbhzVH9pDwt8UPG3g/T/C3w70/T9VsL6+jGv2d9qMul/bNKVWZ7VLmK2uygnkCJN+7+aEyICpcMv56eCtU8YaI1v49+JHh2x0Lwd4J+M2r32qPYXsmoQ2ZurO/smllU2luI7ayuZrfbPzkOXZIhHyAfpppXx3+EuseAdX+J1t4hig8OaA8sWpT3cU1nJZSwBS8Vzb3CRzwyjcuI3jDncuFO5cxeA/jJ8IvG1j4j13wpqaWy6KVuNaF7aT6Vc2wMIZJ7uC9igmVGhjykrptZE+ViF4+A/Gk6ePYfi38a/BcMuufD7/hMvAWpPNaRPNFqtl4bms5NWubZFBNxFHGoUuoKv8AZ2Cltoq38YJV/aJvPjj4o+BEv/CUaO3w2t9Da70/LwalqS3d1dmyt5F+WaVLdijBCdpnCHDEgAH3l8N/j38Kfi1qFxpXgXWnvL22to73yLizu7CSWzlbal1At5DCZ7dm4E0W+MkgbuRmn4J/aL+DXxE8TL4Q8H+IhfalMlxJbbrW6gt75LVgk7WNzNEkF4sZPzm3kkCjk8c18r674v8ADn7Rvxb8OXnwA1BNRTQPBHiq21C8tlMcdlNrCWUen2M7YAjuPNheQwNh4xGSwGRnkvh34y8KfEKz/Zd+GvgDI8V/Dqe3uPENisTR3GgW2naDd6fdwXykAwNJczRworY80/MuVG6gD9QaKKKACvDrb9ov4W3/AI2u/h/psusX+r2GojSblrXw9rFxZQXp2Zilv4rNrRNokUuzTBFB3MwHNe41+ZPxL1v4WeDvF+qX37PHj3Up/i7qPi22e68MWepXF1BeXMl3Dbagl5pLFoYoBbI5a58uMoEV1lOBkA+ybz9oz4M2Hjv/AIVvdeIgmti9i01sWt01nHqE6ho7OS/ERtEuXDDbA0wkJIAXJAqv8Qf2gPgf4M1y48A+PtbiiuWihF9E9ncXVnaw3pMcX9oTxQyW1qk3IX7S8YYeor4H17XdJt/gv48/ZmuHP/C29a8e30tppZjb7Zd/b/EQ1K01SNcZNtHaskrXGdkYjKlgy7a6z4heMfCnw9s/2ovhp4+yfFnxFuLi48PWLRM9xr9tqOg2mn2kFioBM7R3MMkLqufKPzNtU7qAPuD4j/Hv4UfCW/t9I8da01ne3Fs96ILazu76SKziba91OtnDMYLdW4M0oSMEEbuDiz41+OPwu+H+m6JqviLWt8PiVTJpaafbXGqT3saxiVpbeCxinmkiWNlZpFQooYFiARn5D0Pxh4b/AGc/i54kvPj/AKgmnJr/AIJ8K22n3lypkjvptHS9iv7GBsESXHmzLIIFy8gkBVTg44H4Pyr+zrffA7xR8d5f+EX0dfhrPoS3eoZS303Ujd2t2LK4kb5YZXt1CKGI3GAoMsACAfpj4T8WeG/HXhvTvF/hDUYdW0bVoVntbqBt0csbdx3BByCDgggggEEV0NfL37IVjewfCO61ea0l0/T/ABF4j8Sa1pdtPG0MkWl6nq1zdWeYmAKCSKRZApAwHGQDxX1DQAVnavq+laBpV5ruuXkWn6dp8Mlxc3M7rHDDDEpZ5JHYgKqqCSScAVo18p/tveHfFPin9lzxzpHg1Z31MR2VzttovPna3s763uLoRwkN5rG3jkAj2nf93BzigD1bwP8AGv4dfESDULzwzeXYtdMhFxNcX+mX+mW5gOT50U19BBHLHhSS8bMoHJOCKofDn9oH4R/FjVZNE8Ca419fJai+jims7uyNzZlgn2q1N1DELm33EDzoC8eSvzfMM/Bmqz6h8R/D/wAYPh5+zt401f4keFNY+HWob57y/m1UQ+Ipt8UFrb3c2WSW5gMnnWyttiKp8ke7B9FtfHHhP48/Ff4U/wDCj7xbhvCPh3XzqkkKNGNGW/s4LW2srolR5NwZwreQfnAgZioCgkA+nvCXx/8Agd408dN4W8K63Fda/eCe3il+x3EMN+NOZ/OitL6SFLe8+zlnLLBLJs+c4A3GrH/DRnwZ/wCE9/4Vr/wkQ/tz7d/Zf/HrdfYv7R27/sX2/wAr7H9qx/yw87zc8bc8V8KfDbxR4c8W+BP2Yfgl4UUr4++Hmp6VJ4h0wRsl1oq6Lplza6lJeDA8lZpW8pC2POMoKbgSRlDXdJ/4UcP2YPMP/C4P+Fg+Z/Znlt9tz/wlf9rf2t03fZfsX7/7T9zHybt3y0AfoB4q/aM+DPgnxe3gXxN4iFnq0L2sdzi1upbWze9IFst5dxRNbWjTZHlieWMsCCOCM+21+U3xH8UeHPCfgT9p74I+K1LePviHqeqyeHtMMbNda0utaZbWumyWYx++WGVRG5XPkmIl9oANfqJoVre2OiafZalL593b28Uc0mc75EQBmyfUgmgDVooooAKKKKACiiigAooooAKKKKACiiigD//T/fyiiigAooooAKKKKACiiigAooooAKKKKACiiigAooooAKKKKACiiigAooooAKKKKACiiigAooooAKKK+Ov21U8cX3gHwf4d+Hvim+8Haz4g8XaRp0eo2EzwyR+f5uBJsI8yLeFMkZyrqMEUAfYtFfnP4a/aE8V+LfiRpOvF5NO1HRfhz4uk1vQXlkNnbeI9E1HTYZVlhVwG8ti4ik4YwSgqwEnPt2jfHLxZqI/Z58+0sV/4W1ZvcartjlHksuiPqQFrmU7B5yhf3nmfJxnd81AH1VRX5weHf2lP2ldS8GfD34iXek+FptN+IWvzeGoLGNL2G4tpmlu4re/knaaRGiBtsyW6x7ypyswJ2ri/HT4mfEnXPhN468F+LrTS7/xj8PPHfgm2il09ZrLT9QW71HSr+0YpM9zJASZfKkG+QAruGQcAA/TmivhnxZ+0r8RPgiPH2lfGOw0rXdS8OeHrbxFpU2hQ3NpBdpdXTWAtJ4ZpLuVHjufL/eIXDxvuEYZdp53Qf2pPiolv4uj1nS4tYGl+FNW1+01KLwv4g0Cytb7TYw62N0urqvniYNuSSGVGIjcNGhKmgD9CKK8V+Beu/Fbxd4J07xp8UG0eBvENhY31pY6VBcIbMXEXmSRzzzzSCdvmXBSOILgj5+Gr56179o34u2WkeK/jJp2n6Ifhp4N8SXGhXNhLHcnWrq30++Gm3t7FciYW8ZSYSNHA0DF0TmVWYAAH3fRXwL8JvB3inXv2zfi7418Xz6Fqw8KT6dZadI2kzf2jY2t3pwlhis7uS8kWAbJWFzth/fuWceUpCDO/aA8Q6JH+03p3hrxtrXjS10I+DJLu2s/CE2v+Y2oDUPLErwaHuLHy8qGnUx9AT0FAH6F0V+Z2l/Hb45/Dv4T+C9F8Y67YQePv7HuNQu9L1bQdW1zWri3F1Olk12miN/oe+3SNZZpI5P33mfKSrCvTrX9ob4rfEzXfhLpXwistG0u3+Jfgu68VXE+sw3F4dOMLWAVFjt57fzwDdGNl3Rkkhw4ClHAPuOivzO0rxb8atO+G/wC1H4r8Z6zofi7w74UuvFqx6NqOmXlwshtNKhnitjJJqDRiwKnZJbCEbtzkOu/aPSPjH+0T4m+Hdpptv4M1bQory28PW+rS6GdB1nWLp9yuVUvpTMun27hNkcs0cgyG4IWgD7por4l8C+MrT4i/tNeA/iDYQtbW3if4UPqkUTnc0cd7qFjOqkjGSofBNcd+1t4z8f8Agr43fDXxN4T1rULbSvCmia/4j1fS7WeVbbUrDT7vSorxZ4FOyZ4rK4uZINysVlClcGgD9C6K/OL4c/E3xR43/bGbxqvie6Pw61fQPE1tpNiLtxpUlv4dvNMtn1Lyt3ktJJdTXgWbGTAI8NtNbvw0/ap8W+Kvih4d+H1zquj+IbTxvaai2malpmga3p1nbXVlB9oTFxfubfUoHjDnfbSxNwPl2tuUA/QCivzR+DHxd+O3g79mbw14s8TavpvjbWvF2rxaDoKXFveW8sd9fapPbebqV7LeXTTQRqN6rHFGwRBGCxIYdl+0ZH8atP8AAPgceL7rQNc8RD4heFjpzafbXWm2ZY3ahVuEmnvJAFf7zI5JXooPFAH35RXwh4j/AGoPH/wq0b4m6V8R7DTNb8TeCbjw9DYTaRbXkFpejxPL9mtPMtd17cq0MyuZFiaRpEUeWu9gtZWjftPfGeTR/HMFv4Uk8Y6noeipqumXdn4Z1/QLaaYziGa0ktdTR5ppIVZZ1+zyM0yB1VEcDIB+glFfPv7P/wATNR+JWk6tdan4u8P+KprCeOJv7EsLvSprRnTcYryyvri4nik6FdxTcM/KMV9BUAFFFFABRRRQAUUUUAFFFFABRRRQAUUUUAFFFFABRRRQAUUUUAFFFFABRRRQAUUUUAFFFFAH/9T9/KKKKACiiigAooooAKKKKACiiigAooooAKKKKACiiigAooooAKKKKACiiigAooooAKKKKACiiigArgPH3w50T4jL4dXW57iD/hGdZs9ctvs7Iu+5sSxjSTej5jO47gu1j2YV39FAHgFr+zZ8OLL46a78frf7Wut+JdFk0TULHzEOmzxzNbmS4MPl7xcOlrDEziQKyIAULDdXLeCv2TPCHgrxL4H8Rx+K/EmsL8N1uYfD9lqF5BLaWNpc2j2ZtgqW8byIkTDY8rvKNijzCoKn6oooA8B0v9nLwRpHgvwP4Ftr7UWsPAOtLrtg7ywmaW6WS4kCTkQhWjzcvwio2AvzcHOb48/Ze+H3xEt/HNrrt/qkUfxA1PRNV1D7LcJC0c2hC2Futu4i3xo4tU8w7i/LFHQ7Sv0hRQB85ad+zF4Fe18XReO9T1bx7deNdPi0m/u9cnia4XToC7RWtubSG2SFEeRpAyIJDIQ7OzBSLdh8AGTQ9e8N+JPiJ4q8UabrukXeimHU7qzcW1veIEeSMwWcJknVRhZbgzMMnOdzZ+gqKAMTw1oNn4V8OaV4Y095JLXR7SCzhaUgyNHbxiNS5UKCxCjOABnoBXz9q37KngXV/EOoX8ut63D4d1nV49e1DwzFdQjRbzUkkSczSxmA3GHmjWWSJJ1hkcFnQ5OfpyigDgPDXw50Twr408Y+O9PnuJL/AMbTWU96krIYY2sbZbSMQhUVlBRAW3M2WyRgcUH4c6Ifikvxc8+4/thdGOh+VuT7N9mNyLrft2b/ADN4xnft2/w55rv6KAPAvHv7PegeOvGd144i8Sa74bvNW02LR9Vi0i6hgh1OwgeWSKKfzIJZEKGeULJbvDKA5G/piX4ffs8+C/hveeBr7Q73UJ5Ph/4Zm8KWAuZImEtjPJayNJPsiTdMDZx4ZNi4LfIcjb7xRQB846x+zT4b1Y/Eexj8Ta3YaF8UrbUIdY0iCSzNn9o1KzSxnvIGltJLiOfykBA84xbuTEelVfFf7LvhTxNq19qlr4n8QeH01vSLXQ9YttMuoIYdVs7JZEhFwZLeSRHVJnXfbvCxBwSRX0xRQB4n4F+A/hD4fax4U1rRry+mn8H+FIfB9otxJEyPp8DQOskoSJCZyYFyylU5PyDjHTa58MPDfiL4haN8SNUaaW+0XStT0eO2Jja0lttWe2kn86NkLM2bVAuGC4LBlbIx6NRQB4xP8A/hs+vaNq9np406y0LQNT8NW2lWaxW+nDTtVe3edPJjQMpH2ZAmx1ADNkEkEcD4L/ZQ8LeDvFPgjxXN4v8AEuvzfDqG4tdDt9Su7aS2tLS5tTaNBshtYi4WMjEjs0uVXdIVBU/UtFAHzJZ/sr+DLXwZq/w5m8Qa5deGLy7W/wBNsXnto/7CvEu2vkn025ht47pHS4behmmmChQoG3cDvt8A7XUtI0rS/GHjTxD4pk0fXdO1+3utQlshMJ9McSQw4trSCLySw+cCMO2fv55r3yigDwzxP+z18PvGOpeOtR8RfbLr/hYFrpNtexiYRLbtojyyWc9o8arLFNHJL5gfe2HRCoGDlul/BXV7DStU06++KPi/VZ9Qhjhhu7i6sUnshFIsga3FtZQxFyVCs00chZcqcgnPutFAHkXwz+D2l/DfVtf8TSa5qnijxF4n+yJf6pq8lu1xLFYq620QS0gtoESLzZCAkQJLksScY9doooAKKKKACiiigAooooAKKKKACiiigAooooAKKKKACiiigAooooAKKKKACiiigAooooAKKKKAP//Z;" vertex="1" parent="1">
          <mxGeometry x="-127" y="105" width="640" height="480" as="geometry" />
        </mxCell>
        <mxCell id="5Z_fXDEKwbZJyF92QmT3-2" value="&lt;font style=&quot;font-size: 16px;&quot;&gt;&lt;b&gt;研究目的：&lt;/b&gt;&lt;/font&gt;&lt;div&gt;&lt;font style=&quot;font-size: 16px;&quot;&gt;探究算法复杂度对计算延迟的影响&lt;/font&gt;&lt;/div&gt;" style="text;html=1;align=left;verticalAlign=middle;whiteSpace=wrap;rounded=0;" vertex="1" parent="1">
          <mxGeometry x="483" y="167" width="345" height="30" as="geometry" />
        </mxCell>
        <mxCell id="5Z_fXDEKwbZJyF92QmT3-4" value="&lt;font style=&quot;font-size: 16px;&quot;&gt;&lt;b&gt;实验结论：&lt;/b&gt;&lt;/font&gt;&lt;div&gt;&lt;font style=&quot;font-size: 16px;&quot;&gt;由于组合爆炸的影响，组合数对计算延迟的影响远大于算法复杂度的影响。&lt;/font&gt;&lt;/div&gt;&lt;div&gt;&lt;font style=&quot;font-size: 16px;&quot;&gt;&lt;br&gt;&lt;/font&gt;&lt;/div&gt;" style="text;html=1;align=left;verticalAlign=middle;whiteSpace=wrap;rounded=0;" vertex="1" parent="1">
          <mxGeometry x="483" y="222" width="345" height="90" as="geometry" />
        </mxCell>
        <mxCell id="5Z_fXDEKwbZJyF92QmT3-6" value="&lt;font style=&quot;font-size: 16px;&quot;&gt;&lt;b&gt;实验结论分析：&lt;/b&gt;&lt;/font&gt;&lt;div&gt;&lt;font style=&quot;font-size: 16px;&quot;&gt;举个例子，比如探究算法复杂度为`O(n)`算法和`O(n^2)`对相同数据生成频率的单个Kleene Pattern的计算，由于组合是爆炸性增长的，假设数据生成速率为`n=10/second`，那么组合数结果是`2^20=1,048,756`而算法复杂度的区别仅为`O(n)=20,O(n^2)=400`差值可以看为乘以一个常数系数，仅当算法复杂度为`O(2^n)`时，影响比较明显，但是这个时候问题大多数本身就是个组合问题。&lt;/font&gt;&lt;/div&gt;&lt;div&gt;&lt;font style=&quot;font-size: 16px;&quot;&gt;&lt;br&gt;&lt;/font&gt;&lt;/div&gt;" style="text;html=1;align=left;verticalAlign=middle;whiteSpace=wrap;rounded=0;" vertex="1" parent="1">
          <mxGeometry x="483" y="303" width="345" height="259" as="geometry" />
        </mxCell>
        <mxCell id="5Z_fXDEKwbZJyF92QmT3-7" value="" style="shape=image;verticalLabelPosition=bottom;labelBackgroundColor=default;verticalAlign=top;aspect=fixed;imageAspect=0;image=data:image/png,/9j/4AAQSkZJRgABAQAASABIAAD/4QBMRXhpZgAATU0AKgAAAAgAAYdpAAQAAAABAAAAGgAAAAAAA6ABAAMAAAABAAEAAKACAAQAAAABAAACgKADAAQAAAABAAAB4AAAAAD/wAARCAHgAoADASIAAhEBAxEB/8QAHwAAAQUBAQEBAQEAAAAAAAAAAAECAwQFBgcICQoL/8QAtRAAAgEDAwIEAwUFBAQAAAF9AQIDAAQRBRIhMUEGE1FhByJxFDKBkaEII0KxwRVS0fAkM2JyggkKFhcYGRolJicoKSo0NTY3ODk6Q0RFRkdISUpTVFVWV1hZWmNkZWZnaGlqc3R1dnd4eXqDhIWGh4iJipKTlJWWl5iZmqKjpKWmp6ipqrKztLW2t7i5usLDxMXGx8jJytLT1NXW19jZ2uHi4+Tl5ufo6erx8vP09fb3+Pn6/8QAHwEAAwEBAQEBAQEBAQAAAAAAAAECAwQFBgcICQoL/8QAtREAAgECBAQDBAcFBAQAAQJ3AAECAxEEBSExBhJBUQdhcRMiMoEIFEKRobHBCSMzUvAVYnLRChYkNOEl8RcYGRomJygpKjU2Nzg5OkNERUZHSElKU1RVVldYWVpjZGVmZ2hpanN0dXZ3eHl6goOEhYaHiImKkpOUlZaXmJmaoqOkpaanqKmqsrO0tba3uLm6wsPExcbHyMnK0tPU1dbX2Nna4uPk5ebn6Onq8vP09fb3+Pn6/9sAQwACAgICAgIDAgIDBQMDAwUGBQUFBQYIBgYGBgYICggICAgICAoKCgoKCgoKDAwMDAwMDg4ODg4PDw8PDw8PDw8P/9sAQwECAgIEBAQHBAQHEAsJCxAQEBAQEBAQEBAQEBAQEBAQEBAQEBAQEBAQEBAQEBAQEBAQEBAQEBAQEBAQEBAQEBAQ/90ABAAo/9oADAMBAAIRAxEAPwD9/KKKKACiiigAooooAKKKKACiiigAooooAKKKKACiiigAooooAKKKKACiiigAooooAKKKKACiiigAooooAKKKKACiiigAooooAKKKKACiiigAooooAKKKKACiiigAooooAKKKKACiiigAooooAKKKKACiiigAooooAKKKKACiiigAooooAKKKKACiiigAooooAKKKKACiiigAooooAKKKKAP/0P38ooooAKKKKACiiigAooooAKKKKACiiigAooooAKKKKACiiigAooooAKKKKACiiigAooooAKKKKACiiigAooooAKKKKACiiigAooooAKKKKACiiigAooooAKKKKACiiigAooooAKKKKACiiigAooooAKKKKACiiigAooooAKKKKACiiigAooooAKKKKACiiigAooooAKKKKACiiigAooooA//R/fyiiigAooooAKKKKACiiigAooooAKKKKACiiigAooooAKKKKACiiigDz34r/EnQvg78N/EXxR8TQXNzpXhmzkvbmKzVHuHjiGSI1keNC3oGdR71x/w++MniDx3rFvp158LPFfhWzuYWmXUNWGki0AC7lU/ZNSuZtz/w/usepFcF+3T/AMmf/Fv/ALF+7/8AQa8X+O/w98e+Ff2RPinq3if4n6z4yspvBF/HHp+oWWkW8ELtArLKr2NjbTFlVSgDSFSGJILBSAD9FsjOO9LX5JfHn4Z6N8IfhF8LV8DaPbix8b6xotn401C91WfS31eBbSaSCHVNWVLiWKCe6YK7bSuWEQ2o9W/DnhX4qfC+4+KXiD4S6H4Z8DWUngDVZ7Twx4b8RPrbSa9ajfZajBZtZ2qwnazRSFFxI3l7snmgD9YqK/EzxH4Q/Zu0P4efsx+LfhrqkEvi3xR428ETXd1BfPPfayz3cMt5JqKmRjKyTYZmkXMMuIwU3bD9lfCzxv4Q+H3x4/aZk8a6xa6MLfVtG1VhdTJETZNodogmUMQWXfE6ZXPzKV68UAfdNFfhZol94juP2df2Q/Btxptlq/gfXrDUxqdhqusS6Fpd/qEEYbT7W8vIoLjKnM8kcDJsmdADnaAfSPEfgzxX4J+An7Ttiln4e8M+Dbvwl59p4Z0LX31uPS73yLhJ5kV7W1+zRXSqpEYTaXjYr/FQB+xdFfmhf/Cvwb8FfGH7N3jbwBbSWHiDxLrMWja3fmeWSfV7W80a6mkF8zsfPImhSRC+djD5NowKzvgv4M+BXxU1D4k+MP2jzYap8RdH8W6xa3Y1m8MU+i2NtcFdOjs1eRDbW5thHJHLEF8wszF2PQA/UCivzV+PXxA1b9kj4q+LvFnhuxe9tvjVpSLo9rGhdT45s/LsraPaOFF7BLEzE9TbMe9faHwJ+F1r8GPhH4Y+G0E32ubR7QC8uTktdX0xM13cMTyTNcO8hzz81AF7wF8VPD3xF13xr4f0S3uoLjwJq39jXzXCIqSXH2eG53QFHctHsmUZYIdwPy4wT6ZX41fGYE/s/wD7bwBwT4qj59P9C0qvo3xF8JvA/wAGf2lvgd/wr+yfT5fG03iHSfEMrTSyyazBFpE14j37SMxuJRNAr+Y+W5YZwcUAewar+1n4Q05PiFqdp4V8Q6p4e+GS6musa1bQWgsBdaRD51zaQ+ddxTyTD7gIiEZfgyAc19LaNqlvrmj2OtWiskGoQRXEauAHCSqHUMASM4POCfrX45+GPhF8L/Cf7MP7Xvibwz4V03S9W0/UfiDotvdW9tHHNFpkMYMdojqARCpUYQcDA4r6e0DVtK8NftY/Di/8Q3kOmWurfCea0tJbmRYo57i3v7KaWJGcgM6xsHKg525PQUAfoBRX4t+IfH+r3XwK/aB8T/DHUFn0XVfjKlpqV/bXr2UQ0WaDSYLyQX8KStBA4+R7lEfZEzSKGAr3D4HfDzXvCnx68J694G8O+Dvhx4avdP1CDWdM0DxZJq51qMxLJaXC2b2Nqhmt5Vy1wCXMcjBiRgEA/TSivww8M/Cvwb4d/wCCd0P7QWnW0i/ETw/cXOpabrXny/arJrfX5EWG3O7EcDICrxKAjlnZgWYmvrfXPDnw0+Kf7X/xC8H/ALSAttR0/QdH0SbwjpGrTbLCS0uElOo3sNu7LHNMtyojeQhmjVVAIBoA/Riivyo/aEtLWb4w/Cn4WaPoei+KPhQfDV/PpOlav4hl0rRL/U4LiKMK9wtverePb2zZht5ARhncHKYP0P8Asf8AhTxd4Mbx/ompf2LpvhdtStrjRdC0fXH12PRRLbgXVv50kFu0UUkqiaKHYFTewUY5IB9oUV+evxV0TwF8Rf2yIfh/8fzBd+D7TwZHqHh/S9Sm8vTLvUWvZY7+cozLHNcwQiEKrbjGjFwozur5X1SJfE3wAfwbpWr3l34FsvjnpOjeFr9LqV5U0YX9sgFpd7jI8dvcPPHBKHJAQBWwoNAH7ZV4/wDGn4zaL8EfDuleINY0fUtek1vV7HRLKy0pLd7qa91BzHAo+0z28QDMMEtIMZHbNfN/hDwB4R+C37Z2leEvhhpy+H9C8WeB9TvdRsLd3FtPe6fqNmkF00ZYgzhLiRGk+8wb5iTzWl+3VHrUvg74XReG57e11Z/iT4TFnLdxPPbx3Buz5TSxRyRO8YbBZVkQsMgMp5AB698Of2iPDvj7x5ffCzVfDut+CPGNlYDVF0vXreCKW4sDIITcW8tpPcwSoshCNtl3KSMivoCvzg+MngPxX8LtD8eftV/HHVrL4ha3pvhh/D1lpGmWc2h6VbWV/dxec8rtc3dwdzlWll8wbIlYKvQjyH4ZaXN8H/2vvhN4S0DV/Bduvjax1v8AtXS/BNpd2kD28Nk1zbS3vm391FK3mxnyJfJikYCXkqSAAfrpeXUNjaTXtwcRQIztjk4UZOK808OfFrR/GvwksPjD4E0vUPEWm6tYpf2Nlaxwx31zHJ91US5lhiDn0eVR718I/sz/AAB+F/jjwr8WfGXjHQIvEmszeNvHFrbNfbrhbW3e7uIHgt42JSNZQ7+ZtUGTeQxIwB4No/gL4S6F/wAEpdd8Y+DNF0qz8Taz4JiXV72zjiW7uJElXcLh0+ZiHByG6GgD9u683+JfxQ0D4V2WgX3iG3uriPxFrul+H7cWqI5S61a4W2heTe6YiV2BcjcwHRWPFfEv7R8GifFP4+T/AAvv9J8FWb+FvDdtq82q+N4ri9jeG7uJ0C2NnFd2aKITETNcGXcpZFxgA14T4F8W6p4u/ZR+EcupasNbj0r4zaLp1ndjztslja+I9lsE+0STTCNYtqxiSR3VAqszEZIB+wHiHW7Xw1oGp+I79HkttKtZruVYwC7JAhkYKCVBYgcZIGe4rxP4KftM/DX46fB+f42eHftej6BYi5N5HqsccFzZraxiZmmSKSVAGgZJlKucxup4JwPRPiz/AMkr8Zf9gXUf/SaSvya+H/wm+Jd/8Mvhj4F8D6PcXPgT49+DfB8fii+g4j0s6PawLqDuQQF/tHTQlquerp60Afpf+zx+0F4Q/aV8ASfETwVpup6VYw31xp72+rQxQXSzW23flIpZlA+YYy2euQK92r8iNP8AE+l+EPgL8VtGudD07VbXxL8ata0GOPVJpLXSLU3mrKsc980BVxbRFRuQEB+EJAY1pfs/eHbDw3+1h4o/Z8uL3wpqvhbXvAN1eazonhexuLXRluBfW9sEntri9vYvPkt7hxJs8stGyb1OVNAH6TfC34l+F/jD4A0b4l+C3ll0TXommtWnjMUhRXaM7kOSDuU12eo3sWmafc6lOGaK0ieVguCxWNSxAyQM4HHNfir8K/Dnhn4d/wDBNO7+KHwf0y00X4jT6GbbWNW0qFF1iOyGqrHqDs8Y80PBbB3BPKFARggV98+Afhb+yz4L0W58QfBO30dNT1HQrry7yxvRcXN/aNGrPLK/ms1zkhCZX3EE9RnkA99+FXxH0P4v/Djw58T/AA1BcW2leJ7KK+tortUS4SKYZUSLG8iBh3Cuw969Ar8UfBvwr8G+Af2Jvgr8fPDttJD8QbG88ISprJnlN2YL7U7a1ls2Yt/x6m3maLyMeXtx8uck9p440vV/iX+058WtA+I/gfw547/sJ9Oi0Oy8TeKJ9EWw0qWzR/tOn2qWNyrGacyGS6RxIrr5fy7BkA/XqivynvfhH488XfBz4NaN4/8AFnhHxnq/hd9b87Qdb1uWfSfENqspgtXa8jj33E+nxeXGZHtpF8x2LgMQa+r/ANkHxZ4J8UfDLU7PwN4Sh8FW/hvXNQ0i7020u1vrBL21KGZ7K5TCywNvG0qiANuXYCDQB9U0UUUAFFFFABRRRQAUUUUAFFFFABRRRQAUUUUAFFFFABRRRQB//9L9/KKKKACiiigAooooAKKKKACiiobkstvKyHawRiCOxx15oAmor4d+Bfgj4v8AxM+CvgH4ja58dfFtvqPinQdM1S5jt7Pw2IUmvLaOZ1jD6M7BAzELuZjjqSea9V/4Uj8Sv+i9+M//AAE8M/8AykoA+jaK+cv+FI/Er/ovfjP/AMBPDP8A8pKP+FI/Er/ovfjP/wABPDP/AMpKAPo2ivnL/hSPxK/6L34z/wDATwz/APKSj/hSPxK/6L34z/8AATwz/wDKSgD6Nor5y/4Uj8Sv+i9+M/8AwE8M/wDyko/4Uj8Sv+i9+M//AAE8M/8AykoA+jaK+cv+FI/Er/ovfjP/AMBPDP8A8pKP+FI/Er/ovfjP/wABPDP/AMpKAPd9d0HQvFGj3fh7xNp1tq+lahGYbm0vIUuLeeNuqSRSBkdT3DAik1bw/oOv6Jc+Gdd0221HR72E289lcwpNbSwMNpjeJwUZCOCpBGOMV4T/AMKR+JX/AEXvxn/4CeGf/lJR/wAKR+JX/Re/Gf8A4CeGf/lJQB7ze6HompaPJ4e1HT7e60qaLyHtJYke3aLGPLMTAoUxxtIxiuW8F/Cr4X/Dc3DfDvwfo/hY3YxMdK0+3sfMGc/P5CJu555ry/8A4Uj8Sv8AovfjP/wE8M//ACko/wCFI/Er/ovfjP8A8BPDP/ykoAq/ED9lz4b+KZtG1DwhpGk+DtUsPE+i+JL29sdKgW41A6ReJdmCaSLynPnFceYzPtJ3bW6V7Frnw1+HPifxBp/izxL4V0rVtc0jBsr+7sYJ7u12ncPJmkRnjwTkbSOea8n/AOFI/Er/AKL34z/8BPDP/wApKP8AhSPxK/6L34z/APATwz/8pKAPWz8Ovh83g9Ph43hjSz4VijEKaQbKD+z1jByEFts8oKDyBtxmsvR/g98I/D3hzUvB+geCND0zQdYQxX2n2um2sNndRkFSs8CRiORSCRhlIwTXnH/CkfiV/wBF78Z/+Anhn/5SUf8ACkfiV/0Xvxn/AOAnhn/5SUAe4XvhfwzqR0ptR0izujoUy3GnmW3jf7HMkbRLJb7lPlOI3ZAyYIViucEiuY8R/CH4TeMddt/FPi7wVomua1ZhRBfX2m21zdRBDldk0sbOuD0weK82/wCFI/Er/ovfjP8A8BPDP/yko/4Uj8Sv+i9+M/8AwE8M/wDykoAueL/grrPxA+Lnhjxx4x8Sx3fhPwVdf2ppPh+KwEZGqi3a3S6urxpnM3kiSRoUWKLYzAktt5+ga+cv+FI/Er/ovfjP/wABPDP/AMpKP+FI/Er/AKL34z/8BPDP/wApKAPW7z4c/D3UdP1zSdQ8L6XdWPiaUT6tBLZQPFqEwVFEl0jIVmfbGg3SBjhVGeBW1f8Ah7QNU1PTNa1PTLW81HRXlksLmaFJJrR5ozDI0EjAtGzxsyMUILKSp4JFeFf8KR+JX/Re/Gf/AICeGf8A5SUf8KR+JX/Re/Gf/gJ4Z/8AlJQB7EPAfgcaRrPh8eHdOGl+I5bmbVLT7JD9nv5bwYuHuYtuyZph/rC4Yv8AxZqr4o+G3w68caVaaF418LaV4g0ywZWtrXULGC7ghZBtUxxyoyoQOAQBgcV5P/wpH4lf9F78Z/8AgJ4Z/wDlJR/wpH4lf9F78Z/+Anhn/wCUlAHtGkeDPB/h+z1DTtB0Kw0201aRpryG2tYoY7mV40hZ5lRQJGMaIhLAkqqr0AA57wj8HvhH8P8AUZtX8B+CND8N31yCJbjTdNtrOaQNyQzwxoxz3ya84/4Uj8Sv+i9+M/8AwE8M/wDyko/4Uj8Sv+i9+M//AAE8M/8AykoA9cHw7+H48IN8Ph4Y0seFnDK2k/YoP7PIeQzMDbbPKwZCXPy8sd3XmovGnw0+HHxIgtrb4ieFdJ8Uw2bF4E1WxgvliY4yyCdHCk4GSK8o/wCFI/Er/ovfjP8A8BPDP/yko/4Uj8Sv+i9+M/8AwE8M/wDykoA9b1j4dfD7xD4Yi8E6/wCGNL1Pw7bqix6bdWUE1kixjCBbd0MYCjhQF4HSrXhLwP4K8A6YdF8CeH9P8OacW3/ZtNtIrOHceN3lwqq598V41/wpH4lf9F78Z/8AgJ4Z/wDlJR/wpH4lf9F78Z/+Anhn/wCUlAHrvjL4eeAPiNYRaV8QvDOmeKLKB/Mjg1SyhvYkfpuVJ0dQ3uBmp5vA/gq40jTfD9x4f0+XS9Gmt7ixtGtImt7Wa0YPbyQRFdkbxMA0bKAUIypBrxv/AIUj8Sv+i9+M/wDwE8M//KSj/hSPxK/6L34z/wDATwz/APKSgD3WTw9oE2vQeKZtMtX1q1t5LSG+aFDdR20zK8kKTEb1jdkVmQHaSqkjIFJrXhzw94kSzj8RaXa6ounXUN9bC6gScQXds26GeIODsljblHXDKeQRXhf/AApH4lf9F78Z/wDgJ4Z/+UlH/CkfiV/0Xvxn/wCAnhn/AOUlAH0JeWVnqNnPp+oQR3Vrco0UsUqh45I3GGV1bIZSDgg8EVwPhv4OfCLwdPZ3XhDwPoWhzadLLPbPY6Za2zQTXEZilkiMUalHkjJR2XBZflORxXnP/CkfiV/0Xvxn/wCAnhn/AOUlH/CkfiV/0Xvxn/4CeGf/AJSUAe6aJ4c8PeGYLi18N6Xa6VDd3E15MlpAkCy3Ny5kmmcRhQ0kjks7n5mJySTXDQ/A34J239ufZ/h94ei/4SZDFq2zSbRf7QjLbyt1iL9+u75sSbhnnrXCf8KR+JX/AEXvxn/4CeGf/lJR/wAKR+JX/Re/Gf8A4CeGf/lJQB6r4t+GXw38f3NjeeO/Cek+I59MYtaSalYW949uxIJMTTIxQ5A5XFTp8O/h/HYx6ZH4Z0tbOHURrCQiygES6mJftAvVTZgXPnfvPOA37/m3bua8j/4Uj8Sv+i9+M/8AwE8M/wDyko/4Uj8Sv+i9+M//AAE8M/8AykoA+hbu0tb+1msb+FLm2uUaOWKRQ6SI4wyspyCpBwQeCKraPo+k+HtKs9B0Cyg03TNOhjt7W1to1hgghiULHHFGgCoiKAFVQAAMAYrwP/hSPxK/6L34z/8AATwz/wDKSj/hSPxK/wCi9+M//ATwz/8AKSgD15vh94CfRtW8OP4b0xtJ16ea61GzNnCbe9uLlt80txFs2SySN8zs4JY8kk1T8L/C34ZeCJ7e68F+EdH0Ca0t5bSF9PsLe1aK2mdZZYUMSKVjeREdkGFZlUkEgGvLf+FI/Er/AKL34z/8BPDP/wApKP8AhSPxK/6L34z/APATwz/8pKAPUdC+Fnww8L+INS8WeGfCGj6RrmsKyX1/Z6fb293dK7B2E80aK8gZgGIYnJGetVfDXwe+EfgvUL3VvB3gjQ9CvtSRo7qew022tZbhHOWWV4o1Zwx5IYkHvXnH/CkfiV/0Xvxn/wCAnhn/AOUlH/CkfiV/0Xvxn/4CeGf/AJSUAewf8IB4E/4Riz8E/wDCOab/AMI7p/kG2037HD9igNq6yweXb7PLTynVXj2qNrAFcEA1Q8afCz4Y/Eg2x+InhDR/FJssmD+1dPt77ys8nZ56Ptz7Yry7/hSPxK/6L34z/wDATwz/APKSj/hSPxK/6L34z/8AATwz/wDKSgD0fXvg98JPFWi2HhvxP4I0PV9J0oFbOzvNNtri2tg2MiGKSNkjBwM7QOldhoWgaF4X0m20Hw1p1tpOmWa7ILW0hSCCJc5wkcYVVGT0Arwj/hSPxK/6L34z/wDATwz/APKSj/hSPxK/6L34z/8AATwz/wDKSgD6Nor5y/4Uj8Sv+i9+M/8AwE8M/wDyko/4Uj8Sv+i9+M//AAE8M/8AykoA+jaK+cv+FI/Er/ovfjP/AMBPDP8A8pKP+FI/Er/ovfjP/wABPDP/AMpKAPo2ivnL/hSPxK/6L34z/wDATwz/APKSj/hSPxK/6L34z/8AATwz/wDKSgD6Nor5y/4Uj8Sv+i9+M/8AwE8M/wDyko/4Uj8Sv+i9+M//AAE8M/8AykoA+jaK+cv+FI/Er/ovfjP/AMBPDP8A8pKim+CnxLjheRfj34zyqkj/AETwz2H/AGBKAPpKivF/2cfFGv8Ajf8AZ8+GnjPxVdm/1rXvDekX97cFEjM1zdWkcsr7Y1VF3OxOFUAdhXtFABRRRQAUUUUAFFFFAH//0/38ooooAKKK838cfGP4Q/DK6trH4k+ONC8J3N6hkgi1bU7WxeVFOCyLcSIWUHgkZGaAPSKK8/1z4s/Cvwxo2k+IvEvjLRdJ0rX1R9OvLvUbaC3vVlUOht5ZJFSUMrKylCcggjgitbxV478EeBdFXxJ438Q6d4e0hmRBeajdw2lsWcZVRLMyplgOBnntQB1VFcxqHjbwZpPhc+ONV1/T7Lw4Ikn/ALTmuoo7LyZMbJPtDMI9jZGG3YORijT/ABv4M1bwuPHGla/p954cMTz/ANpw3UUll5Med8n2hWMexcHLbsDByaAOnqC6/wCPaX/cb+Vc94R8b+C/iBpA1/wHr+n+JNLLtELvTbqK8t/MTG5fMhZ13DIyM5FdDdf8e0v+438qAPAP2Rv+TVfg5/2J+g/+kENfQ1fPP7I3/Jqvwc/7E/Qf/SCGvoagAorzr4rWnii58C6jN4NvJLPV7ILdQ+V1l8g72iPqHUEY7nAPGRW14H8WWXjjwnpniqwwI9QhV2UHOyQfLIh91cFfwqebWxwrHx+svDNWfLzLzV7O3ppf1R1dFFFUdwUUUUAFFFFABRRRQAUUUUAFFFFABRRRQAUUUUAFFFFABRRRQAUUUUAFFFFABWbrNxLa6TeXMB2yRROynrggcGtKsfxD/wAgK/8A+uEn8qAK8WgWjRq0k9y7EAljcSAk/gQKk/4R6x/56XH/AIES/wDxVeQ/GT/hpfZon/DPH/CKY2z/ANpf8JP9u6/u/I+z/Y/+2nmb/wDZx3rw/wD42Vf9Uq/8rddlLB88ebnS9WddLC80ebnS9WfZ3/CPWP8Az0uP/AiX/wCKo/4R6x/56XH/AIES/wDxVfGP/Gyr/qlX/lbo/wCNlX/VKv8Ayt1p/Z//AE8j95f1H+/H7z7O/wCEesf+elx/4ES//FVx3jvXfAvw08OTeLPGupXFhpsMsMG5XuriWSa5kWGGKKGAPLLJJIyqiRozMTgCtH4Z/wDCzP8AhCtP/wCFw/2T/wAJbmb7Z/Yfn/2fjzX8ryftP73/AFWzfu/j3Y4xXzX+2r4R03xX4c+GsWo3WoWwHjzwzb5sNRu7A7Lq/ijck2ssRLqOY3+/E3zRlW5rhnGzaOOUbNo918F+Lvh98QLzU9O8MX9/Je6MlnJe29zHf2M9uNQgFxbiSK6SJ1ZoiCUI3IflcK2RXf8A/CPWP/PS4/8AAiX/AOKr8wtW8PeFrf4z/tGW2ofErWfBz+D9H8P3dibbW57WZDBo+0Xt1I0nmXxUxorLcNKhJJkVmkBr3DVvFXx38T/D/wCGvimwj8cWWqa34a0691aHwraeFnt47+4gSSZZhr5EySKzEBY/kAxn5s1JJ9lnQNPUFmluABySbmX/AOKrjfCPif4XfEA3y+A/Ftn4kOmOIrsabqy3n2eQ5wkvkyvsbg8Ng8Gvi74iXHxnn/Zh+Nv9vv44e7Xw9N9n/wCEkt/DcEnk+XL9r+x/8I8Sxfyc7/O6fL5fO6vQbIfD4ftR/Cb/AIU1/Z/2L/hCtc+3/wBl+X5P9jebp39meZ5fGzzt/kZ7eZt43UAfRXjjxf8ACX4Y29rd/EnxlYeE4L5mS3k1bV0sEmdACyxtcSoGKggkDOM1u+Gp/BnjPQ7XxN4P1tNd0e+DNb3thqBuraYKxRjHLE7IwDKVOCcEEdRXj3xR8FeF/i/qngPx34b+JK+HLrQo9RvNKvdOOnXiXcN3EkM0iC7SeGSJVIyyqcbhhlODWp+zD8RNe+JfwuOs+Iri11K503VtW0lNUsYhDaarDpl7Lax30EYLKqzqgYhGKbt2w7cUAei2d94Pv/FWpeCrLULibWdHtra7vIVluCIIrxpFg3yf6sM/kuQm7eFAYqFZSel/4R6x/wCelx/4ES//ABVfE+h+N9O+H3g/9qP4g+MPtv2nR/EuoveGxcR362kWj2C2IgkbAjIt2Ro3OFUksf4q8y+Ft98QtV+NHin9n2/1u80Ky8U+AbzVI1h8ZXnii+027+0w2sN3FezwwzWkhW5LCOOZ4yUVk2/xAH6S/wDCPWP/AD0uP/AiX/4qj/hHrH/npcf+BEv/AMVX56fD/wCN3xI+Ldzp+paPLcf2x8JPBmp3HiTToJJBFd+MWM2nRWVxEhXzFieyuphGwP8ArYXGDtNcv4D1l9P8a/st6rovxY1zxLefEdr2912zudZlu7bUGGgXVw0otS5S3iguSFEEapErbcoZI1YAH6Z/8I9Y/wDPS4/8CJf/AIqvP5PG/wAHovF6fD6XxtpyeKZG2rpJ1mMagzYzgW3m+aTjnG2uh8APeSWOrm98Ww+MGGsakEnhjgiFlGLlwmnMLckM9mP3DM/7xipMgDZr5Z+M9n4T+L/iab9n74e6bYJeQ6np+r+KtcjijRdI+z3Ed4ipIoBfVLnywEAO6KNjNIQPLWQA+ktX8S/C/QPEmneDde8WWem6/q5UWWnXOqrDeXRbIUQwPKJJM4ONqnOD6VV8X+MvhF8Prm1s/H3jPT/DVxff8e8ep6wlm83OP3azSoW544zzXif7Utt4ZtPE3wd1iaKzh1ZvHmio9wyxrcG3WG8IDOfn8sMTgE4BzXX/ABy8b+EtBntPDuheHtN8W/EfxlZvZ6VY3EcTK9mM77i+mKsY9OgMhaQnIYt5catI4BAPUvE2rfD3wVoR8UeMvEdvoOjAoDe3+p/ZbXMn3B50sip83bnntVHVfFXwq0Hwtb+Odc8X2WneG7sI0Op3OrLDYyiQEoUuHlEbBgCRhuQOK+SE+H+i/Cr4ifsw/DXxdqMer6D4Z8P67p9rd3m0QTa5b21ilu4DkqshtheeQuSVXeATjNHwj8Y/Cv4f/DT4g+MPEttbXng/T/iHrf8AwidvDbpdGeaZliEOkQ4IeSW9a7SIQ4HzPyE3EAH2l4efwf4u0i38QeFNZXWtLuwTDd2V+bm3lAOCUljdkYAjHBrhPGPxW+APw81j/hHviB8R9F8M6r5azfZNT1+CyuPLfO1/KnnR9rYODjBxXJ/AXw23wu8H+LPHPxDl07wvP4212XX7uwjuIksdIN3Hb2sNqZsrE0pESNM64WS4kfbkFSfNPj34Yb4f6j8Sv2ifB3xQg8M63Z6NaG90y8t7C70+ZtHinmtYLkTJ9qQz/aGUeTLE53qQGO0UAfTfjDxJ8MPh5a2t74/8V2fhm3vZPKt5NT1VbJJpOuyNp5UDN7DJqx4n1n4deCdDHijxn4lt9A0YlFF7qGpi1tiZBlB50siplh0557V8p6VrfhvxN+0zD4k+LdlaabHqvwv0y70611by/Kt/PvLmTWoh54C70VrRZ+PuBd3Ga8R+Av2D7f8Asx/8J5s/4Rr/AIR/xj/wj/27/VfaPtlt/ZWPN43/ANkeZ5GefL37e9AH6OXmq/D7T/Cx8c3/AIjgtvDYhW4/tOXUtlj5L42yfaGkEexsjDbsHI5o0vVvh7rnhgeNtE8R2+oeHTE839pW+p+bZeVHne/2hJDHtXB3NuwMHNfmv4ZGgeZ4BF99n/4VP/wujxL9hzt/s3Z9k1D+z9n/ACz+z/2tv8nH7vzNm3+GnfEP+w/P+MP9m+R/wq7/AIWd4H/trytv9nbf+Jd/bO/b8nl+Z5P2vHGfM387qAP0i8J638OfHukN4g8C+JrbxHpaO0bXem6mLy3DoMsplhkdAVBGRnIqn4W8V/Czx1bahd+BPFdr4mj0pil3/ZOp/bzA4BOx1tpJCHODhcbjjgV+fn7RHk/25+0h/wAKt2/2Z/wrrRv7e/szG37V9qvvNz5X/Lf+y927HzeX5eeNte/2A8Cj9rP4d/8ACofsH2P/AIQXWf7U/svy/I/sz7Vp39kb/K+XG/7R5H+z5m3jNAH054VuPCXjjw1pnjDwpqM1/pGsW8d1aXCTzKJIpV3KdrkMpweVYBlOQwBBFbmlyzS6NKJ5DK0TTx7m+8QjMoz6nAr59/ZMMi+BfFlvb/8AIHtvG3i2LS8fcFmur3HEf+ws3mqmOMAAcYr3/SP+QRdf9dbr/wBGNQB45+yN/wAmq/Bz/sT9B/8ASCGvoavnn9kb/k1X4Of9ifoP/pBDX0NQAUUUUAFFFFABRRRQB//U/fyiiigAr5X+MXwztNX+IS/FDSvif/wr/X9D8PzWLbodOuYBZTXH2jzrqO+RyIvMhxuQxEhWAkHOPqivPfFvwk+FPj/U7TW/HfgzRfEeo2ChLe51LTra8mhQEsFjkmjdlAYk4BHJJoA+Cfgb8QNE+KvxRg+Inx1stMsJde+F2j3NhHeqqWJtmvb8avJbrc8CKXFrI4JJELRbyRgnm/2ffsn9r/s0f8LI2/2F/wAIV4m/4R7+0fufavtll9ix5v8Ay1/sjd5Wfm8vzMfxV+k/i34bfDrx9bWVl478LaV4jt9NfzLWPUrGC8S3fAG6JZkYIcAcrg8Va8VeBPA/jvRV8N+N/D2neIdIVkcWeo2kN3bBkGFYRTKyZUHg447UAfl/4LGg+f8AC7+0fs//AAqr/hbnjD+y9+3+zdvlaj/ZWzP7vyftvm/ZsfJv8vZ/DR41Ghed8UBp/wBn/wCFU/8AC3PB/wDamzb/AGbt8rTv7V34/d+T9u8r7Tn5N/mbv4q/UTUPBHgvV/C//CD6roGn3vhwxJB/Zk1rFJZeTHjZH9nZTHsXAwu3AwMCjT/BHgvSfC48D6VoGn2XhwRPB/ZkNrFHZeTJnfH9nVRHsbJyu3BycigD5p+Gf9i/8NcfFP8A4QbyP7F/4Rvw1/av2Tb5H9t+dqOM7Pl877F5G/HOzy938Nez/EbSfjJqMkMnwy8T6HoNokLi4j1bRLnVJJH7GN4NSsggA4IKuSecjpXXeEfBHgv4f6QNA8B6Bp/hvSw7S/ZNNtYrO38x8bm8uFUXccDJxk10N1/x7S/7jfyoA8A/ZG/5NV+Dn/Yn6D/6QQ19DV88/sjf8mq/Bz/sT9B/9IIa+hqACvnbwH/xbr4pa58NZf3ela/u1fSP7qs3FzAv0I3BR0UZ719E14l8c/D+oXXhu18aeH1zrng+cajbY6vEn+viPfayDJHfaB3rOqvtLoeBn9KUYRxdNXlSd/WP2l81qvNI9torD8NeINP8VeH9P8R6W2611GFJk9RuHKn3U5B9xW5WiZ7lKrGcVODunqgooooLCiiigAooooAKKKKACiiigAooooAKKKKACiiigAooooAKKKKACiiigArH8Q/8gK//AOuEn8q2Kx/EP/ICv/8ArhJ/KgDUh/1Sf7o/lUlQxsqxJuIHyjr9Kf5sX98fnRYB9FM82L++Pzo82L++Pzp2AfWVq2haJr0dtFrun2+opZXEN5AtzEkwiubdg8MyBwdskbAMjjDKeQQa1AQwypyK+af2ovjtd/ArwZpF9otq1xrXiTV7DSLN20y/1O2tzd3Eccs00OnoZHKRsWjhDo8zgJGS3FID1LxB8H/hL4s1Q654p8E6HrOpGaO4Nze6bbXE5mhQRxyeZJGzb0RQqtnIAAHAr0Wvhzw5+2DoHh3xf4u8K/GfVre1j8O2uiXMN1Y6JqkDGHUNPjuri5vbZvtUtjAsj4BuTGIh8kjl1Y19LeLPjX8G/AUllD458eaB4dk1KEXNqupapa2ZuIDwJYhNIu9D2Zcj3oA9MZQwKsMg8EHvXGeEfhv8O/h+b5vAXhbSvDZ1NxLdnTLGCz+0SDOHl8lE3tyeWyeTWJ4e+MHw7+IGm6xcfCPxNo3ju/0iAyPa6TqlrcnzHVzDHI8TuIvNZCqs/HBPY1zXwK+LXiL4rWXi9PFnhmLwpq3g/X5tCuLWG/8A7SR2itba6Eom8iADIuQpUKQCvDHPAB02r/BL4M+INE0nwzr3gLQNS0fQFKabZXOl2k1tZIcZW3ieMpEPlHCAdB6V6Fp+n2Gk2MGmaVbRWVnaosUMEKLHFHGowqoigKqgcAAYFeV/Ev4h6p4Y8T+AvA/hqGCbWPGurNATcqzRwabYwvd38+1GQlvLQQx84EsqMwZQVMeufH74VeGfGCeBtf1S4sNSe5gshLLp18uni6utvkwNqHkfY1kkLqFQzBixCgZOKAOui+HvhaHxN4g8VC133Hiq0trPU4Xw9tdR2okWNpIWBUuY5TGzfxoFVshFxX8J/Cj4W+Ap0uvAvg7RvDk0ccsKPpun29myxTujyoDCikLI8aM46MUUnJUYgl+LXw9g03xpq1zq6wWvw8eZNeaWKWM2JgtUvXLKyBnX7PIkitGGVgcKSQQOJ8VftOfBHwVdw2XiXxBJaSyafDqsu3T76ZbOxuATFNetFA62avtO37SYySCAMjFAHrWieEvCnhq71S/8OaLZaVc65cG71CW0to4JLy5IwZp2jUGWQgYLvlsd6+YPAn7Ko8PfFTTfij4k1TRJ59EmvLu1g0Hw5BoJuL28ge2a71GaOedruZYJZUUgRKDIzbc4x9IaB8QPBXieDQ5tE1m2nfxLpq6vpsDP5Vzc6ewjb7QlvJtm8tfOjDEoNhdQ2CQK84+Onx10j4K2GjxzQW15rHiGeWGyhvb+LS7JEt4zNcXF3ezhkt7eJAAzbXYu6IqMW4APYdI0HQvD8VxBoGnW2mxXlzPeTpbQpCst1cuZJ5nCABpJXYu7nLMxJJJNeX6x+zl+z14h1248Ua/8L/C2pazeTfaJ7650SxmupZic+Y8zwl2fPO4nPvXEal8f9c0v4f8AhLxAPDmnax4j8dauujaNZaRraXul3MzxTXHnHVDbxgQrBbyuzC3ZgV2qjEitfwd8aPFPiuy8b+H28IRwfEPwHNbwXmhx6mkttMbyFLi1lhv2hj/dSxseXgR1ZGUpwCwB23jX4I/Bf4larFrvxG8A+H/FWpQQrbR3Wq6VaX06QKzOsSyTxOwQM7MFBwCxOMk1T8R/AD4D+MP7O/4S34b+Gtb/ALHtItPsvt2j2dz9ls4c+Vbw+bE3lwpk7Y1wq5OBVb4E/FTUvi/4Ck8W63ocfhvULXVNW0q5so7v7dHHNpN7NZSMs5ig3qzQlh+7XAOPeuN+FX7Rtt8V/iv4l8A6RoL2+h6Tpdpq2may1wGXVrW5urqzMsVv5YKQ+daSeVIZG86PbIoCMpIB63efCz4Y6h4Ot/h1f+ENHufClqFWHSJdPt30+MISVCWrIYlCkkjC8VD4g+Efwo8WeGtP8GeKfBeiaz4f0lkez069062uLO2ZFKKYYJI2jjKqzKCqjAJA4Jryj9of9oOf4HX/AIM0y2sNGnk8YXV3bC61/XBoGnWn2S3NxmW5Nrd8yY2IuwZYgZ5q94l+N+veFfh74R1u48PWOseL/HGoRaZpOlaRq32vT7i4nWWdXGpSW0P+jrawvPJKLY7QCqq52lgD0HRfgz8H/DXhy98HeHPAuhaVoGpTJcXWnWmmWsFncTRlSkksEcaxu6lEIZlJBVcHgVNq/wAIPhN4g8UxeONf8E6JqXiOAoY9TudNtpr5DFgIVuHjMg24G3DcY4rxF/2ojong7xleeNfCc2neNPBep6fo02g2l2l4L291kwrpgs7tkhDxXTXCLveNGjIk3oNnNiL9pmTwpbePLf43eGR4Q1fwFokfiOaCxvhqtve6XL5yrJazmG2ZpRLA8TxPEmHKYZlYNQB7z4x+Hfw/+IltbWfxA8M6X4mt7KTzoI9UsoL1IpP76LOjhW9xg1P4n8C+CPG+hDwv4z8Padr+jAowstQtIbq1BjGEPkyqyZUdOOO1eHeEvj74lTxZB4P+NHgxfAN1qmi3WvadImpLqUMtrp5iF5DOywQGG5t1njZ41EiFSSsjbTWJ4A/aY8Q+J9X8DTeLvAb+GPC/xRWQ+GtRbUUup5X+zPewR39qIYxaSXFrG8sYSWfldjlWwKAPo+88E+DNQ8LHwNf6Bp9z4bMK2/8AZktrE9j5KY2x/Z2Ux7FwMLtwMDik0vwR4L0Pwx/whOiaBp+n+HRE8P8AZtvaxRWXlSZ3p9nRRHtbJ3LtwcnNfMml/tU6pf3WleKpvBLQfDHXvEH/AAjdj4h/tBGuXuXumsILmTT/ACR5dnPdr5Ucn2gvhldolU5Hsfg34h6rqnxT8d/C7xHDBFeeHF0/UtPkgVk+06RqcbpE7h2bMsdzbXMblcKQqNtUtigDtfCfgPwN4B0dvD3gXw7p3hzSndpGtNNtIbO3LuMMxihVEJYAZOMmqXhb4afD3wHbahbfD/w1pnhUaoxe5Ok2VvZGWTBAkfyUUO4ycFga7iigDlvBHgzQPh54S0rwT4XgNvpejwLbwKzGRyF6vI7ZZ5HYlncnLMSx5JqbSP8AkEXX/XW6/wDRjV0dc5pH/IIuv+ut1/6MagDxz9kb/k1X4Of9ifoP/pBDX0NXzz+yN/yar8HP+xP0H/0ghr6GoAKKKKACiiigAooooA//1f38ooooAKKKKACiiigAooooAKguv+PaX/cb+VT1Bdf8e0v+438qAPAP2Rv+TVfg5/2J+g/+kENfQ1fPP7I3/Jqvwc/7E/Qf/SCGvoagApGVXUo4DKwwQeQQaWigD54+FTN4C8a+IPg/dHbZox1XRs9DaTt+8iX/AK5v+J+Y9K+h68G+Oel3unWWlfFLQoy+qeDZ/tDqvBmsZPluYz7bec9hux1r2nSdUstc0u01nTZBNaX0STROP4kkUMp/I1lT0vE+dyT9xOpgH9jWP+CWy/7dd4+iXc0KKKK1PogooooAKKKKACiiigAooooAKKKKACiiigAooooAKKKKACiiigAooooAKx/EP/ICv/8ArhJ/KtisfxD/AMgK/wD+uEn8qAPP/iN8FPhp8X49Lb4h6QdVOkrJ9mxcTweX5+zzP9RImc7F+9nGOMZNeY/8MV/s1f8AQon/AMGF/wD/ACRX1FD/AKpP90fyqSuulj68I8sJtLybOOrl+HnLmnTTfdpHyz/wxX+zV/0KJ/8ABhf/APyRR/wxX+zV/wBCif8AwYX/AP8AJFfU1Faf2pif+fsvvZH9k4X/AJ9R/wDAUcp4J8E+Gfh14Zs/B/g+z+waRYeZ5MPmSS7fNkaV/nlZnOXYnknrgcYFeWftCeCfE/jjSPBNr4WsvtsukeMvDmq3Q8yOPy7KwvkmuJcyMobYgJ2rlj0UE8V79RXFObk3KTu2dsIKKUYqyR8C+JfDPxz8KfFj45a34W+Gq+LNK+JNnpNppt0uo2FsFmtdONtIbxLiVX+yq8hB2K0nDbYmDBh69pPwD8X6d8OvAXgnTviTqfh9/B+gafo87afY6Tcx3ctlAkRnY6lY3ciltvAVlGOozk19OUVJR5F4J8D+Kvh3Z6ze6n4t1Xx/NNCr29td2uj2Tq8Ic7IWsbSxQtKSFzMxUEDBUbifFP2aR8WNJ8Z/EpPHfwy1Twpp/jLxHc+ILW9ur/SLmKON7KxtFt5Esr64lEpa3dshCgXGXBOK+yKKAPmv4x6Tfad8Xfg/8To4JLjT9H1DUNFvvLUuYItft1ignYD+AXcEETH+ES7jwCa+RPj98Gv2kfiJL4+0gaLruvXV9rNtc6DeQeJ49P8AD0OkQS28qQNpaXMJluk2Pu+0QMjP+8EvCrX6n0UAfB3x3+BvxH8W/GCK18Haelx4B+J8OlWvjeYzxRm1i8P3f2lGETsHkOoWztZP5athVUuABmuT+O1z4s+EGofH7W00Kz1zQfiHocN41/LqdlaJpLW+ltpzx30FxIs7wMIfMiNvHKXdnj2g81+jtcH4j+Ffww8Ya9Y+KfFvhDR9b1rTAq2l9fafb3N1bhGLqIppUZ0AYlhtIwST1oA8k+BumaxpXhD4Q6df+DY2Nj4HtILnXJHgW50+dILJf7PETD7QRcYZ2KkIpgAcbiuMb9or4Wa34m8efCv4vaD4Zj8azfDe+1F5tFaW3hluINTtfIM1u12yW5nt5UjkVZXQEbiHVgtfWFFAHwZofwX1W1+FXi1vG3w1m1Z/EvjGbxNYeGdI1O3sr7RVeOGKN7a+S5tYoroPE9w5guVAad1V253bv7P/AMJvE3wgi+JvxWl8I3kWseMZrOS28Pf2smqaq0GmQNFF9r1K9uDFLeTySSuxa5aNE2IJCF4+1qKAPgz4LfDz4l+KPg949+C/xL8Ka58NY/EupeIr5NViv9JnkNvruqXF2IoTaXN2VlWGYLIXj2feCseDWz8L/gD8T/AX7S154z1Lxnqmu+EofCOl6TBJcW2i20c8ltdX5FiYbG0t3jitUljljZETcZCjO6rsT7aooA+fdb8X/ESXwz4Z1zVfgxc63qt7FcG+0231HSZptJlyqqhmu57eGZZVJ3NE5I2gFTnj5y0P4DfFbwf8PvBvinSNBtD4h8JeOdU8WweFbW7jWC20zWFvLeXTLW4fy4BLFFeGVT8kPmBkVghDV+h9FAH58a38E/i34+0z4gfFS40OLQPGGseIvC+u6JoN3eQylYfCMkE0MF5c25lgWW7ZJh+7Z0jDx5dsNVjxj8Ffid+0O3xR8SeKtCPw+n8Q+DovCuh2V9dW15cefHPNevd3TWMk8KRGdoURFkdyiOzBSQtff9FAHxM3gb4qfHjx/pfiH4o+EH+H2l+HfDOuaOUe+tL6a81DxAtvDNJB9kkkAtoIoG2NKY5HZxmNQprB8C/D743eIn+CvgL4g+EU8PaX8G5o7y+1db+2uINXudP0yfS7T7BFC7TpHL9oM8n2iOIoF2AMTur73ooA/OjRvg98Z08EeF/2Zr3wqsPhjw14ptdTl8U/brU2tzo2m6t/a9tHHahzdreSbI4JFaIRKdziVhgV9BeB9Kvtf/aX+I3xGaCSDTNK0jRvClq7KVW5ntZLnUbuRM/eRDexRBhxvWReqmvpWigAooooAK5zSP8AkEXX/XW6/wDRjV0dc5pH/IIuv+ut1/6MagDxz9kb/k1X4Of9ifoP/pBDX0NXzz+yN/yar8HP+xP0H/0ghr6GoAKKKKACiiigAooooA//1v38ooooAKKKKACiiigAooooAKguv+PaX/cb+VT1Bdf8e0v+438qAPAP2Rv+TVfg5/2J+g/+kENfQ1fPP7I3/Jqvwc/7E/Qf/SCGvoagAooooAhuLeC7t5bS6QSwzKyOjDIZWGCCPQivAvgxcT+E9W1/4N6nIWfQJTdaaznmXTrhty4PcxscMfU47V9B18/fGq1uPC9/oPxi0qMvN4clEGoIg5l064O2QH1KE5X0yT2rKpp73Y+ez5OjyY+P/Lv4vOD+L7tJf9u+Z9A0VXtbq3vrWG9tJBLBcIskbqchkcZUg+hBzVitT6BNNXQUUUUDCiiigAooooAKKKKACiiigAooooAKKKKACiiigAooooAKKKKACsfxD/yAr/8A64SfyrYrH8Q/8gK//wCuEn8qAOU8ZePf+EJj08f8I9q+u/bFf/kF2v2nyvL2/wCs+Zdu7d8vrg+lcN/wvn/qn3i3/wAFf/2yveIf9Un+6P5VJUOL6M8jFYPFzqOVKvyrtyp/ieB/8L5/6p94t/8ABX/9so/4Xz/1T7xb/wCCv/7ZXvlFLll3Of8As7Hf9BX/AJIjn/C+v/8ACT6Hb63/AGdd6V9o3/6NfxeTcpscp86ZOM4yOeQQa+Sf25NO8Xa54A8G+GfD1/p9tp3iDxh4e03UbfUbKa8hu4rm/iCRSpFdW2633j9/ESfNT5AyctX2tXAfEL4c6J8SbTRLLXZ7iBNB1nTtcgNsyKWudLnW4hR96PmNmUBwMMR0ZTzWiPbpRkoJSd31ffzPgPwhbfGf4ffFX436Z8HrPwraQeEtP8MS3EE9lcwWd1JbaMoFpYW9vcD7DERG215HnEYZF2Phmr3DxV+1lb6X4X8DeL9IfwdYWfjfQ7PXIYfFfjCPw5dpHeRrKipC1jdeaqhgC4ZRuyMd66nxj+yp4Y8W+MfGPjW28YeJvDt14+htbXW4NKvLeG3u7W0t/syQbZLaRowU3ZkjZZgWbbIqnFfQml+FvDui6Pp3h/TNOgg07SbeK0tIQgKw28CBI41znCqoAFBofPnws+K837Qej+KPDz6v4bsfIghj+1eCPF0ev3cH2nzAXd1srf7K3yfu2w+47sbSuTy3wUivLP47eK9C+H/iPW/Enw80PTFs9Sm1jUrjVok8SrcAmGzurx5JSYrfcLpEcxI7RqArhwPprxZ4NtPE/hLWfCdnfXfhz+2bWS1a+0lo7e+gEilfMgkZHVJFBO1ip2nkc15r8F/gU3wTsbTQdI8da7rnh/TrM2dppWoxaRHaW43q3mqbDTrSZpeGBZ5WDb2ZgzkMADm/jRcPrnxn+DHw2u+dIv8AUNT166j/AIZ5NBtke0jb1CXNxHcAf34FPavIPjN+1lrfws8a6odO1XSNe0HQNRsbPUNLtNE1m4vII7l4UmM2swF9Ot54xL5ghmjGRtUurMDX1P8AEb4dXHi7XvBPi/RrpLLWvBWrC9ieRSyTWdzC9pfWzY5HmQSlkPaVIyeAa8f8afsd+B/G/wDwk+n3firxJp3h/wAXakusX2i2V5bx2DakHjkNwu+2efLPErtG0phLfN5ecEAFLx5+0b4k+Hg+MWjavp9pceIPCEWm3Xhe3RZEGqQ68otNNjlUyEs51RJbeRoyo27CFUnnK8WfGT4+f2r8RLTwJbeHGi+Eml2smrrfw3ZfVdUm08ajJFZtHOotYUiePa0onLMxU7QC9ey/ED9nvwJ8SPif4L+LGvy3sWreCWdoILeVEtL351mgF5G0bNILaZBNBtZNsmSdwOK+dv2lvg7428ReI/E8vws8O+I5Lrx1oqWGpT6brOmafol7MqSwRDVI7rN8ohjZQ0lioeSI+WT8ooA+k/hd8QPHHjjw58Pdfv8Aw9AdO8VeGLfWNR1KC5EcdrqE8VtIlrHaPvlZJRLKwfzDsEYVtxYGuX/az0K81L4CeNtd03xDrPh2+8M6Jquq202jahNp0r3FrZSvEJJICsjIrgNtDAEgZyOK7T4f/Ct/BWmeB7Vtev5P+EO8OxaAbOKYJpt2US3X7VLAVJaZPs+Im3Dasjgg7six8Y/hYnxk8EXngK68T6v4Y0/U45re9k0c2izXVrcQvDLbyG8trpRG6uSSiq4IGHAyCAYF9pEvjH4GaM+oza9eTrpVnevHoWovp+qXsqW4YxJdCe3YNKx53TxgnG5wM18meEYPjB8Q/g38afhz4L1fXNH8R2Wr21vomm69qs8fiHR7WSK0lZLrVI3lcrPiaSGSOe4xG23zWYFF+sdN+Ceq6V8PLHwBZ/E3xUkmmXCTW2rCTTBqCRRxeSlsQuni1eBRztkt2bdgljgYh0T4AaV4e8P+JLHS/FniCPxD4tube71HxIbqBtYlltAiwgE2/wBlSNI0EYiW3EewsNmWJIB4d4DHiO30r4qfBG10/W/DHxJfw99usTfeLtS8S28sd7Hc21pc2N/fv5tuUuUZZQIomUhG+YbSKPwT1DXPg54oHgb4qaTrkHiy+8NXOpWt1ceMdU8Uadqi6V5IvhHHqDKLW5DzRttWHGxyFkIBB+gvDHwB0jw43ifVpvFOvax4q8WWcVhc+Ib25g/tKG2t/MMEdr5EENtAsTyvIBHAAXYs4Y4qfwT8CdK8K+Mj8Q/EPibW/HHiSKxk021vNcmtm+x2czpJNFbwWdvawIZWjjMjmMyMEUFsDFAHxT+zh8SfHGpP8LfjD8YLHxAifFSUw2eof8JLNLpwvr21mnht5PD8YS1t7VlR1tZVMsuVjaYq7E1+iHxA8E6H470NNM8Q6hqemWlpKLozaVq99oswMaOuHuLCe3kMeGJKM5QkBiMqpHkHg79lnwN4M1vQby01rWr/AEPwjczXmgaBeXUUmlaTPMkke+3RYUnfy45ZEhWeaVYlY+WFwCO/1b4TW+tfDzxd8OdR8T63La+MH1Tzr1rmN760h1V3Z7e0keJljihVzHApRjGgAySM0AfFvw58E/FPx9+yj411v4beJNebUfiHrB1Dwx/afiLUmubPQYb2GO2VL+eaa5g+02sL3DMjE/v9ozgCpNQ+KOu/BP4U/GnR4dL1bw98RPCegw6zAureJr/xbZvBe+fb2t7aXOouXCRzRSebEYouUGQwINfdGsfD+0u/Alt4B8M6rf8AhC0sIbaCzuNHeKO4tYrTaI0j8+OaMrtQIVeNgVyCK8/0H9nLwPYWXjCHxdfal45vvHtiumazf65NHJcXGnxpIiWqrbRW8EMSiaQhYYk+ZyxJbBAB4Pq0viP9mj4l6JpWl+KNc8Y6Z4i8JeJNQvLbXdQm1FjqXh6O1njuoWmZmgEwnkjkhiKxcoVRSK5zwJJ418Bw/s9fEu68ba34kvvizcW9j4jtb++kubCd9U0e51NZ7O1cmGzFtNbhUFuqAxEq+4/NX038Pv2efDngfxAfFOq+Idb8a6nDpjaNZy6/cQ3P2LTZGV5LeFYYIFIlMcfmSSiSVwihpCBWT4A/Ze8FfD/xBoGsW2ua5rFj4Njni8OaVqV3HNYaIlxGYWFqqQxzMVhLQxm4lmMcZKIQDQB8o6H4j8dx/Cvwb+1ZL4w1qfX/ABD4xsba80l76VtHbSdU1z+yRp8WnE+RG0EEissyp5xlQszkErUnjzxB47vfh58bv2krbxlrOna58M9f1aDRtNt76WHSEsvDrohtriwU+TcG92SGSSVWceYvlsm0V9Tad+yv4E03xPZ6vFrOtSaBpusyeIbPw091EdEttVlkec3McYhFx8s8jTJE05hSU71jBAweJv2V/AnijxHq+qXOs61Z6H4lv7fVNZ8O21zEmj6ne2/lgS3EbQtON/kx+akU0aS7R5itlsgFW5u38MftcaHFYAx2vxH8I6hLfQjjF14durQW07DoGMOoSRM3UhIwThBj6irym1+HVxJ8ab74tavdJMINFi0TSrdFINvFLP8Aab6R2PV55EgUAcKsI6ljj1agArnNI/5BF1/11uv/AEY1dHXOaR/yCLr/AK63X/oxqAPHP2Rv+TVfg5/2J+g/+kENfQ1fPP7I3/Jqvwc/7E/Qf/SCGvoagAooooAKKKKACiiigD//1/38ooooAKKKKACiiigAooooAKguv+PaX/cb+VT1Bdf8e0v+438qAPAP2Rv+TVfg5/2J+g/+kENfQ1fPP7I3/Jqvwc/7E/Qf/SCGvoagAooooAKo6nptlrGm3Wk6jGJrW9ieGVD0ZJFKsPxBq9RQTKKknGS0Z4J8DtSvdJt9X+FOuSF9R8Hz+VC7dZrCX5reQfQcYHQbRXvdfPHxaR/Avi7w/wDGOzUi2tmGmawFH3rK4b5JDj/nlIc+5KjoK+hUdJEWSNgysAQQcgg9CDWVPT3ex4GQSdJTwM3rS0XnB/C/krxfnFjqKKK1PoQooooAKKKKACiiigAooooAKKKKACiiigAooooAKKKKACiiigArH8Q/8gK//wCuEn8q2Kx/EP8AyAr/AP64SfyoA1If9Un+6P5VJWLfWmp3UUH9nX32Lavzfu1k3Zxjr0xWd/ZPib/oOf8Akun+NfMZjn+KoVpUqeAq1EvtRdFJ6dOerGWm2sVqtLqzOulh4Sjd1EvJ836RZ1dFcp/ZPib/AKDn/kun+NH9k+Jv+g5/5Lp/jXF/rTjv+hXW/wDAsP8A/LzT6pT/AOfsf/Jv/kTq686+KPxM0T4UeGE8S61aXeotc3tnptpZWCJJdXd7fzpb28EQleOPc7uOXkRQMlmAFd1Yw3UFqkV7P9pmGd0m0JnJ44HAwOK+Ov21fBHg3xn4c+GsPi7Q7LWo18e+GbYLeW8c4EF5fxRXEeJAfkmT5ZF6MvByK+tw1WVSnGcoOLaTadrrydm1dbOza7No4ppJtJ3PfPh/8V9N8f694i8LJo2o6Hq/hVdOOoW2oC33RPqVsLqOMNbTzozRqdsmGK7gdrMuGr1Svx2+IOlfsx6F8aPj9onxbtYLBdP0vw/b+F7fZJGkM0OjhEj0dIsKt8hEIjEQ80KECfLur6g1bwB8cvGHw/8Ahrd6no93qXiODw1pya26+PNZ8JMupmBDch7fS7aaOZvM3Zkchh90DAFbkn2zq2qWGh6Vea1qkvkWWnwyXE8mC2yKJS7thQScKCcAE+grhfhh8XfAHxk0nUdb+HmoS6haaTfPpt0ZrO6sniu44o5mjMV3FDIf3c0bBgpUhuCea8t+CXhbxZ8N7XxLq/xGsZNCsVhim8678b6t4sjEcAlaVz/asEAtVRSCzRk7x97Gxc+U/sh/GX4T+M/Hnxo0Lwn4v0vV9R1bxnearaW9rdxSy3FgNM0yE3MaqxLReYrJvHG4EZzQB9QfEj4zeAPhPc6NY+M7m9W88QvPHYW2n6XqGrXE7WyCSXbDp9vcSAIhDElQMd67Pwv4l0zxhoNp4k0dLqOzvVZo1vbO50+4AVip3215HDPGcg4DxqSMEcEE/J3xZ8X/ALK3xF0j4efEvx18QJPDljdwXt74a1S31W60FpkuEjjmKTIYJNxVlAjZgWBPyMM49B/ZV8QeL/Evwii1Hxbd3upxJqeqwaRqGpRGC+1DRYbyVNOurhCsZ3y24Q7iimRcSEZbkA9Y0fx9o2u+OfEPgLTIp5bvwvDZPfXG1fsyTXyvJHbBt28zLEqyuNm1UkjO4lsDt6+A7HxDdeAfA37VF5e6E/iXWNN1/UtQl0xWdXvbK80eyNr80QMnlGAeWWQFh5bhRuXFfPnwB0jwb4y+N3ib4R6JqHhfUvAvjr4e6idSg8F6dc2GjNcC8trbkzXVxFNdxxXTh5I1jcBlEi52gAH6/wBFflv8JfEHxI+M+qSCRXfxZ8APCuqaAzyLtWfxtcedYmdS/wArYtbRZVOdu29+teZ/Cz/hQf8AwtD9lwfC7P8AwmP2vUD4q2+d9r/tEeHb7z/7Z38/b/P8zb537zb5uz5KAP2UrxHW/wBo34NeHfF8vgfV/EPk6na3MFlcutpdy2VpdXW3yYLq+jha0t5ZN6bUmmRjuXj5hnd+FF54WvdL19/CniO/8SwReINZiuZdQmkme1vo7yRbmyiMiIVgtZQ0UKKCqooCswANfnB+03pKWGj/ABb+Bnwu+Jlheax8SL2S5Pg5NLN14gGq6nHDkQ3S3KrDZOwSaWWW1cRR79sq/KUAP0L8ffH74XfDHVJNK8bX97YtbwrcXFxHpOo3VlbQvnElxeW9tJbQLwSTLIoA5OBTvHHx8+Fnw7uraz8TanctJdWi6gv2DTb7U0WzYsBcSPYwTrFEdrYkkKrgE5wK+cf2sfHXgxvBOrfDS7+MZ8HeJrXSZ4rjRoYree4103NuuyAwSRNeSLLyg+wyxSfvGG/cF21fiT+0/ovwp8DfDz4Um90f4b+PvFugWc4i1u6jttP8NWnkrHNNM1w6ee8DhooLcHfLInzFY1dwAfZ03jzwbB4Ib4kyazbHwutj/aX9orIHtjZ+X5omV1yGQp8wIzntTfAXjzwr8TvB+mePfBF6dQ0PWYzLaztDLbmRAxQkxTokincpGGUH2r49vPhz4lbwD8IPDP7PlronxB+FnhS0inaO811rJdUubHyxp8z3FvZXsc8McivO6BVDTLGc7UKMv7F/j8eFf2Wfh2/xLjtdAGrX/wDY+keRcS3v2yS7uJPI34t4/JkeXzE2ncgVQxk+baoB7/eftH/B3TvFv/CFahrc1rqH25dM86XT75NPF87+WtsdQaAWYmZ/kVPO3FvlAzxR4t/aK+FvgvxfeeA9Wm1e813Tre3urq30rw/rGr+RDd7/ACGkk0+zuI08zy32hmBO08cV8t/GL9oD4PfFn4nS/s76t460Pwz4c8MapYyeJJtR1C3tbvUL6yuI7mDSrGGV1cgTRobq4AwAPJjy7O0b/wBpbUfgZ4a8R+OfE+k/EbVPC3xlOl20dpp+kalcJd3l1aQyS6bEukpmO/Vnn2lWilXDsMryQAfXXxH+OHwy+E1xY2XjjVZLa81KKaeC2tbK71C5Nvb7fOnaCyhmkSGPcu+V1CLkZYUnij45/Crwh4Z0Lxfq2vLPpnijZ/ZJ0+CfUptQEkRmU2tvZRzTTDyxvJjRgq8nA5r5ck+Ith8Jvj/afEv9oO4h8Kw+Kfh5o1nFd3AZbSLVrG7urjUbBJAGHmt9piZI87pQmFDFK8h+FkifBOP9n/4h/F2NvDPhSLQvF1mJ9QQwQ6Nca1qFtf6dHdFhi3L2UTQjft2svlnBIBAPv26+PHwktPhzZ/FmTxHDJ4X1GRILW5hjmmkuLiSQwrbxW0aNcPceYGQwLGZQyspXKkBdO+O/wl1P4fap8U4PEUUPhrRHlh1C4uY5rWSznhIV4Li3nRJ4pgWUCJ4xISygKdy5/P3R7hNCt/B3x61yCa2+Gw+LPiTxAZpoXSO30zVbC9sbLVJY2UGO3e7k84SOBtWZZDgEml8Vzp4yi+Jvxy8Jwy6t8O/+Fg+CNXaa2heWPUbDw+LFdTvbeNQTPDEUBLqCri3YqWAzQB956N8ffh74p8I+KPFvgx73XG8IQvNf6YllPZaqhWEzon2LUFtZVaVATEXCrJ/Cx5r1Pw/r2keKdB03xP4fuVvdL1e2hvLSdPuSwXCCSN19mVgR9a+Q/hl408J/EP8AaP8AHvxh8C6lDqHgXT/CWj6VdaxAc2Fzf211f3cgjmHyS/ZbeVfMZSQhk2E5BA7v9jewv9O/Zf8AhxBqET25k0qOeCKQbWitLhmltYyD0KQPGuO2MUAfTFc5pH/IIuv+ut1/6MaujrnNI/5BF1/11uv/AEY1AHjn7I3/ACar8HP+xP0H/wBIIa+hq+ef2Rv+TVfg5/2J+g/+kENfQ1ABRRRQAUUUUAFFFFAH/9D9/KKK/I+b4PePvGXgjVPC3jOfTJPFnwh8N2+jeHTDr8U06+Ibmc/8VBP88ZtWfyoTEs37w/vkA+bDAH64V8lftPfEIaS/h/4Y3sGtWeheLPPbWtW0nSdS1N4NNt9gks4jptvPJFcXpcRiQhfLiErqwkEefrWigD8bv2bk8E/GXw7+z78I/EtjLe+CLHQ/FV1Npd/Z3FtZX+q6fc2S26NDcRxrdRwW97I6FQ8W/PJeIhez0e3TXbfwd8Bdcnmufhsfiz4k8PmGaZ3juNM0qwvb6y0uWRmLSW6XcfkiNydywrGcgEV94X37Ofwc1DwVoPw+l0J4dH8LyPNpRt768tryykk372gvoZku0LiRg2JRuB2nI4rRuvgP8JLv4c2fwmk8OQx+F9OkSe1toZJoZLe4jkMy3EVzG63CXHmMzmZZBKWZmLEsSQD8/wDxXbp4Ni+JvwN8Jzy6T8Oz8QfBGkNDbTPFHp1h4gFi2p2VvIpBghlLgFFIVBcMFCggVP8AF+Nf2fp/jx4N+CAPhbw+vgHSdYe308mODSb+7vbyxnurZF+W3ke0jEjbQMtCJOuTX31p3wH+Eul/D7VPhZB4dim8Na28s2oW9zLNdSXk8xVnnuLid3nlmJVSJXkMgKqQw2riTwf8Dvhb4F0XXdA0LRBLa+JwU1VtQuLjVJ79PLMIjubi+knmljEZKKjuVVSQAATQB87eGfh94L+B/wC1B4J8IfB+wTRtG8V+FNcm1qxtnYwyvpdxpwsr+VcndcE3M0bTNl5A3zFiBj6L+I3j3xT4QkhtfD/w71zxpHcwuzz6TNpUUcBHASQahf2jkkcjYrDHU54qD4b/AAI+FnwlvbrU/Aujva3t5BFaNcXN7d6hMlrCS0dtFJeTTNDAhJKwxlYweQvAr1a6/wCPaX/cb+VAHgH7I3/Jqvwc/wCxP0H/ANIIa+hq+ef2Rv8Ak1X4Of8AYn6D/wCkENfQ1ABRRRQAUUUUAY3iLQrDxPoV/wCHtUTfa6jC8Mg7gOMZHuOoPYivKPgZrt/J4fvPAfiB8634NnOnzZ6yQD/j3lH+yyDA9due9e4V87fEL/i3fxM0L4oQ/u9L1jbo+sY+6oc5t52/3SMM3ZQAOtZVNGpHzuc/7PVp49bR92X+GT3/AO3ZWfkuY+iaKKK1PogooooAKKKKACiiigAooooAKKKKACiiigAooooAKKKKACiiigArH8QgnQr8D/nhJ/6Ca2KCM8GgCrb3Fu8EbpIrKVGCCCOlTebF/fX86zG8P6GxLNYQEn/pmv8AhSf8I9oX/PhB/wB8D/CgDU82L++v50ebF/fX86y/+Ee0L/nwg/74H+FH/CPaF/z4Qf8AfA/woA1PNi/vr+dHmxf31/Osv/hHtC/58IP++B/hR/wj2hf8+EH/AHwP8KANTzYv76/nR5sX99fzrL/4R7Qv+fCD/vgf4Uf8I9oX/PhB/wB8D/CgDU82L++v50ebF/fX86y/+Ee0L/nwg/74H+FH/CPaF/z4Qf8AfA/woA1PNi/vr+dHmxf31/Osv/hHtC/58IP++B/hR/wj2hf8+EH/AHwP8KAIINB8O23iG78V29tFFq9/bQWlxcrw80Fs0jwo+DhhG0shXPI3Njg1t+bF/fX86y/+Ee0L/nwg/wC+B/hR/wAI9oX/AD4Qf98D/CgDU82L++v514J4c+A2kaT450z4geJvGOveM9R0BLlNJj1m5tWg077WnlzPClrbW5eRo8x+ZOZXCFgGGTn2f/hHtC/58IP++B/hR/wj2hf8+EH/AHwP8KANTzYv76/nR5sX99fzrL/4R7Qv+fCD/vgf4Uf8I9oX/PhB/wB8D/CgDU82L++v50ebF/fX86y/+Ee0L/nwg/74H+FH/CPaF/z4Qf8AfA/woA1PNi/vr+dHmxf31/Osv/hHtC/58IP++B/hR/wj2hf8+EH/AHwP8KANTzYv76/nR5sX99fzrL/4R7Qv+fCD/vgf4Uf8I9oX/PhB/wB8D/CgDU82L++v50ebF/fX86y/+Ee0L/nwg/74H+FH/CPaF/z4Qf8AfA/woA1PNi/vr+dHmxf31/Osv/hHtC/58IP++B/hR/wj2hf8+EH/AHwP8KAGeING0LxVoeoeGvEMEd9peqwSW11bufkmgmUpJG2CMqykgjuDitOL7LBEkEGyOOMBVVcBVUcAADgACs//AIR7Qv8Anwg/74H+FH/CPaF/z4Qf98D/AAoA1DNCBkyKB9RXPaMyvotxIh3K8lyQR0IMjcirv/CPaF/z4Qf98D/Cr86JFZyRxqFVUIAAwAMdhQB4F+yN/wAmq/Bz/sT9B/8ASCGvoavnn9kb/k1X4Of9ifoP/pBDX0NQAUUUUAFFFFABRRRQB//R/fyvx/0f4D/HPRIPF/wdsfhmYj4w8LaX4Yu/FaXlgunzXVtfalNd69MBN9seeWO8jmWMwGUzqVJCKsh/UL4jeOrj4faJBrNt4X1nxa01wtubXQ4Iri5QMjv5rrLLCojGzaSGJ3MoxySPy/8AAPgL4ZN4Vsh8Y/2ZvG3ivxku8anrF3ZQ3cuoz7iWui8uo7l8375jwBGSUXKqGIB+v1FFFABRRRQAUUUUAFQXX/HtL/uN/Kp6guv+PaX/AHG/lQB4B+yN/wAmq/Bz/sT9B/8ASCGvoavnn9kb/k1X4Of9ifoP/pBDX0NQAUUUUAFFFFABXMeNPC1j418K6n4W1H/U6jC0e7Gdj9Uce6MAw+ldPRSavozKvQhVhKnUV01ZryZ498EvFN9r3hD+xte+XXfDUraZfqTljJB8qv7h1AOe5Br2GvnbxN/xbb4x6Z4xT93ovjQJpmodkS9Qf6NKf94fJ7DcTX0TUU3pZ9Dx8grz9nLDVXedJ8r819mXzja/nddAooorQ90KKKKACiiigAooooAKKKKACiiigAooooAKKKKACiiigAooooAKKKKACiiigAooooAKKKKACiiigAooooAKKKKACiiigAooooAKKKKACiiigAooooAKKKKACiiigAooooAKguv+PaX/AHG/lU9QXX/HtL/uN/KgDwD9kb/k1X4Of9ifoP8A6QQ19DV88/sjf8mq/Bz/ALE/Qf8A0ghr6GoAKKKKACiiigAooooA/9L9/K/Nsa98bj+z+f2dB4I8Qf8ACbDT/wCyv+EuNzbf2JnOP7c/tH7T5u3b/pPleX5u/wDd7e9ffXjXSPE2u+GbzSvB+vHwxq8/l+RqItY7wwbZFZ/3E3yPvQMnPTdkcgV+Qtv4n+H3hX4bWX7NvxC/agN5oOn6XbeG9S07R/C32hJLYIbF7SG/it5yfM8uSFXBZ9wYffBwAftJRRRQAUUUUAFFFFABUF1/x7S/7jfyqeoLr/j2l/3G/lQB4B+yN/yar8HP+xP0H/0ghr6Gr55/ZG/5NV+Dn/Yn6D/6QQ19DUAFFISByTilouAUUUUAFFFFAHD/ABH8G2/j7wXqfhiYhJLmPMEh/wCWc6fNE+eowwGcdsjvWN8H/GVx408E21zqYKaxpzNY6jG33kurf5X3D1YYb8cdq9Rr52uP+La/G6O6H7vQviEoif8AuRapAPkPt5qnHqzEntWU9GpHzmZ/7NiqeMXwu0J+jfuv5SdvST7H0TRRRWp9GFFFFABRRRQAUUUUAFFFFABRRRQAUUUUAFFFFABRRRQAUUUUAFFFFABRRRQAUUUUAFFFFABRRRQAUUUUAFFFFABRRRQAUUUUAFFFFABRRRQAUUUUAFFFFABRRRQAUUUUAFQXX/HtL/uN/Kp6guv+PaX/AHG/lQB4B+yN/wAmq/Bz/sT9B/8ASCGvoavnn9kb/k1X4Of9ifoP/pBDX0NQAUUUUAFFFFABRRRQB//T/dnxb4w8KeAfD134t8caxaaBolj5f2i9vp0t7aLzXWJN8shCrudlUZPLEDqa/JHXB8DbTwlp/gXwJ+0f4Bg0698KWPg3Wri9uoDcfYtNuZ57a9shHeYS8QXMuTISpkKyDBG0/pJ+0b4i+D/hT4L+Jdf+PdpDfeBLZLcahDPbm6RzJcRR24Eagnd9oaPY3GxsPuXbuH5z/Bv49fCTTfH9hqulfE3QPCXwsRJvO0HxV4l07W9Uk3RkQG2K+fLZqj7SVl1GcbRsEMZ5oA/YWiiigAooooAKKKKACoLr/j2l/wBxv5VPUF1/x7S/7jfyoA8A/ZG/5NV+Dn/Yn6D/AOkENfQ1fPP7I3/Jqvwc/wCxP0H/ANIIa+hqAM7VdNi1WyezlJTdgqw6qw5BH0rN0LVJ5jJpWp/Lf2nDeki9nH1710dc9rulTXQj1HTjs1C05jP98d0Psa+K4jwFfD1lm+Bi5TirTgv+XlNa2X9+F24d7uL+K67sNUjKPsamz2fZ/wCT6/edDRWXpGqw6vZi4jGx1O2RD1Rx1BrUr6jLswo4uhDE4eXNCSumuqf9fI5KlOUJOMlZoKKKK7SArzf4s+C38deCL7SLQ7NSg23VjIDho7uD5oyD2zypPYMa9IopSjdWZzYzCQr0p0Ki92SafzPPvhd40Tx74J07xC42XbKYbuPGDHcxfLKpHbkZA9CK9Br520n/AItr8arzQm/d6H49Vr217JHqUI/foPTzF+b3O0CvomopyurPdHn5Fi51KPs6z/eQfLL1XX/t5Wl8wooorQ9kKKKKACiiigAooooAKKKKACiiigAooooAKKKKACiiigAooooAKKKKACiiigAooooAKKKKACiiigAooooAKKKKACiiigAooooAKKKKACiiigAooooAKKKKACiiigAqC6/49pf9xv5VPUF1/wAe0v8AuN/KgDwD9kb/AJNV+Dn/AGJ+g/8ApBDX0NXzz+yN/wAmq/Bz/sT9B/8ASCGvoagAooooAKKKKACiiigD/9T90fGHjDwP4K0tNS8f63p2g6bPKsCzancw2sDzEM6xh5mVS5CMwXOcKT2Neaf8L5/Zk/6KL4Q/8G+n/wDx2vXtb8PaB4ltUsfEemWuq20biRYruFJ0VwCAwWQMAwBIz1wT61+Qer/Fv4m32j6r498O+BPhlo3hmz8L6d4zjttQ0ae7vxo1/c3URBeKe3jkuoIrdZHjCKC8ixBs4JAP2Ur5l/aO1rVfB2jxeMB8QvEHg3TbeN4vJ0Hw9FrxmuAryB7hWsbx0jCrgnMKesikivpqvJPH3hn4yazqsdx8OvHWn+GNPa3EU1ve6GdUkEoZyZoZReWwRirKNrpKnyg45OQD5V8A/EP48/HrUNB8KWPjC28B3umeCNF8Q6veaPbWOprd6prj3CQxo1wLmH7LGto7uIjuYyBVmAXcXeEPjZ8VfjvF8J/Bvh/W18Dar4k8P6vrviHUbC1gupVfRbu30xoLJL2OeFUmupmkLSRuVjQKOW3DudI/ZS1n4cRaFcfA7x2/hjU9P0FPD1/c6jpseqrf28U8t1FcGJZbVY7mOa4nZGBaMCQqYmUKBuH9mFvCukfD3/hT3ihvDOv/AA60660m3vr+zGqRX9lf+U92l7As1s0jyTwxzh0lTbIDgFWK0AeTab8bPi74q0rwj8I4Nbh0vxpqfjPXvCmpeIYLOJv9E8OxXF1Jd29rKJIEuLmKOFdrq8aO7kIQqijU/jZ8XfCuleLfhHPrcOqeNdM8aaD4U07xDPZxLm08RRW90l3cWsIjga4toZJl2oqRu6ISoDMK9VX9lxtO8FeHLPw74tmtPHXhvXr3xPH4intEn+06rqnnrfm4s1eNWt547mSPyUkQogTa+UyRv2XDqXgrxFZ+IvFk13468R69Z+J5PEUFokH2bVdL8hbA29mzyKtvBHbRx+S8jl0L7ny+QAa3wo8S+P8AQfjD4u+B/j/xE/jD+zNI0rxBpmqz21ta3bW2oTXdrLb3C2ccMDGOW0LRskSkq+GyVyfRviN8XPC3w5khsPEFjrl1JewvIh0nQNV1iMBflIkk0+1uEjOeiuQSOQMVifC74S674R8VeJPiN4/8Sp4s8X+JYbKylurex/s60t7DT/NaC2t7YzXDKPMnlkkZpnLs/YAAe1XX/HtL/uN/KgDwD9kb/k1X4Of9ifoP/pBDX0NXzz+yN/yar8HP+xP0H/0ghr6GoAKKKKAOQ1a3m0a9PiHT1LRtgXcS/wAS/wB8D1H+e9dTb3EN3AlzbsHjkAZSO4NSkAggjINcXGT4V1AQMf8AiU3jfIT0gkPb/dP+e+fzzE/8IeLeIX+6VZe/2pVG/j8oTfx9Iy97aUmvSj+/hy/bW3mu3qunlp2O1ooor9DPNCiiigDyb4z+ELzxX4Llm0XKa5okiajpzr98XFv8wUf74yoHTOCeldT4B8X2fjvwfpfiqzwovog0iD/lnKvyyJ/wFwR79a7CvnbwX/xbj4taz8PpP3ekeKA2r6V2VJ/+XqBfy3ADooHrWUtJX7nzuL/2bGwxH2aloS/xfYfz1j849j6JooorU+iCiiigAooooAKKKKACiiigAooooAKKKKACiiigAooooAKKKKACiiigAooooAKKKKACiiigAooooAKKKKACiiigAooooAKKKKACiiigAooooAKKKKACiiigAooooAKguv8Aj2l/3G/lU9QXX/HtL/uN/KgDwD9kb/k1X4Of9ifoP/pBDX0NXzz+yN/yar8HP+xP0H/0ghr6GoAKKKKACiiigAooooA//9X95tSfXUutLGjw20ts9yRftPK8bx2vkykNAqo4kk84RKVcovll23blVW/ObxH4b8d+L/BWhfFXxJ8Mvg5qHhbwzZNrOm6lJrOo/ZLWxYC7aeMjRQohOBKRjaSAxGea/QXxt4Ui8b+GL3wvPqeo6Ml75ebvSrp7K9j8uRZP3U8fzJu27Wx1UlTwa/Jr4JN+xfq/wa8MeHvHHx7uoLe106DT9S8Oah48CWANsohltGiWSCOW2ypUGNRFJHgqNjAUAfsfRRRQAUUUUAFFFFABUF1/x7S/7jfyqeoLr/j2l/3G/lQB4B+yN/yar8HP+xP0H/0ghr6Gr55/ZG/5NV+Dn/Yn6D/6QQ19DUAFFFFABVa8tLe/tpLS6XfHKMEf1HuKs0VjiMPTq05UqsU4yTTT1TT3T8mVGTTutzk9FvLjTro+HdTbc6DNvKf+WsY7f7w/z79ZWJr2nQahZZeQW80J3xTE42OOnPoe9YFr4+8OW1gJvEeqWemSxsY3aeeOJHZepRmYAg+x4r4nIa1TLcTHJsS24O/sZPW6Wrpt/wA8Fs95Q11cZM768PbR9tBa/aX6+j/B/I7qivKb347/AAP03P8AaPxD8O2uOvm6vZpj/vqUVyV7+1l+zFYZ8/4qeGmx/wA8tUtpv/RbtX6HHC1XtF/ccscNUe0X9x9B14t8cfDl/qXhaHxV4fH/ABPfCUy6laEDlhFzNH7h0HI7kAV5ve/t0fsk2GfP+JmmNj/nkJpv/RcbVyV5/wAFGf2N7YmL/hPvtLnjZFpepPn8fs239a1eVYiSsqcvuZz5hkNbFUJ0JQlaS3s9H0a809V5n194U8R2Hi/w3p3ibTDm21GFZVGclSR8yH3VsqfcV0Ffmd8Mf2xvg74IsPEA0j+19a8Iy6iX0r7Fplw9xEZ13yQtA6pIsan7rY2nnJycV6N/w3v4JuP+QP8ADD4iatnp9l8OO2fpulWlRy/ESXwPTR+pz5HHE4mgpVIWnFuMl2lHR/5ryaPuuivhX/htPxLef8gb9nr4lTA9Dc6MtqD+LSNSf8NVfHu8/wCQP+zT4mkz0+1XtrafnuDYrX+y63VL71/mev8A2bW6pfev8z7ror4U/wCF+/tmX/Gl/sxtCp/juvFunJ+aeWp/Wj/hZf7fV9/x6/Brw5pmf+frX1mx9fJxR/Zs+so/+BR/zD+z59ZR/wDAo/5n3XRXwp/bX/BR2+/49vDnw40zP/P1c6nNj/vy1L/Yn/BRy+/4+vEfw40zP/Pra6nNj6ectH9n96kfv/yD6j3nH7/8j7qor4U/4Vn+31ff8fXxm8OaZn/n18PrNj6edimv8Fv25rMf2laftFWOo3cfK2Vz4VsobST2eWJjIB7hc0fUof8AP6P/AJN/8iH1OH/P2P8A5N/8ifdtFfB3/Cz/ANuz4efL45+E+h/EOzi4e78K6obSXaP4vs16C7t/soBz6CrNn/wUB+D+lXMem/F3Q/EvwuvnOzb4g0ieOJn/ANiWASgr6MQoxz0o/sys/gXN6NP8Fr+Af2dVfwLm9Gn+G/4H3RRXmngb4zfCX4mIrfD/AMY6Tr7MM+XZ3kUsy/70Qbep9mUGvS64p05RdpKzOOcJRdpKwUUUVBIUUUUAFFFFABRRRQAUUUUAFFFFABRRRQAUUUUAFFFFABRRRQAUUUUAFFFFABRRRQAUUUUAFFFFABRRRQAUUUUAFQXX/HtL/uN/Kp6guv8Aj2l/3G/lQB4B+yN/yar8HP8AsT9B/wDSCGvoavnn9kb/AJNV+Dn/AGJ+g/8ApBDX0NQAUUUUAFFFFABRRRQB/9b9/K/HnW/j38dL3RNS8f6d/wAIH4b0GHwrp3jO3sLnRJru8/su+u7mGSDzTewLNeW8UEbMqxxq8sqxDZw7fon+0h4+1v4afB/VvFHhy+tdK1N7rStNgvr5Q9rZPq+o22n/AGqVWZFZLf7R5pDMAduCcZr5E+HWtfBab4h6h8Pvjv418DfEuLwbaaZrnhrXru00eyktZNRnu0ubVBARAHhktI5gYwrYlUuCQrEA/S6iiigAooooAKKKKACoLr/j2l/3G/lU9QXX/HtL/uN/KgDwD9kb/k1X4Of9ifoP/pBDX0NXzz+yN/yar8HP+xP0H/0ghr6GoA82+K/grxP4/wDCMnh3wl4vvPBGoPNFINSsY0lmVEPzRhZOMOOCe1fLv/DHnxGvP+Qx+0Z49lz1+y3cdp+W1WxX3XRXVRxtSmuWD/Bf5HTRxlSmuWL/AAX+R8Kf8MKaXdc638avidqhPUTeJDtP4CDP60f8O9vgpcf8hjXvFurev2rXrhs/XZtr7rorb+1cR0mzX+06/SbPhiP/AIJwfsis4k1Lwldak4/iudX1Fj/45cLXe3X7InwH0jwA3gLQvB0E3h6O6F82mXM1xdQtKOrIZ5XeN8d0YZyQc5NfVVFeHxDhZ5lhnhq9SW6cWm7xktYyj2lF6r7ndNoulm2IjJS52/Jt2Plzw/8AslfsoS2cd7p3wv0F1bqJrNJipHUHzN3IrvLL9nD9nrTsGw+GHhe3I7potkD+YizXa38b+HL9tYtlJsLkgXMY/gY9JAP5/wCcdfHIksayxMGRwCCOQQe9eTw3xNi6/PgsfK2IpW5tXaSfw1I/3ZW2+zJOL2u6xk6itOE24vbXbyfmvx3OJsvhf8NNNx/Z3hLSLXHTyrC3TH/fKCustNN06wXbYWsVsPSNFQfoBV2ivpJTk92edKbe7PCfjno99baVpvxK0CPfq/gyf7WFHBltG4uYifQpyfQA4617HousWHiDSLLXNMk820v4Unib1SQBhn0PPI7Gr80MVxC9vOgkilUqysMhlYYII9CK+fvg5NL4N1/xB8GtQcldIkN9pTMeZNPuWztGevlOcE+pPpWD0l6nzc/9mx6n9ito/KcVp/4FFW/7dS6n0LRRRWp9EFFFFABRRRQAUUUUAFVryys9QtpLLUII7m3mG145VDowPZlYEEfWrNFAHyz45/Yo/Zc+ILtc6z8PtPs7tjuFxpitpkwfrvzaNEGbPOWB9680/wCGO/iL4I/efAz48+KvDaR8x2WsmLXrFMfwJDOE2Kf+BHvzX3jRXdDMq8Vbmuuz1X3O52QzCslbmuuz1X3O58Hf25/wUH+HXGp+G/CfxYsIuQ2nXUmjai4HXeLj/RwfQIp/pQP27dF8JHyfjr8M/F3w3K/6y7utOa901fXbdW+S+PaOvvGkIBBBGQar65Tl/EpL5XX+a/Av61Tl8dNfK6/zX4HhXgL9p79nz4m+Wngn4gaRf3E2Nls1ytvdHP8A07z+XL/45XuwOeRXgnj39lv9nf4m+Y/jT4faRezzZ33EdstrdNn1uLfy5f8Ax+vCT+wrp3hH978Cvil4v+HRT/V2kOoG/wBMX0zaXH3sf7Uho9nhpfDNx9Vf8V/kHs8PLaTj6q/4r/I+8aK+Dv7I/wCChPw6/wCPDXfCXxZsI+ovraTRdSkA6bfIxbKT3LE0f8Nk+PPBP7v46fAnxX4WVOJL3SUj17T0x1Z57coFX6Bj9aP7Nm/4clL0f6Oz/AP7Pm/4bUvR/o7P8D7xor5d8C/tpfsvfENkg0H4habbXTHb9n1J202bf0KBbxYtzZ7Ln2r6atbu1vreO8spkuIJRuSSNg6MD3DDII+lctbD1KbtUi16nLVoTpu04tepYooorEyCiiigAooooAKKKKACiiigAooooAKKKKACiiigAooooAKKKKACiiigAooooAKKKKACoLr/AI9pf9xv5VPUF1/x7S/7jfyoA8A/ZG/5NV+Dn/Yn6D/6QQ19DV88/sjf8mq/Bz/sT9B/9IIa+hqACiiigAooooAKKKKAP//X/cnxne+B2i0rwp46itruDxXeDT7S0u4PtEN1dRwy3ojKMrJlY7aSQF8DKcHdtB4nw58M/wBnzxd4f03xV4a8G+HNQ0nWLaK7tLmLS7UxzW86B45FJiHDKQRXX/EL4aeB/iroC+GfH2lpqunxzpcxqXkhkiniyElilhZJI3AYjcjA4JGcEivym8L+Avgp4X+GmleOIvg14mvfhHpVnDt8Tz+LLhL+XTIVEY1R9Kt7uELbso84iMIwi+dYFGEoA/ZOiiigAooooAKKKKACoLr/AI9pf9xv5VPUF1/x7S/7jfyoA8A/ZG/5NV+Dn/Yn6D/6QQ19DV88/sjf8mq/Bz/sT9B/9IIa+hqAPP8A4m+ALX4l+Ebnwtcajd6TI7xzQXdlK0UsFxC2+J/lI3BWAO08HGRhgGHifw++MPifwd4mt/g/8fwlprsvyaVraDZY6wgOB83AjuOgKHGScYBKhvqyuI+IPw78JfFDwzceFPGVit7Yz8qekkMg+7LE/VHXPBH0OQSD24fER5fZVVeP4rzX6rr+Jw4nDS5va0naX4Ndn+j6fgdvRXxp4f8AH/jH9njWbT4f/Gq7fVvCF24g0bxSwJMf9y21A87WA6SHqBkkjcU+yIpY5o0mhcSRyAMrKchgeQQR1BrPE4V02uqez6P+u3Q0w2KjUTWzW66r+uj6j6KKK5jqGSRpLG0UqhkcEEHoQeorj7GR/DeoDSLlibC5Ym2kP8DHrGT/AC/zjs6oalp1tqlnJZ3Qyr9COqnsR7ivlOJskq1uTGYJpYilflb2kn8VOX92Vv8At2SUltr14Wuo3hU+F7/5rzX/AAC/RXMaFqNwkr6Hqp/0y2Hyt2lj7MPf1/8A1109enkOd0swwyxFJNbqUXvGS0lGS6NPR/erppmeIoOnLlf/AA67hXgHxusrrw9Nofxe0eMvdeFpgt4ifem06c7Jl99ucjPAyW7V7/VTULC01SxuNMv4xNbXcbxSo3RkcFWB+oNetON1Y8fNsB9Zw8qSdnun2ktYv5NIWxvbXUrK31GxkE1tdRrLE69GRxuVh7EHNWq8B+CF/d6Eda+EetSF73wnPi1d+s2nznfA49ducHHAyor36iErq4ZVj/rOHjVas9mu0lo18mmgoooqj0QooooAKKKKACiiigAooooAKKKKACiiigAooooA8v8AHXwT+EHxNVx8QPBmk69I4x5t3ZxSTr/uzFfMU+6sDXzNdfsAfCXRriTUfg94h8T/AAuvWO8HQdXnSBn/ANuKcy7lPdQyjt0r7porro46tTVoTdu3T7tjppY2rBWjJ27dPuPg7/hW37eHw8+bwV8UtA+I1lFytr4o0xrGbb/dFxYks7ejOw568Uf8NPftE+A/k+Mv7PusPbxffv8AwndQ61G693FspWRFH+2+cV940Vr9eUv4lNP8H+Fl+Bt9dUv4kE/w/Ky/A+O/Cf7en7L/AInvP7JvvFo8LaopAks9ft5tMkiJ7O8yiEH/ALaV9V6F4i8P+KLBdV8M6pa6tZP92e0mS4iP0eMsp/OsvxZ4B8DePbP+z/HHh3TvEFtggR6haRXSAH0Eqtj8K+VNd/4J/fs53d++t+C7LU/h9q7dL3w3qU9jIp7bULSRLj/ZQUWwsv5o/dL/AC/ULYaXeP3P/L9T7Yor4O/4UL+194A+b4WfHYeI7RPuaf4w05Lrdjpvv4c3B98KPWj/AIXh+2X8P/l+J3wPt/FdpH9+/wDB+pLJ0/uWNzuuGz25FH9n838OcX87P/yawfUeb+HNP52/Ox940V8RaP8A8FA/2fHvk0bx++sfDjVn4+x+JdLuLJwe+XQSxqB6swr6p8H/ABH+H3xBtftvgTxLpviGDGS2n3cNyFH+15TNj6GsK2Dq09ZxaMK2Eq09ZxaO0ooormOcKKKKACiiigAooooAKKKKACiiigAooooAKKKKACiiigAqC6/49pf9xv5VPUF1/wAe0v8AuN/KgDwD9kb/AJNV+Dn/AGJ+g/8ApBDX0NXzz+yN/wAmq/Bz/sT9B/8ASCGvoagAooooAKKKKACiiigD/9D9/K+SP+GPvCX2X/hFf+Ez8U/8K/8AN8z/AIRH7dB/Y/lb/M+y7vs3237LnjyPtWzb8mNny19b9eDX5qfCjxl8fPAfhi8+GGkeM/hTqsHw3WCxuzJq2oedpsDu0VrBfSBNolG3ytz7WcryNxOQD9K68R+K158bdMNzrXw/1Xwto+gaXp73VzJr1veTyPNF5jyKXguLdLeFY1UmU+aQSxMeFG726vkX9of4dfHP4leKtB0rw3YeHtb+GtlELnU9H1TVrzS5dU1BJCYo7prfTr5ZLGJQrmHK+bIcSZjTa4BRT4//ABF8f6X8ItI+Gek2GheKPidoMviW5bW45ru20mwtorYyAwQSW0k8jzXcUcf7yMbdzt0CnKg/aT+Ier+GNB8KaTpGlwfFDV/F2oeDZllM0ukW9xpMU93dX4VWSaSA2kAljh3o+6RUZ+C1d/43+Hvxb1PxF4C+MPhC30K08b+GbHUNMv8ASbm9uTpVzZap5DyxR3yWnnK0M1rE8bm0ww3KUGQRwEH7NnxC0jwxoPivSdW0uf4oaR4u1DxlM0omi0i4uNXintLqwDqrzRwC0nEUc2x33Rq7JyVAAXv7SXxC8L+HPGHhbxJpOmX/AMS/DniLRvDVkLQzW+lahN4i+znT7srI0s0EarOxnj3uwMLhXO5SJtX/AGjvHnwitfiVo3xjsdN1nXvBPh+08R6dLokc1lbapb30k1rHbmG5luXglS7h8tm811KSK4A5Wob39m34heKPDnjDxV4k1bTLD4l+I/EWjeJbI2gmuNJ0+bw79nGn2haRYpp42WBhPJ5aEmZiqDaoM2r/ALOPjz4u23xK1n4x32m6Nr3jbw/aeHNOi0SSa9ttLt7GWa6iuDNcxWzzyvdzeYy+UihI1QE8tQB3Hgj4jfGDQ/ivpPwp+NsWh3Fx4q0a81fS7zQorm3ijl02W3jvLKZLmacyFRdRPHOpjDgODEpxn6UvZYo7aUSOq5RupA7V81+CPhz8YNc+K+k/Fb42yaHb3HhXRrzSNLs9ClubiOWXUpbeS8vZnuYYDGWFrEkcCiQIC5MjHFem/EP4MfCD4nvFqPxJ8EaJ4qurGF47eXVNOt72SFG+YrG0yOVBPJAxzQBxf7I3/Jqvwc/7E/Qf/SCGvoavnn9kb/k1X4Of9ifoP/pBDX0NQAUUUUAY/iDw/onirRrvw94jsotQ02+QxzQTLuR1PqPUHkEcg4IINfHsc/jH9ky8W3vWufE3wgmkCxzczXugFzwr45ktsng/w+zYEn21UNxb293by2l3Es0EylJI3UMjqwwVYHggjgg114bFcicJK8Xuv1XZ+ZyYnCc7U4u0ls/0fdeX6lPRtZ0nxDpdrreh3cV/YXsYlhnhYPHIjdCrDitKvi/WfBvjH9mjVbrxp8KLWXXPh9dOZtW8NqS0tlnl7nT89h1aP09sGP6i8DeO/C3xH8N2vizwdfpqGnXY4deGRh95JFPKOvdTyPpiniMLyr2lN3i+vbyfZ/n0Jw2L5n7OorTXTv5ruvy6nXUUUVxnaYWuaS2oRJcWjeVfWp3wv7/3T7GpdF1ZdVtSzL5VxCdk0Z6o46/ge1bFcnrVncafdDxFpa7pIxi4iH/LWMd/94V8FnuHqZbiXnGFi3B29tBdYrapFfzwW63lDTVxiehh5KrH2E9/sv8AT0f4P5nWUVVs7y3v7WO7tW3xyDIP9D7jvVqvt8PiKdanGrSknGSTTWqaezXkzhlFxbT3Pnn4wRSeCvEvh/4yWKnytNcafqwUff0+5bAYgdfKc5A7kjsK+g4pY540mhYPHIAyspyCDyCD6Gs3XdFsPEejX2g6onmWmoQvBKvfa4wcehHUHsa8h+BmtX8ejah8OvED7tY8GT/YnJ6y2p5tpQPQpwPYDPWmtJW7nzVP/Zce4fYrarymlqv+3o2f/bsn1Pc6KKK1PowooooAKKKKACiiigAooooAKKKKACiiigAooooAKKKKACiiigAooooAKKKKAMvWND0XxFYvpfiDT7fU7OX78F1Ek0TfVHBU/lXyr4w/YR/Zc8XXX9px+C4vDupqd0d3ocsulyRN/eRLdliz9YzX19RW9HFVKf8ADk16M2o4mpT1hJr0Pg7/AIZX+PPgT5/gr+0Fr0EEX3LHxRBDrsJXtGJpArxr6bUJAo/4T/8Ab3+HfHi34b+HPiZZRdbjw5qT6dclP7zQ3oIZ/wDZjX2HrX3jRXT/AGjKX8SKl6qz+9WZ0fX5P+JFS+X6qzPhOD9vz4Z6BMlj8aPCfin4XXJIUvrekTG1LH/nnNbiQuv+1sA/CvpTwJ8d/gx8ThGPAPjbSNcmk6QW95EbgZ/vQFhKv4qK9TngguoXt7mNZopAVZHAZWB6gg8EV81+O/2N/wBmL4jmSXxL8O9LS5k5NxYxnTpy394yWhiZj/vE+9HPhZbxcfR3X3O35j5sNLdOPpr+Dt+Z9M0V8Hf8MXeKfBf7z4FfG/xb4OCcx2d/Mmt6bHjoFtrgIAPXLNR9s/4KF/Dv/j4sPCPxasI+hglk0TU5MevmYtVz7A0fUoS/h1E/XT89PxD6nCX8Oovnp+en4n3jRXwd/wANxN4O/dfHb4R+L/AGz/WXgs/7T0tMdf8AS7fG7H+zGeK9s8BftYfs3/Evy08H/EPSLmebGy3nuBZ3LZ9ILoRSn8FqKmX14rmcXbutV96ujOpgK0Vdxdu61X3rQ+haKarK6h0IZWGQRyCDTq4jkCiiigAooooAKKKKACiiigAqC6/49pf9xv5VPUF1/wAe0v8AuN/KgDwD9kb/AJNV+Dn/AGJ+g/8ApBDX0NXzz+yN/wAmq/Bz/sT9B/8ASCGvoagAooooAKKKKACiiigD/9H9/K/H7TvhF8V9M1jxB+zda2fhtIPEHhPS/B8usLrkAuRZ2V3qNxPqbaYE+1NezwX27ZgILgM5mKEGv1D+Ivi/xF4L0SDVPDPg3UvG91LcLC1lpctnDNHGyOxmZr64to9ilQpActlhhSNxH5S/8Kw+IP8Awof/AIVz/wAMvah/wnO7/kbftXh/+0vtnnb/AO2ftH277R9uz++2eZt8z935vl80AfsxRRRQAUUUUAFFFFABUF1/x7S/7jfyqeoLr/j2l/3G/lQB4B+yN/yar8HP+xP0H/0ghr6Gr55/ZG/5NV+Dn/Yn6D/6QQ19DUAFFFFABRRRQAV8leOfhJ4r+G/iS6+Ln7P0aLeXB8zWfDpOyz1RByzxAcRXA5II6n3LLJ9a0V0YfEypu62e66P1OfE4WNVWe62fVeh5f8Kvi34T+Lmgtq/h2R4Lu1byr6wuBsu7KccNHNGeRyDg9Dg45BA9Qr5s+KvwS1K/15fix8H7xPD3j6zXDsRi01SIdYLxBwcgAB+o4z0Vk6H4QfG3TfiT9r8Oa1Zv4c8a6L8mpaPcnEsbDH7yIn/WQtkEMOmRngqW3rYaMo+1o7dV1X+a8/vOehiZRkqVf4uj6P8Ayfdfce5UUUVwHoHFSg+FtQNwg/4lV43zgdIJD/F/un/Pau0BDAEHIPeori3huoHtrhQ8cgKsD3BrldJuJtFvR4ev3LRNk2krfxL/AHCfUdv/ANVfnmG/4Q8WsO/90qy93tSqN/B5Qm/g6Rn7u0opelL/AGiHN9tb+a7+q6+Wvc7Cvnb4lf8AFvfiJoHxXg+TTr0jSNZx90RSnME7f7jDk+gAHWvomuc8XeGrDxj4Z1LwxqYzb6jC0ROMlGPKuPdWAYe4r9AqRutD5fOsDKvh2qfxxtKL/vLVfJ7PybOjBzyKK8Z+B/ia/wBX8KSeHPEBxrvhWZtMvQTy3k8RSepDoB83cgmvZqcJXVzpy7HRxNCFeG0l93dPzT0fmFFFFUdoUUUUAFFFFABRRRQAUUUUAFFFFABRRRQAUUUUAFFFFABRRRQAUUUUAFFfKXxO/bU/Z9+D/jS/8AePtZu7DV9NEJmVNNu7iMCeJZkxJFEyn5HGcHg8HmuGi/4KR/saucSePHhPo+k6n/S1Nd0MsxEkpRptp+TOyOXYiSUo0216M+5qK+LYf+Ch37HE/wBz4jQj/e0/UU/9CthWrD+3t+yHP9z4lWI/3obpP/QoRSeWYlb05fcweXYj/n3L7mfXtFfK8P7bv7J0/wBz4m6SM/3ndP8A0JBWrD+2L+y1P9z4o6AM/wB69jT/ANCIqXgK63pv7mS8FWX2H9zPpOivAYf2rP2ZZ/ufFXwwP97V7VP/AEKQVqQ/tJ/s63H+o+KfhWT/AHdbsT/7WqHhKq+w/uZDwtVfZf3HtVeJ+Pf2bvgL8TvMfxz4C0jVLiXO65NqkV0c9f8ASIgko/B614fjt8ELj/j3+Ifh2X/d1azb+UtasPxZ+Fdx/wAe/jLRZc/3dRtm/k9OEa0HeN0/mOEasHeN0/mfKDfsGeFPCrG4+BvxC8W/DN1OUttP1SS50/8A4HbXO4uB6GSm/wDCMf8ABQP4dc6H4w8K/FWxi/g1ixfR791HQI1ofJ3e7sfxr7Gh8eeBrj/j38RadLn+7dwt/Jq1IfEGg3H/AB76lbS5/uzI38jXS8wrP+Iub1V/x3/E6Xjqr/iLm9Vf8d/xPiX/AIa7+K3gf938cfgF4n0SOPiS90Fodfs1H992gKeWvfksR05Neh+CP23/ANlvx3KLPT/H1lpl9nY1tq+/S5Uf+4ftaxqWzxhWPPFfVccsco3ROHHqDmvP/G/wk+FvxJiMPj/wlpXiHIwGvrOGeRf913Usp91INT7bDy+Km16P9Hf8yfbUJfFBr0f6O/5nb6fqOn6taR6hpd1FeWswyksLrJG49VZSQfwNXK+GtQ/4J+/BOxu5NV+FepeIvhhqMh3ed4c1e4t1L/7UcxlXb6qu0Y44qn/wqX9uL4e/N8PvjBpPjyzj5Sy8W6WYHwP4Td2RaVyfViv4daPqtGX8Op/4EmvyuvxD6tSl8FT701+V0feNFfB3/DSH7UHgH5Pi9+z/AH+o2sf3r/whexaqHA6lbI4mUf7ziuk8M/t9/sy65fDRte8Qz+DNXGN9l4hsp9Oljz/fd1MK/wDfylLLK9rxjzLy1/Il5dWteKuvLX8j7NornvDni3wr4xsRqnhHWbLXLJsYnsbiO5iOenzxMy/rXQ1wtNOzONpp2YVBdf8AHtL/ALjfyqeoLr/j2l/3G/lSEeAfsjf8mq/Bz/sT9B/9IIa+hq+ef2Rv+TVfg5/2J+g/+kENfQ1ABRRRQAUUUUAFFFFAH//S/fyvx6+HUfwc8V+E7XWfHfgb4n/EPXpGlW78Sae/iGTTtYkSRlN5YmK8hjFrLjdCqRIqphQCBuP7C1+Pvhj4q6P8L/DOn+FdK/aX1fTtGtHW1sIZ/hzdbIVkfEVtEz2edoJCRISSBhF4AAAP2CooooAKKKKACiiigAqC6/49pf8Acb+VT1Bdf8e0v+438qAPAP2Rv+TVfg5/2J+g/wDpBDX0NXzz+yN/yar8HP8AsT9B/wDSCGvoagAooooAKKKKACiiigArw34v/BLTfiT9k8R6LeP4c8a6N8+m6xbDEsbDJEcoH+shbJBU9MnHBYN7lRWtGtKnLmg9TKvQjUi4TV0fNnwq+NupX+vN8J/i/Zp4e8fWa5RQcWmqRDOJ7NzwcgElOo5x0ZV+k68v+Kvwk8J/FzQV0jxFG8F3aN5tjf252XdlOOVkhkHI5AyOhwM8gEeNeBvi34s+HHiS1+Ef7QMiLeXB8vRvEQGyz1RBwqSk8RXA4BBPJ9yrSds6Mayc6Ks+sf1Xl5br024YV50WoVnddJfo/Pz2fqfWtZer6XDq9m1tIdjg7o3HVHHQitSivBzHL6OLoTw2IjzQkrNPqn/XyPWp1JQkpRdmjndC1Sa58zTdRGy/tOJB/fXs49jXRVzmu6XPOY9U035L+05T0kXuh+vatDSdUg1ezW6h+Vvuuh6o46qa+V4dzCthq7yfHy5pxV6c3/y8gu/9+Gin30n9qy7MTTjKPtqa06rs/wDJ9Pu6HhPi/wD4tx8XtI8dx/u9G8WhNK1PsqXK/wDHrM31xsJ6BQfWvomuM+IXg+18eeDtU8LXWFN7ERE5/wCWcy/NG/8AwFwCfUZFc58G/GF14u8FQf2xlNa0eR9P1FG++tzb/Kxb3YYY+5I7V9jHSVu58bg/9mxs8P8AZqXnH1+2vyl85dj1aiiitT6MKKKKACiiigAooooAKKKKACiiigAooooAKKKKACiiigAooooAKKKKACopYIZhiaNZB/tAH+dS0UAY03hzw/cf8fGmWsuf70CN/MVlzeAPAlx/x8eG9Nl/3rOFv5pXW0VSnJbMpTfc88m+EfwouP8Aj48F6JLn+9p1s3846y5vgN8Dbj/j4+HfhyXP97SLNv5xV6vRVqvNfaf3lqtP+Znic37NP7OdxzP8K/Crn1Oh2JP5+TWXN+yh+zJP9/4VeGR/u6Tap/6Cgr6Aoq1i6q+2/vZSxVX+Z/efNM37HH7LE/3/AIXaCP8Ads0T/wBBxWXN+w/+ybP9/wCGWlDP91ZE/wDQXFfVVFWsfXW1R/ey1jay2m/vZ8gTfsD/ALIU/wB/4bWQz/dnu0/9BmFZU3/BO79jef7/AMOohn+7qOop/wCg3Qr7Uoq1meJW1WX3spZjiF/y8l97PhiT/gm5+xux3Q+BZID6pq2p5/8AHrk0z/h3H+yzH/x6aNqdr/1y1m+GPzmNfdVFV/auK/5+y+9lf2nif+fj+9nwr/w7w/Z/T/j0uvElr6eVrl0MfmxpP+Hfnwlj/wCPTxd40tfTyvEEwx+amvuuij+1cT/z8Yf2niP52fCv/DBPgxP+PT4o/EW1/wCuXiNhj84TXN+Jf+Cc3gbxdYnTfEnxY+IuqWnP7i912K6h5/2JbVhX6HUU45tiE7qY1mmITupn5X6Z/wAEoPhJ4evk1Twt8QPFukXsf3J7e6to5V+jx26MPzr9C/hV4Cvfhp4JsvB9/wCJ9V8YTWZkP9o6zMLi9kDsWCvIACwQHC5ycd69FoqMVmNesrVZXIxOYVqytVlcKguv+PaX/cb+VT1Bdf8AHtL/ALjfyrhOM8A/ZG/5NV+Dn/Yn6D/6QQ19DV88/sjf8mq/Bz/sT9B/9IIa+hqACiiigAooooAKKKKAP//T/dzxT4s8LeB9CufFPjXWbLw/o1ls8++1C4jtLWHzHWNPMmlZUXc7Kq5IyxAHJFfmp4y+Mt38VPC+o/Dzxx+0R8GtK0DXY/s19caVfb9QS3Yjf9lNxqXlxzYHySMG8tsMFJAr73+NvijV/Bfwu13xNoHgyf4hajZJCYNCtgpkvZJJkjA+ZXAWPd5jnaxCqSASAK/OCwsk+IF9B4h/aQ+E3jLxEYXWaDw1pPhhLLw5bOpyvmp5/n6g6n+K6byieVgSgD9c6KKKACiiigAooooAKguv+PaX/cb+VT1Bdf8AHtL/ALjfyoA8A/ZG/wCTVfg5/wBifoP/AKQQ19DV88/sjf8AJqvwc/7E/Qf/AEghr6GoAKKKKACiiigAooooAKKKKACuR8c+BPC3xH8N3XhPxjYJqGnXY5RuGRh9142HKOvZhyPpmuuoqoTcWpRdmTOCknGSumfF+jeMvGP7NGq2vgv4sXU2ufD66cQ6T4kYFpbLPCW2oY7Dosnp7ZEf2Vb3Fvd28d3aSrNBMoeORGDI6sMhlI4II5BFUtZ0bSfEOlXWia7aRX+n3sZimgmUPHIjdQymvjh4PGH7Jl41xZLc+JvhBNIWkhyZr3QC55ZM8yW2TyOq+xyZPStHE7aT/CX+T8uvrv5l5YbfWn+Mf8157r02+2q4/VYJdDvj4gsVLQSYF3Evcf8APQD1Hf8A/XWx4f8AEGieKtGtPEPhy9i1DTb5BJDPC25HU+h9QeCDyDkEA1rsoZSrDIPBBr43iTIFjqPIpclSD5oS6wmtn5rdSW0otp7nuYTE8j5lrF7+a/rYjgniuYUuIGDxyAMpHQg1896j/wAW1+Nltqw/d6H8QFW1n7JHqcI/dMew81Tt92JJ6V6rAW8LagLSQ/8AErvG/dMekMh/hP8Asnt/+us/4qeCx498EahoUJ2XwUT2UmcGO6h+aMhu2T8pPoTXLw/nksbSlCtHkr0nacez7rvCS1i+qeuqaXkcT5bN0lVw+sovnh523j81eL9T0SivOfhT40PjzwRYa3cDZfoDb3sZGDHdQ/LICO2T8wHYEV6NX08ZXV0b4PFwr0o1qbvGSTXzCiiimdIUUUUAFFFFABRRRQAUUUUAFFFFABRRRQAUUUUAFFFFABRRRQAUUUUAFFFFABRRRQAUUUUAFFFFABRRRQAUUUUAFFFFABRRRQAUUUUAFQXX/HtL/uN/Kp6guv8Aj2l/3G/lQB4B+yN/yar8HP8AsT9B/wDSCGvoavnn9kb/AJNV+Dn/AGJ+g/8ApBDX0NQAUUUUAFFFFABRRRQB/9T9/KKKKACvEfi/8ctK+DJ0qbXfDWt6tp+pXVnaSX2m28ElpZPf3cVlAbmSaeHAaaZBhA7YOduBXt1fGv7bHiGeL4W2/g/S/D2v6/qepav4fvo00bRb/VESDS9bsby5MslnDKkREMbsquQXwQoJ4oA9Z+I/x20f4f8Aie38E2HhvW/GXiGSwfVZrHQreGea109JDELiY3E9ugDuGWNEZpZCrBEbaazNY/aU8CW+g+C9Z8H2OpeN7n4hWz3uiafosMTXdzaQxpJNO32qW2ihjhEiLIZZEId1TBc4rx+bxve+C/jdqfxwPg3xRrHhfx94V0yytvseh3suo2l/o13fOba5sTGtxbC4S7Vo3mRI8q29lGCfNvhz4I8dfs9n4M+P/GHhrUtUtrHwvr2i63a6Nay6rdaTd6zf2uqw/wCj2qySyxoYXt3aJGCsEP3DkAH1LP8AtNfD7/hXuiePtMs9T1SbxHqT6LY6Lb2oGry6tA0qXFk0ErxpHLbmCYzGSRY0WNmL7cEkP7TXw+Hw81vx9qdnqelzeHdSTRb7Rbi2B1ePVp3iS3sVgieRJJbgzwmExyNG6yKwfbkj5W0TwV8QPCUHgr496p4U1SSGD4geJ/El9odvbtcatZaT4it7u0t5TaRbneaIPDLNDGGkUSOACykUa34K+IHi238afHvTPCmqRwz/ABA8MeJbHQ7i3a31a80nw7b2tncSi0l2uk0gSaWGGQLIwjQEBmAoA+1fhl8YtH+Jd/rnh86NqfhfxF4bNv8A2hpOsRQx3cMV4rNbzA201xBJFKEcK8crfMjK2GUivVbr/j2l/wBxv5V8q/CT+2PH3x88a/GxdC1Pw/4dn0DRfDtgur2U2m3d7LZXF9eXE/2W5WOeONDdpEhkRd5DlflAJ9b+I3wj8LfEaSG/8QX2uWsllC8aDSdf1XR4yG+YmSPT7q3SQ56M4JA4BxQBx/7I3/Jqvwc/7E/Qf/SCGvoavnn9kb/k1X4Of9ifoP8A6QQ19DUAFFFFABRRRQAUUUUAFFFFABRRRQAUyWKOaN4ZkEkcgKsrDIYHggg9QafRQB8aa/4A8Y/s8azd/ED4K2j6t4Qu3M+seFlJzH/fudPHO1gOTGOoGACNoT6U+H3xE8JfFDwzb+K/Bt8t7Yz8MOkkMgHzRSp1R1zyD9RkEE9vXyn8Qfg94n8HeJbj4wfAEpaa7L8+q6I52WOsIDk/LwI7jrhxjJOcgli3pqrGuuWq7S6Pv5P/AD+/uvLlSlh3zUleHWPbzj/l93Z/UN9ZW+oWslndLujlGD/Qj3Fc/ot7cWVy3h7VG3TRDMEh/wCWsfb/AIEO/wD9auS+E3xh8MfFvR5bvSRJYatp7eTqWl3I2XdjOOGSRDg4yDtbGDjswKjv9b0ldVth5beVdQHfDIOquP6HvX5/xVkmJpVo5lgo/wC0U1Zx29pDdwfn1g+kv7spX93AYunUhyN3hLr2ff8AzX6o8Psv+La/G2fTj+70P4gqbiHskepwj94voPNU592IA6V9E14f8R9Eu/iF4Du7WyU2/ibQZEvbTb99Lu2+ZdntIMqO2T7V3fw78Y23j3wbpnim2AVruIecg/5Zzp8sqevDA4z1GD3r1smzWhjaEcRh3eEtV0a6NNdGno09U9HsfMYKjLB4yrgJ6J3nH0b95L0k7+kkdrRRRXrnvBRRRQAUUUUAFFFFABRRRQAUUUUAFFFFABRRRQAUUUUAFFFFABRRRQAUUUUAFFFFABRRRQAUUUUAFFFFABRRRQAUUUUAFFFFABRRRQAVBdf8e0v+438qnqC6/wCPaX/cb+VAHgH7I3/Jqvwc/wCxP0H/ANIIa+hq+ef2Rv8Ak1X4Of8AYn6D/wCkENfQ1ABRRRQAUUUUAFFFFAH/1f38ooooAKKKKACiiigAooooAKguv+PaX/cb+VT1Bdf8e0v+438qAPAP2Rv+TVfg5/2J+g/+kENfQ1fPP7I3/Jqvwc/7E/Qf/SCGvoagAooooAKKKKACiiigAooooAKKKKACiiigAooooA+dPiz8EbnxBrEXxO+F98PDXxB05cR3SjFvfxj/AJd7xBw6MAAGIJHHUAY0fhD8brbx9cXXg3xZYnwz480YYv8ASZjgtj/ltbMf9ZC3UEE4yMkgqze9V4t8XvgronxStrXU7e5k0LxXo58zS9ZtfluLaQchWxjfET95Ce5wQSa9CliIziqVb5Pqv81+XTz86rhpU5OrQ3e66P8Ayfn169z0HXNPuIpk17Slzd24w6DpNH3U+47f/qrxHwHqFt4K+KmpeFYW2aH40V9V00HgR3iD/SoB6E43Y6ABQOtRfC/41a1H4iX4Q/G22j0TxxCv+jXC8WWsRDgTWz4A3n+KPg5zgA5RdX4y+B9RuLGHxF4XIi1HS7lL619EuYz0/wByUfKw4GcE8DFfmHEGEqZDi5ZlBf7PN3qpbRe3to+TWlTytPeMrmPvjaEKtBXq0neK6tfapvzavy/3reR9DUVz/hTxDa+K/Dth4htFMaXsQZo2+9HIPlkjb/aRwVPuK6CvvYTUkpRd0zupVIzipxej1CiiiqLCiiigAooooAKKKKACiiigAooooAKKKKACiiigAooooAKKKKACiiigAooooAKKKKACiiigAooooAKKKKACiiigAooooAKKKKACoLr/AI9pf9xv5VPUF1/x7S/7jfyoA8A/ZG/5NV+Dn/Yn6D/6QQ19DV88/sjf8mq/Bz/sT9B/9IIa+hqACiiigAooooAKKKKAP//W/fyiiigAooooAKKKKACiiigAqC6/49pf9xv5VPUF1/x7S/7jfyoA8A/ZG/5NV+Dn/Yn6D/6QQ19DV88/sjf8mq/Bz/sT9B/9IIa+hqACiiigAooooAKKKKACiiigAooooAKKKKACiiigAooooA84+J/wr8I/Frw63h7xXbkmNvMtbqI7Lm0nH3ZYZOqsDjjoehBFeDeFPif4q+FGuW3wl/aFmW5tL0mHR/E5G22v06CG7J4jnA4JY4Pcnh3+wK5nxh4O8NePvD134W8XWEeo6ZertkikHfsykcqynlWBBB5BrrpV4uDo11zQfTt6fqtmcVfCvm9rRdp/g/J/o91+ByPhy6tPC3ii/wDCUreXHdlbqDJ4PmfLkfUrtP8AtLnHz5Pqlfml8RNO+JvwBk0ix1KWbxL4Q025C6PqznNzaQzYV9OvSAcxuAvlSYwGVQMAhU+7/A3jC08RaPaztMGM0KTRSE482JxlW/3h0YdQffOPzjAxeRYuOV1pXw1T+BPourpN9Launf7KcfsrmvBZksVOpSceWrDVrun9pfPSVvJ/asu+opAQRkHIpa+8TOoKKKKACiiigAooooAKKKKACiiigAooooAKKKKACiiigAooooAKKKKACiiigAooooAKKKKACiiigAooooAKKKKACiiigAooooAKguv+PaX/AHG/lU9QXX/HtL/uN/KgDwD9kb/k1X4Of9ifoP8A6QQ19DV88/sjf8mq/Bz/ALE/Qf8A0ghr6GoAKKKKACiiigAooooA/9f9/KKKKACiiigAooooAKKKKACoLr/j2l/3G/lU9QXX/HtL/uN/KgDwD9kb/k1X4Of9ifoP/pBDX0NXzz+yN/yar8HP+xP0H/0ghr6GoAKKKKACiiigAooooAKKKKACiiigAooooAKKKKACiiigAooooApajpun6xYXGl6rbx3dndo0csMqh0kRhgqyngg1+fdjoXxf+HfxL1r4ceArPT/EWkxxm9s9P1Wd4WS3kfiS2mBzwTskUnBYbwMljX6I15543+Fngr4hT2t34nsmmuLJWSKWKWSF1VyCRlGGRkZGc45x1Nc2LwdGvB0sRSjUg94zSlF+qfyfqjws4wFec6eJwkrVYPTXlvF6NXSduj2eqR83HXP2hNPO65+CkVyB1ax8RwR/ksgY/pSf8LT+J1h/yEfhJ4rtcdfsV7DeD8NqjNes/wDDOngiL/jx1LWbL/rjqEgx+eaP+FDJBzp/jzxTbew1Lcv5bBXz3+o+QfZy2lH/AAXh/wCktGf9rZ5He7/7fjL84I8m/wCGib2x41XwV4/03HVptFE0Y/4F5gz+VH/DW3gey/5Cup6rpuOv27RJo8fXyw9es/8ACn/GUH/Hj8TNaTHTzvLn/nij/hXHxkt+bH4py4HabSbaT9S39KP9S8qX8OnWh/hxFZL7udr8A/t/N18VBv8A7dpP/wBvied2X7X3wku8eR4101s9p7W+gP5vCo/Wuwsv2lvhveY8vxXoD5/vajHb/wDo4rSXvw4+M93n7Z4n0XVc/wDP3pEXP12g1x978E/H11k3fhr4far73OksCfxWP+tH+qlFfwsXiYf9vwn/AOl05B/rPjV/Ewn/AJJ/8jUZ7BY/Gfwpf4+yX+m3Wf8An31O1mz9NrV1tr41tbpN8VjcyJ/eiVZF/NTXyHffs8atcZ+2/CzwXc56/Y2uLX8sMuK5K6/Zksd/mn4K2nmj+Oy8RTwH8A8xA/Kl/YGKj/DzOr/2/SpS/wDSVTD/AFua+PBv5Kr+kZH3n/wmOjr/AK8TQf78TD+Wanj8W+HZPu3qj/eVl/mK/Pv/AIUdqVh/x6eCPFujY/6B3ihZMfTKNUEnw/8AGdj/AKi++KVuB/C15FqCj6LsQGn/AGfm8fgx9KX+LDzT++NZr/yUP9csH9uhNf8AgS/9Kpo/RmPXdFl+5fQH/tooP6mrsd1ay/6qZH/3WB/lX5mPY/Eix/1Hi7xnYEd7/wAKWl2PzaUE/lVGTxH8TbD/AF3xAWbH/P8A+F2tvz+zE4/Ci2eR2lh5/wDb1WH/ALjmH+umU/blKPryfrKJ+pNFflxH8W/ifafJZ+K/B05XqJrbW7eT/wAdjKA/jW3Z/Hv4uWp+dtA1D2ttZmtQf/ApP50LH5zH4sJTl/grp/8ApcKZrT4uyafw4lfh/wC2ykfpZRX53RftNfFe3YCXwtaMn96LxNpc7H6IwVq6S3/au8TRLm98G6zOw6i0htLwfgYpxn8qr+28wj/Ey2p/27OhJfhWv+B3U85y6fwYmP3SX5xPu2iviux/a5Dc6p4Q1/TUH8Vzo84/9FNJ/Kr7/tpfCmyIXVbqS1Y8bZbO9iOf+BQEU/8AWaUf4mDxC9KNSf8A6bUzsjWw8leNeH/gSX52PsWivmXTv2s/g1qKh18QWUQP/PS5SI/lLsNdhp37Qnwm1RxHZeIbKdz2ju7eQ/8AjshNYy44y6H8WUof46dSH/pUEdEKLl8Ek/SUX+TPaqK4218f+FrtQ8N5lT3Clh+ag1px+KfD8v3b5B/vZX+YFFDj7I6j5YY6lft7SN/uvc2eX11r7N/czforOj1jSZf9Xewt9JF/xq6k0Uv+rdX+hBr6DC5nhq/8GrGXo0/yOedKUfiViSiiiu0zCiiigAooooAKKKKACiiigAooooAKKKKACoLr/j2l/wBxv5VPUF1/x7S/7jfyoA8A/ZG/5NV+Dn/Yn6D/AOkENfQ1fPP7I3/Jqvwc/wCxP0H/ANIIa+hqACiiigAooooAKKKKAP/Q/fyiiigAooooAKKKKACori4gtIJLq6kWGGFS7u5CqqqMlmJ4AA5JNS147+0P4d8QeL/gF8SfCnhNWk1rWfDer2dkiHDPcz2kscSKexZiAD2zQBF8O/2hPhD8VtYfQPAuvG+vvsxvYkltLq0F1ZhwhubR7mKJLqAMygywGRAWX5vmGfYLr/j2l/3G/lX59eD/AIgeCPjH8XfgOvwnmF4PAul6rPrscUbIdHguNPjs47C7BUeTO9wUxA2H/csxXCg19bfEbSfjJqMkMnwy8T6HoNokLi4j1bRLnVJJH7GN4NSsggA4IKuSecjpQBx/7I3/ACar8HP+xP0H/wBIIa+hq+ef2Rv+TVfg5/2J+g/+kENfQ1ABRRRQAUUUUAFFFFABRRRQAUUUUAFFFFABRRRQAUUUUAFFFFABRRRQAUUUUAFFFFABRRRQAUUUUAFFFFABRRRQBBNbW1wNtxEko9GUN/OsW48JeFLvP2rRbKbP9+2jb+a10NFKxlUoQn8UUzg7j4W/DS6yZ/CmlMT3+xQg/mFzWJcfAz4R3OfM8LWYz/cUx/8AoJFer0VLpx7HFUyXBz+OjF/9ur/I8Nn/AGbfgtccnw4EPqlzcr+glx+lVD+zZ8NEGLIahZD/AKY30w/9CJr32il7GHY45cLZa9fq0PlFL8kfnN8SPgl46sfE15pvhDwZqfiTRYxH5N0fElpavIWRS4MVxExG1yV564z3ryK5+BvxBDF5/gxelv7zappF435/ZgT+dfpT4i+EfgjxTrE+uaxp8M93cbN7vDE5OxQg5ZSegHesUfAT4bDppNuP+3eD/wCIrwKvEmZ0pyp0ssUop2Uva2uu9ubS+9jyavAWFnJyTS8rtflD9X6n5mX3wQ8ZNzJ8K9WtiO8NvYykfQxNGarWvw48faGD9k8I+Nrc/wDTvbXI/Lyr0V+oA+BXw7X7umwj6QQ//EVIPgh4BX7thGPpDD/8RWFfibNKseWrlV1/1/T/ADbM4cAUou8KzT8p1P8AJH5eTv8AGLT+LXSfiDb47y2N46/+RZph+lS2nj742adxc3XiOFV7XOjgn8SbNj+tfqEPgt4HX7too/7Zxf8AxFSD4N+DV+7Bj/gEf/xNfO4rB0q/8fh+nL1lRf5xZ20+FsXT/hZhOPpOf+R+aaftCfFPSMFtTk+XtcaXdD/0XHFWhbftneNbF9uo31qwH/TveRf+jJG/lX6QD4Q+E16Rkf8AAU/+JqQfCfwwOAHH4J/8TXnPIKC+DJHD/BXhD/0mKOpZPmq2zOXzSl/6VBnwZp/7cmpgATR2sg/vG7Ef/jrwN/Ou1sP24tLJAvoof+ATwyH+cdfXL/CDwnJ/rIy31VD/AOy1Tk+B/gOX/W2SP9Yoj/7JWUskxC/g4PEQ9MY3+EpNfgdMMFmy3x0JetKP6RR4LY/tp+DLnHmxMuf9lP8A2WZ67aw/av8Ah3dgb5whPYiUf+0yP1rtJf2evhfP/rtGtpM/3raA/wA0qn/wzR8H85/4R2xz/wBedv8A/G6zeXZ9H+C8RH1qYeX/AKXBnVCnmK+KrRfrTqL8pofZ/tGfDW6xnUYkz/elVf8A0PbXU2fxi8BXx/cajG2fSSJv/QXauYX9nD4TJ9zQbNfpawD/ANp1YH7PnwzT/V6RbL9LaH/4ism+MIfwry/xqi//AEmUDtp+2/5eezfp7RfnzHoUXjnwxModLzg/7Dn+QNaMXibQJhlL6IZ/vHb/AOhYry9PgJ4AhbdBYQRn1FvED+gFakHwk0S1/wCPSYw4/uIB/IihZrxzD/mFpT/8l/8Ac0vyPRpRoP8Aiaekm/zhE9FTW9GkbZHf27N6CVCf51oq6uMoQw9jmvNT8N4e1+w+sY/+KqGT4ZxyDDX4Yf7UOf8A2avRw3EnF6/jZVB+ldL84s0nQwn2aj/8B/4J6lRXlsPw81Kz503Wha/7sDD/ANBlWu30DS73SbA21/fvqMzOXMjgjGcAKoZmIAxnljyT0GAPs8jzXMq83HG4P2Stvzxnr20szhqwgvglf5WNuoLr/j2l/wBxv5VPUF1/x7S/7jfyr6cxPAP2Rv8Ak1X4Of8AYn6D/wCkENfQ1fPP7I3/ACar8HP+xP0H/wBIIa+hqACiiigAooooAKKKKAP/0f38ooooAKKKKACiiigAooooAKguv+PaX/cb+VT1FMhlhkiU7S6kAkZxkelAHz9+yN/yar8HP+xP0H/0ghr6Gr4/+HXwh/ae+Gfw/wDDXw50L4leEptN8L6baaXbPceEb55mhs4VhjMjJryKXKqNxCqCegHSuz/4Rj9rP/oo3gz/AMI/UP8A5oKAPo2ivnL/AIRj9rP/AKKN4M/8I/UP/mgo/wCEY/az/wCijeDP/CP1D/5oKAPo2ivnL/hGP2s/+ijeDP8Awj9Q/wDmgo/4Rj9rP/oo3gz/AMI/UP8A5oKAPo2ivizxtrP7WXg3xL4C8Onxv4Mu/wDhN9Zm0gS/8IpqEf2bytMvdR83b/bzeZn7H5e3K/f3Z+XafRv+EY/az/6KN4M/8I/UP/mgoA+jaK+cv+EY/az/AOijeDP/AAj9Q/8Amgo/4Rj9rP8A6KN4M/8ACP1D/wCaCgD6Nor5y/4Rj9rP/oo3gz/wj9Q/+aCj/hGP2s/+ijeDP/CP1D/5oKAPo2ivnL/hGP2s/wDoo3gz/wAI/UP/AJoKP+EY/az/AOijeDP/AAj9Q/8AmgoA+jaK+LPhbrP7WXxL8NXniIeN/BmnfZNZ1zSPK/4RTUJd39janc6d5u7+3kx5v2fzNuPl3bctjcfRv+EY/az/AOijeDP/AAj9Q/8AmgoA+jaK+cv+EY/az/6KN4M/8I/UP/mgo/4Rj9rP/oo3gz/wj9Q/+aCgD6Nor5y/4Rj9rP8A6KN4M/8ACP1D/wCaCj/hGP2s/wDoo3gz/wAI/UP/AJoKAPo2ivnL/hGP2s/+ijeDP/CP1D/5oK858baz+1l4N8S+AvDp8b+DLv8A4TfWZtIEv/CKahH9m8rTL3UfN2/283mZ+x+Xtyv392fl2kA+06K+cv8AhGP2s/8Aoo3gz/wj9Q/+aCj/AIRj9rP/AKKN4M/8I/UP/mgoA+jaK+cv+EY/az/6KN4M/wDCP1D/AOaCj/hGP2s/+ijeDP8Awj9Q/wDmgoA+jaK+cv8AhGP2s/8Aoo3gz/wj9Q/+aCj/AIRj9rP/AKKN4M/8I/UP/mgoA+jaK+cv+EY/az/6KN4M/wDCP1D/AOaCvOfhbrP7WXxL8NXniIeN/BmnfZNZ1zSPK/4RTUJd39janc6d5u7+3kx5v2fzNuPl3bctjcQD7Tor5y/4Rj9rP/oo3gz/AMI/UP8A5oKP+EY/az/6KN4M/wDCP1D/AOaCgD6Nor5y/wCEY/az/wCijeDP/CP1D/5oKP8AhGP2s/8Aoo3gz/wj9Q/+aCgD6Nor5y/4Rj9rP/oo3gz/AMI/UP8A5oKP+EY/az/6KN4M/wDCP1D/AOaCgD6Nor4s8baz+1l4N8S+AvDp8b+DLv8A4TfWZtIEv/CKahH9m8rTL3UfN2/283mZ+x+Xtyv392fl2n0b/hGP2s/+ijeDP/CP1D/5oKAPo2ivnL/hGP2s/wDoo3gz/wAI/UP/AJoKP+EY/az/AOijeDP/AAj9Q/8AmgoA+jaK+cv+EY/az/6KN4M/8I/UP/mgo/4Rj9rP/oo3gz/wj9Q/+aCgD6Nor5y/4Rj9rP8A6KN4M/8ACP1D/wCaCj/hGP2s/wDoo3gz/wAI/UP/AJoKAPo2iviz4W6z+1l8S/DV54iHjfwZp32TWdc0jyv+EU1CXd/Y2p3Onebu/t5Meb9n8zbj5d23LY3H0b/hGP2s/wDoo3gz/wAI/UP/AJoKAPo2ivnL/hGP2s/+ijeDP/CP1D/5oKP+EY/az/6KN4M/8I/UP/mgoA+jaK+cv+EY/az/AOijeDP/AAj9Q/8Amgo/4Rj9rP8A6KN4M/8ACP1D/wCaCgD6Nor5y/4Rj9rP/oo3gz/wj9Q/+aCvOfG2s/tZeDfEvgLw6fG/gy7/AOE31mbSBL/wimoR/ZvK0y91Hzdv9vN5mfsfl7cr9/dn5dpAPtOivnL/AIRj9rP/AKKN4M/8I/UP/mgo/wCEY/az/wCijeDP/CP1D/5oKAPo2ivnL/hGP2s/+ijeDP8Awj9Q/wDmgo/4Rj9rP/oo3gz/AMI/UP8A5oKAPo2ivnL/AIRj9rP/AKKN4M/8I/UP/mgo/wCEY/az/wCijeDP/CP1D/5oKAPo2ivnL/hGP2s/+ijeDP8Awj9Q/wDmgrzn4W6z+1l8S/DV54iHjfwZp32TWdc0jyv+EU1CXd/Y2p3Onebu/t5Meb9n8zbj5d23LY3EA+06guv+PaX/AHG/lXzz/wAIx+1n/wBFG8Gf+EfqH/zQUyTwr+1lIjRn4jeDMMCP+RP1Dv8A9zBQBa/ZG/5NV+Dn/Yn6D/6QQ19DV5z8H/AUnws+E/g34ZS3w1NvCej2GlG6Efkif7FAkHmeXufZu2Z27jjOMmvRqACiiigAooooAKKKKAP/0v38ooooAKKKKACiiigAooooAKKKKACiiigAooooAK8n+JHxv+GXwmubGx8c6rJbXmoxzTw21rZ3eoXJgt9vnTtBZQzSJDHuXfKyhFyMsK9Yr4n8beO/CHwY/au1Hx98V9Rj0Hw94h8FWGn6ZqV0GW2+16dqF5Nd2iyAECaRLiB0j+9LtIUMUxQB9daTqHhvxhpWk+KdHmttX0+5jS+0+7j2yxsk0ZCTQuM/fjcgMp5ViOhNefeEPjx8L/H3iJ/DPg7UrnVJ1Myrcxadff2bKYCRIIdRMAspSpBBEczHg181fAtryD9mC2+B9vJLo3xA1fwrrer6bpk0ckFxa2OoXVyLEuSoSJovPhjKFgyEYIGDjxX9l7Xo9J1L4GeEvh14z1vXdb/s17Px5oF7cTS22jQ2mmPxJZOoj0yS3v0ht4UjWPzUZs+YMyUAfq9RRRQAUUUUAFeJaB+0Z8GfFHjUfD7Q/EQudYlnubWDNrdR2l1c2W77TBa3rxLa3EsO1vMjhldl2tkDace0zK7xOkTbHZSFbrgkcH8K/Jn4deINF1n4U/s9/s9aQSfiZ4G8TaRJrulBG+16YNEaZtSu7oEDy4p1DrHKxAm89dhbcaAP0j8b/EP4efB/SbW88U3I0uDU7tobW3tLSa6ubu7m3zusFpZxyTzSNh5H2RsfvM3c1peAfiL4N+J+gnxJ4H1EajYpPLay5jlgmguIDiSGeCdI5YZUONySIrDIJGCK+M/2iviH4P8AGEPwd8f6D4pPhbww2t6k48cxQnGkSQWtxbNEVuozboLt/MgL3cTxAKcKXaNl739jK4+0+E/HVxb3jeIbGbxZfy23iV4zC/iNJILZmvyvER2OWtQ0CpAwgBjRRxQB9iUUUUAFFFFAHk3xG+OPwx+E+o6Tpfj3VZdOuNblhgtQlld3SF7iZLaLzHtoZEiDzSIgaUqu5gM16ddW1jM0N1exRu1kxmieRQTE+xkLqT907GZSRj5SR0Jr4r/by+Jfw98G/B6Dw94s8R2GkanqmueGbq1trq4SKaeCx1/TprmSNGILLDGpeQjhVBJ4r1Hx38QvB/xc+HPinwB8K/EVtrHiHxV4Q1S+0g2bmSKaCVJLKOeO4UeUQLhgn3855xgZoA6PwD+0T8HPidr/APwjPgnxCL+/kglurcPa3VtFe28LhJJrKa4ijiu4kZgGkt3kUZGTgiva6/NjwD458HfFPxb+zX4c+Gj+bqfw9t7q48QWqRMkuhW0ehy6c1neoVHkStdSxIsT4ZvLLqCqZr9J6ACiiigAqveXdvYWk99dv5cFujSSNgnaiDLHA54AqxUU80NtDJcXDiOKJS7sxwFVRkkn0AoA8z+GPxm+HPxih1eb4e6lLqA0G5S0vVmsruyeKaSJJ0Gy7ihZg0UiOrKCpDAgms7xt8Y/hZ8IbyLQ/EU1xZ3FxHLfmDTtJvr/AGRSSMZLiYWFvMIlaTeWkk2gncSepr5V+An7Q3wN1L43ftAXul+OtIv4tQ1Sw1S1+zXcc7XFjp/hywW6nhSMs0iQtFIrlAcFSOoxXd/Hr9rrwL4G0/wt4Y8K+KdH0rxF8RLFb/S9S1u4Sz02w0yVQf7SuPtDRmTAP7m2GJJpPlOxBI6AH11oGv6J4q0Ow8S+G76HU9K1SCO5tbq3cSRTQyqGR0YcFWBBBrXryT4D6F4D8MfB3wl4d+GWsReIfDGm2EdvZajDOlyl2seVebzYiUYu4Ytt+UEkAADFet0AFFFFABXmHxV+Mnw6+CmgDxP8SdSl0zTSJD5kVndXpCwoZJHZLSKZwiICzMV2gDJNen18q/tr+OvBvgv9l/4mW/i7W7PR5fEHhnXNN05bqZITd3s+nTiK3hDEb5XP3VGSe1AH0vAdK1u30/V4447qMBbq1ldPmTzIyodNwyjGNyM8HDEHqRXFat8Xfh1ofxJ0P4QanrKR+L/EcE1zY6esUsjvDAju7u6I0cQKxyFPNZN+xgm4qwHE/C744fCbxN4Y8D6b4X8U2OsXHiG3e0sPscn2iOa5021SW6i8yIMiNEhBYMQewyeK+G7bQf2hPCH7QHwbv/H3g/QLnxP4g1/Xb2/1K38Qzy/azJpcsTIsb6Yhghs7QbbaEPJu2BWdWd5SAfrFRRRQAUUUUAFeTeB/jj8MfiP4s1rwP4P1WW81rw9FHNeQSWV3bBYpZZIUkjkuIY45UMkUi7omcZU816zXwD4c+OvwZv8A9unxLpdl430ee8vPCGiaHBCl7Ezyapa6rqzTWaqGyZ4xIhaMfMNwyOaAPsPxj418B/CXw6dd8U3cOi6bJc+Wixws8lxd3Ts/lwwQI0s00rlm2RozsdzYPJq/4L8baB4/0RfEHhs3f2QyNEVvbG606dXTGQ1vexQzL1GNyDPavhT9pPXvC3xD1T4GfF218WXmlfCux1nWYdX1vT3msmtTLZz2sEj3G1ZbWM3Eb2z3A2FBKQHUOGr3H9lLxBrGv+GvF7f2zfeJfCVj4iurfwvq2ou81xe6StvbsX+0SDfcRR3TXEUU7FjIiA7mADEA+pqKKKACiiigDzD4q/GT4dfBTQB4n+JOpS6ZppEh8yKzur0hYUMkjslpFM4REBZmK7QBkmu8gOla3b6fq8ccd1GAt1ayunzJ5kZUOm4ZRjG5GeDhiD1Ir5o/bX8deDfBf7L/AMTLfxdrdno8viDwzrmm6ct1MkJu72fTpxFbwhiN8rn7qjJPauu+Fnxw+Enibw14G03w14pstYn8QwPZ2JspPtMc1xptqkt1F5kQZFaJDlg7D0GTxQBYsv2lPgrqPi+LwRaeIS+oT38mlQzGyvF0+bUIiyvaRai0IspJ1ZWUxJMX3ArjcMV7pX4xeEtWtXvvBWj2/ieW5163+Iv2uT4UNANmk+bqsplutwUX6i0V2v1lmmazZhhIlUoF/Z2gAooooAKzNa1nTPDujX/iDW7hbTTtMt5bq5mYErHDCheRzjJwqgk4Ga06xvEfiHRfCPh7VPFfiS7Sw0jRbWe9vLiTOyG2tkMksjYBOERSTgZ4oA868A/Hb4YfEvWp/DfhTU5zq9vbfbDZ3+n3ul3ElrvEf2iKK+ggeWEOQpkjDICQCeRnY8cfEL4efB3RINT8V3S6TaaheGC3htrWW5uLq8uC8rJBa2kck00rkPIwjjZjhnPQmvkr4A/F/wCHH7R/xkj+L0XjDRmvrLSr3T/DHhm21C2n1SDTLqWCW7v9QiikZ0nuDBDiDGLeMAOTK7hNX4o/EzwLcfED4I/tBnVEf4b6fN4jsbnWJI5I7Wyu7uAW0E1wZFUwx77ee381wFDSAEgOCQD638C+PvCPxL8OQeLfBGopqel3DyRCRVeN0lhcxyxSxSqkkUkbqVeORVdSMEA119fJ/wCypKmtJ8U/H2ko6+GvGPjO81LRZGRkS5tEsbK0e6iDAExz3FvM6NjDg7xkNk/WFABRRRQAUUUUAFFFFABRRRQB/9P9/KKKKACiiigAooooAKKKKACiiigAooooAKKKKACiiigAooooAKKKKACiiigAooooAKKKKACiiigAooooAKKKKACivOfjDfXumfCTxvqWm3Elpd2mh6lNDNC5jkikjtpGR0dSCrKQCCDkHkV+eHhXx74t+FX7PD/GvQvCfjaTxTbaDozpceM/Etxqui6nNqNxZxSmG2Gs3ZjeTzC8btBEUBxwCYyAfqrRXwV8Rv2g/i/8OfF2k/CrWbrRz4m1Cxn1u41Cx8M69rNna2IlS3gtVstOlluJJWk83dcySwRhVXERZtov6B+0R8YfiLD8P/B3hLQbHwx4z8UQ67eajNr1hqAs7ex0C5itGngspGsrt/tr3EMkCytGY42O8MwwQD7mor4R8GftKfFTU7bwxbeK9K0e11PUvifqXgW/S0WeSFLSwsr6fzoHeUN5rSWq/Mw27GI8sNyLnxI/aq8QfD69+KNg+mW13L4Z8SeHvDmiCO3u5y8ut2FrdNLdx2onnmELTSMEt4g7qqxgbjvoA+4qK/OS+/a0+LWifDf4la5JocOsal4QsdNvtM1OTw9rfh7Tb5r26+zS2klrqpWZZocBt8czoyyKflKstegeIv2i/iL8GdT8dWHxmstJ1dfD3g+bxhZHQo7i23R20zQS2Mv2mSbe28x7LhQgILExLjFAH23RXytq+vftVeEvhh4m8ca5H4W1fWdO0s6jaaTp1lfIyy25WWezM0l24uGeEPHFKqQgS7WMbLla6TwR8aZPib8Vf7C8CfZr3wZY+GbDWby/KuZnu9abzdOgiYOEUC1jkmmBRjiSHBXncAfQtFfM3j34h/FrVPi9L8Hvg4NEsbzSNCg17Ub/AF2C5uoWW9uJ7a0tYYbaa3YMzW0rSSs7BBtxG5Jx8keLtZ8V/tReN/2dr+8t9Bt/D3iCx168vdB1rTJtXtl1TSWjgu2bbeW8cyoWZbRmjBibdI2/eEQA/VCivAP2n/inH8IPgp4g8UxalbaRqd0ItL0y5vJUggh1DUpFtbeaV3KqscLyedISQBGjEkAE151+yL8SfD3iGz8Z/CzR/HcfxF/4QHU1W11ldTTV5bvS9TT7VatNdLJIXkhczWx3MWxCCc5zQB9iUV8u69PceJ/2tdE8M3DAWvgvwlc65Zo4LRnUtUujYJOygjLQW8MyDBHy3DjPIr5V+B134k+G3gX4o/G/xfr3hG18Tat4v1rSBrNxod811LLb63Pa+Q3lXs1zdREIq2VlFtaMBVLyYLUAfqZRXwn4H+JF5+018Ofi78KvGyxLqOgQrbLqNtpuo6IsiXtp9otLuOy1QfaraaCZSQS7jciyI5BwPpP4C+NtR+JXwP8Ah/8AELWFCah4k0DTNRuQBgefdW0ckmB6bmOPagD1miiigAooooAKKKKACiiigAooooAKKKKACiiigAooooAKKKKACiiigAooooAKKKKACiiigAooooAKKKKAP//U/fyiiigAooooAKKKKACiiigAooooAKKKKACiiigAooooAKKKKACiiigAooooAKKKKACiiigAooooAKKKKACiiigDB8VeHrLxd4Y1jwnqTyRWmtWdxZTPCQJFjuY2icoWDAMAxwSCM9Qa898RfBTwr4m+Dtp8Er+6vY9DsrXTbRJonjF2U0uSGSElzG0e5jAu/EYBBOAvGPYKKAPHfiL8GNI8feINK8Z2Ou6t4Q8UaPBNaQatossEdw1ncMryW0qXUNxbzRF0VwJImKsMoVJOef179nvTde0/wtJJ4y8RWvibwg94bLxHFc2zaq0eoNuuoZjLbSW0kMmEHlm32r5cewKUBr6CooA+G/hj+yy8fw+8Q+B/GFxquiXFl491PxNoOrW97DNqaFpT9nvvOcXEbSTI8gkWeNtwdg6DNeiWP7Jvw8g0XxjpWq6tres3PjbUrHWbvULu8UX8Gp6dFClvd2s0MURhkRoEkUAbFPyqqxYjH1BRQB866h+ztbeI/A/iLwJ448e+JvFNp4jS1jkmv57FZbdLSYTKLdbazghUswAdmiZmAALcA11/in4KeB/Gvi/UPF3iiKXUP7V8OXPha7sZGX7HNp15MJpQyhRJvJG3cJAApPGcEet0UAeE+FPhzrPwe0W/vtM8R+KfiKtlZ+TYaPqF3pzuqR4KxwSvFZh5CAF8y7uGOOr8nPKfsk/BOT4I/C+fTtT09NL1rxJqd5rF7aJMLlbIXD7LSxSYEhks7SOG3G0lPkJT5SK+oaKAPEPiL8C9J8e+KbbxzpviXW/BniOGxfS5b/Qp4IZrmwaTzRbzLcwXEZVJCzRuqLJGWYo67jUmhfALwB4Xv/h7d+HUubCH4Z2N9p+l2ySBoni1BIkma4Lq0kkn7kNv3glmZm3E8e10UAedeMvhl4f8d+JPCPiLxBLcSr4MvJ9QtbIGP7JNdTW0lqstwjIzOYY5ZDFhlCs24hiBhkfwt8NW3xNt/irpzTWOqR6TLo00EHlpa3Vs86XEbTJ5ZYyQureUyuuBJICGyMekUUAeU678Ori7+Lnhj4raNdJbXGm2N/o+pQupP2vT7sxzx7SOkkFzCjKTxseUdSK4u+/Zn8E3fgibwTBqurWP/FTXfi211G3nhW+sdVu72W+aSBmhaIojzOipLFIDGdr7j81fRVFAHyzD+zUfDPhz4mL4M8WapdeK/ifawW1/q+tSx3MkTxQtai4iSCGFVdIZCUQARhlQKqLkV9F+GfDuk+EPDek+E9Bh+z6ZolpBY2sWc+XBbRiKNc+yqBW3RQAUUUUAFFFFABRRRQAUUUUAFFFFABRRRQAUUUUAFFFFABRRRQAUUUUAFFFFABRRRQAUUUUAFFFFABRRRQB//9k=;" vertex="1" parent="1">
          <mxGeometry x="969.005" y="116" width="640" height="480" as="geometry" />
        </mxCell>
        <mxCell id="5Z_fXDEKwbZJyF92QmT3-8" value="&lt;font style=&quot;font-size: 16px;&quot;&gt;&lt;b&gt;研究目的：&lt;/b&gt;&lt;/font&gt;&lt;div&gt;&lt;font style=&quot;font-size: 16px;&quot;&gt;探究子模式识别顺序对计算延迟的影响&lt;/font&gt;&lt;/div&gt;" style="text;html=1;align=left;verticalAlign=middle;whiteSpace=wrap;rounded=0;" vertex="1" parent="1">
          <mxGeometry x="1594" y="161" width="345" height="30" as="geometry" />
        </mxCell>
        <mxCell id="5Z_fXDEKwbZJyF92QmT3-9" value="&lt;font style=&quot;font-size: 16px;&quot;&gt;&lt;b&gt;实验结论：&lt;/b&gt;&lt;/font&gt;&lt;div&gt;&lt;font style=&quot;font-size: 16px;&quot;&gt;由于中间匹配的创建代价远高于读代价，所以尽可能保证少的中间匹配结果能够有效降低整体计算延迟。&lt;/font&gt;&lt;/div&gt;&lt;div&gt;&lt;font style=&quot;font-size: 16px;&quot;&gt;&lt;br&gt;&lt;/font&gt;&lt;/div&gt;" style="text;html=1;align=left;verticalAlign=middle;whiteSpace=wrap;rounded=0;" vertex="1" parent="1">
          <mxGeometry x="1594" y="207" width="345" height="90" as="geometry" />
        </mxCell>
        <mxCell id="5Z_fXDEKwbZJyF92QmT3-10" value="&lt;font style=&quot;font-size: 16px;&quot;&gt;&lt;b&gt;实验结论分析：&lt;/b&gt;&lt;/font&gt;&lt;div&gt;&lt;font style=&quot;font-size: 16px;&quot;&gt;举个例子，比如探究模式为$$P = A\{2,\}\&amp;nbsp; B\{2,\}$$对相同数据生成频率，和事件发生频率，且数据相互独立的`A`和`B`事件进行模式识别。显然`fa=0.5,fb=2`的中间匹配数远大于`fa=2,fb=0.5`。这里差距不大是因为已经由于组合数已经严重超过处理器计算能力，单个数据的处理延迟已经超过2h，从理论上分析中间匹配数的差距为`2^{2 - 0.5}`&lt;/font&gt;&lt;/div&gt;" style="text;html=1;align=left;verticalAlign=middle;whiteSpace=wrap;rounded=0;" vertex="1" parent="1">
          <mxGeometry x="1594" y="290" width="345" height="259" as="geometry" />
        </mxCell>
        <mxCell id="5Z_fXDEKwbZJyF92QmT3-11" value="" style="ellipse;whiteSpace=wrap;html=1;aspect=fixed;strokeColor=none;fillColor=#f70202;" vertex="1" parent="1">
          <mxGeometry x="1065" y="187" width="20" height="20" as="geometry" />
        </mxCell>
        <mxCell id="5Z_fXDEKwbZJyF92QmT3-12" value="" style="ellipse;whiteSpace=wrap;html=1;aspect=fixed;strokeColor=none;fillColor=#f70202;" vertex="1" parent="1">
          <mxGeometry x="1508" y="413" width="20" height="20" as="geometry" />
        </mxCell>
      </root>
    </mxGraphModel>
  </diagram>
  <diagram id="ZsQfJGP2cDztVOhuFyYw" name="问题思考">
    <mxGraphModel dx="1084" dy="833" grid="0" gridSize="10" guides="1" tooltips="1" connect="1" arrows="1" fold="1" page="0" pageScale="1" pageWidth="1200" pageHeight="1920" math="1" shadow="0">
      <root>
        <mxCell id="0" />
        <mxCell id="1" parent="0" />
        <mxCell id="aigkM8CXyTRMuq5jLNZu-1" value="A" style="ellipse;html=1;aspect=fixed;whiteSpace=wrap;shadow=0;opacity=50;fillColor=#dae8fc;strokeColor=#6c8ebf;" vertex="1" parent="1">
          <mxGeometry x="-93" y="14" width="80" height="80" as="geometry" />
        </mxCell>
        <mxCell id="aigkM8CXyTRMuq5jLNZu-2" value="B" style="ellipse;html=1;aspect=fixed;whiteSpace=wrap;shadow=0;opacity=50;fillColor=#fff2cc;strokeColor=#d6b656;" vertex="1" parent="1">
          <mxGeometry x="-36" y="18" width="80" height="80" as="geometry" />
        </mxCell>
        <mxCell id="aigkM8CXyTRMuq5jLNZu-3" value="C" style="ellipse;html=1;aspect=fixed;whiteSpace=wrap;shadow=0;opacity=50;fillColor=#f8cecc;strokeColor=#b85450;direction=south;rotation=5;" vertex="1" parent="1">
          <mxGeometry x="-63" y="61" width="80" height="80" as="geometry" />
        </mxCell>
        <mxCell id="aigkM8CXyTRMuq5jLNZu-8" value="" style="ellipse;whiteSpace=wrap;html=1;aspect=fixed;fillColor=#f70202;" vertex="1" parent="1">
          <mxGeometry x="-33" y="64" width="13" height="13" as="geometry" />
        </mxCell>
        <mxCell id="aigkM8CXyTRMuq5jLNZu-9" value="$$P=A^*\ B^*\ C^*$$" style="text;html=1;align=center;verticalAlign=middle;whiteSpace=wrap;rounded=0;" vertex="1" parent="1">
          <mxGeometry x="-11" y="-59" width="124.5" height="30" as="geometry" />
        </mxCell>
        <mxCell id="aigkM8CXyTRMuq5jLNZu-10" value="从选择性角度出发：" style="text;html=1;align=center;verticalAlign=middle;whiteSpace=wrap;rounded=0;" vertex="1" parent="1">
          <mxGeometry x="-124" y="-59" width="133" height="30" as="geometry" />
        </mxCell>
        <mxCell id="aigkM8CXyTRMuq5jLNZu-11" value="假设事件`A\ B\ C`相互独立" style="text;html=1;align=center;verticalAlign=middle;whiteSpace=wrap;rounded=0;" vertex="1" parent="1">
          <mxGeometry x="-103" y="-16" width="166" height="30" as="geometry" />
        </mxCell>
        <mxCell id="aigkM8CXyTRMuq5jLNZu-12" value="A" style="ellipse;html=1;aspect=fixed;whiteSpace=wrap;shadow=0;opacity=50;fillColor=#dae8fc;strokeColor=#6c8ebf;" vertex="1" parent="1">
          <mxGeometry x="155" y="19" width="80" height="80" as="geometry" />
        </mxCell>
        <mxCell id="aigkM8CXyTRMuq5jLNZu-13" value="B" style="ellipse;html=1;aspect=fixed;whiteSpace=wrap;shadow=0;opacity=50;fillColor=#fff2cc;strokeColor=#d6b656;" vertex="1" parent="1">
          <mxGeometry x="172" y="52.5" width="46" height="46" as="geometry" />
        </mxCell>
        <mxCell id="aigkM8CXyTRMuq5jLNZu-14" value="C" style="ellipse;html=1;aspect=fixed;whiteSpace=wrap;shadow=0;opacity=50;fillColor=#f8cecc;strokeColor=#b85450;direction=south;rotation=5;" vertex="1" parent="1">
          <mxGeometry x="185" y="66" width="80" height="80" as="geometry" />
        </mxCell>
        <mxCell id="aigkM8CXyTRMuq5jLNZu-15" value="" style="ellipse;whiteSpace=wrap;html=1;aspect=fixed;fillColor=#f70202;" vertex="1" parent="1">
          <mxGeometry x="198" y="80" width="13" height="13" as="geometry" />
        </mxCell>
        <mxCell id="aigkM8CXyTRMuq5jLNZu-16" value="假设事件`A\ C`和`A\ B`相互独立，&lt;span style=&quot;white-space: pre;&quot;&gt;&#x9;&lt;/span&gt;`A\rightarrow B`呈因果关系" style="text;html=1;align=center;verticalAlign=middle;whiteSpace=wrap;rounded=0;" vertex="1" parent="1">
          <mxGeometry x="146" y="-16" width="166" height="30" as="geometry" />
        </mxCell>
        <mxCell id="aigkM8CXyTRMuq5jLNZu-18" value="引入因果假设1：&lt;span style=&quot;text-align: left;&quot;&gt;结果发生原因一定出现，原因出现结果不一定出现&lt;/span&gt;" style="text;html=1;align=center;verticalAlign=middle;whiteSpace=wrap;rounded=0;" vertex="1" parent="1">
          <mxGeometry x="123" y="-54" width="224" height="30" as="geometry" />
        </mxCell>
        <mxCell id="aigkM8CXyTRMuq5jLNZu-19" value="根据假设1，由于B发生A一定发生，所以可以B的解集一定可以投影在A的某个子集上，即B可解一定A可解。这样就减少了由于A可解B不可解的组合进行了剪枝，所以中间匹配结果的组合数一定小于原来的组合数。" style="text;html=1;align=center;verticalAlign=middle;whiteSpace=wrap;rounded=0;" vertex="1" parent="1">
          <mxGeometry x="305" y="23.25" width="250" height="104.5" as="geometry" />
        </mxCell>
      </root>
    </mxGraphModel>
  </diagram>
</mxfile>
